<?xml version="1.0" encoding="utf-8"?>
<!-- Generator: Adobe Illustrator 19.0.0, SVG Export Plug-In . SVG Version: 6.00 Build 0)  -->
<svg version="1.2" baseProfile="tiny" id="Layer_1" xmlns="http://www.w3.org/2000/svg" xmlns:xlink="http://www.w3.org/1999/xlink"
	 x="0px" y="0px" viewBox="0 0 517.1 413.3" xml:space="preserve">
<g id="XMLID_1_">
	<path id="XMLID_575_" fill="#373A40" d="M1.1,0.4c170.7,0,341.3,0,512,0.1c1.3,0,4.3-2.1,4,1.9c-1.3,1.3-2.9,1.5-4.6,1.5
		c-2,0-4,0-6,0c-150.6,0-301.3,0-451.9,0c-4.7,0-9.3-0.2-13.9,0.9c-5.1,1.5-10.4,0.9-15.6,1c-3.4,0.1-6.9-0.3-10.2,0.9
		c-2.2,1-3,2.8-3.3,5.2c-1.8,20.4-1,40.9-0.8,61.3c0,4.4,2.2,8.7,0.5,13.2c-0.6,1.6-1,3.4-3,3.4c-2.3,0-2.9-1.8-3.2-3.7
		c-0.3-2.3-0.3-4.6-0.3-7c0-20.5,0-40.9,0-61.4c0-3.5,0.1-7-2.2-10C2.1,7.4,1.8,7,1.7,6.5C0.4,5.6,3.7,5.6,2,4.6
		c-0.4-2,1-1.5,2.1-1.7c-0.7,0-1.5,0.2-2.2,0C0.6,2.6,0.2,1.7,1.1,0.4z"/>
	<path id="XMLID_574_" fill="#31323A" d="M517.1,7.4c0,136.3,0,272.7,0,409c-1.6,0.9-2.5,0.1-3.1-1.2c-0.6-1.8-0.4-3.6-0.4-5.4
		c0-130.9,0-261.7,0-392.6c0.1-2.1-0.3-4.2,0.2-6.2C514.3,9.3,514.8,7.4,517.1,7.4z"/>
	<path id="XMLID_573_" fill="#2C2F36" d="M40.1,3.4c2.3-1.5,4.8-1,7.3-1c156.6,0,313.1,0,469.7,0c0,0.7,0,1.3,0,2
		c-0.8,0.7-1.7,1-2.7,0.9c-4.5-0.4-9-0.4-13.5-0.4c-149.9,0-299.9,0-449.8,0c-2.8,0-5.7,0.1-8.5-0.1c-0.7-0.1-1.3-0.3-1.8-0.6
		C40.5,3.9,40.3,3.7,40.1,3.4z"/>
	<path id="XMLID_572_" fill="#41444A" d="M403.1,422.4c-0.3,0-0.7,0-1,0c-1.9-1-3.9-0.5-5.9-0.5c-130.1,0-260.1,0-390.2,0
		c-2,0-4,0.5-5.9-0.5c0-0.3,0-0.7,0-1c0.7-0.7,1.5-1.2,2.5-1.4c81.8-0.1,163.5,0,245.3,0c51.1,0,102.2-0.1,153.4,0.1
		c0.6,0.2,1.2,0.4,1.7,0.9C403.7,420.7,403.8,421.5,403.1,422.4z"/>
	<path id="XMLID_2_" fill="#CDD0D4" d="M402.1,422.4c-132.5,0-265,0-397.5-0.1c-1.5,0-3.4,1.2-4.5-0.9c4.2-0.1,8.3-0.2,12.5-0.2"/>
	<path id="XMLID_570_" fill="#2E3139" d="M2.1,5.4c0,0.3,0,0.7,0,1c1.9,3.7,1.4,7.8,1.4,11.8c0,96.1,0,192.3,0,288.4
		c0,20.2,0.1,40.3,0,60.5c-0.3,3.9,0.2,7.8-0.1,11.7c-0.1,1.9,0.1,3.9-1.5,5.5c-0.5,0.5-1.1,0.5-1.8,0.2c0-126.7,0-253.3,0-380
		c0.2-0.3,0.6-0.5,1-0.4C1.6,4.4,1.9,4.8,2.1,5.4z"/>
	<path id="XMLID_569_" fill="#3D425F" d="M486.1,422.4c-9.3,0-18.7,0-28,0c-0.6-0.6-0.7-1.4-0.5-2.2c0.7-1.2,2.1-1.5,3.3-2.1
		c0.5-0.1,1-0.1,1.5-0.1c5,1.4,9.9,0.7,14.7-1.2c5.2,1.2,10.4-1.6,15.6,0.2c1,0.8,1.9,1.8,1.7,3.3c-1.5,1.9-3.8,0.7-5.6,1.3
		C488,422,486.9,421.7,486.1,422.4z"/>
	<path id="XMLID_568_" fill="#3B4077" d="M458,420.5c0,0.6,0.1,1.3,0.1,1.9c-0.3,0-0.7,0-1,0c-3.2-1.1-6.4-0.2-9.7-0.5
		c-10.2,0-20.5,0-30.7,0c-3.9,0.3-7.8-0.6-11.6,0.5c-0.7,0-1.3,0-2,0c0-0.6,0.1-1.3,0.1-1.9c1.4-1.9,3.6-1.5,5.5-1.5
		c14.6-0.1,29.2,0,43.8,0C454.4,418.9,456.6,418.5,458,420.5z"/>
	<path id="XMLID_567_" fill="#363746" d="M515.1,415.4c0.7,0.3,1.3,0.7,2,1c0,0.7,0,1.3,0,2c-2.3,2.3-5.3,1.4-8,1.5
		c-3.5,0.1-6.9,0.1-10.4,0c-1.8-0.1-3.4-0.7-3.2-2.8c0.2-2.1,1.9-3.1,3.8-3.3c3.9-0.5,7.8-0.6,11.7,0.1
		C512.5,414.1,513.9,414.4,515.1,415.4z"/>
	<path id="XMLID_566_" fill="#282C33" d="M0.1,384.4c0.3,0,0.7,0,1,0c1.6,0.7,2.1,2.1,2.1,3.7c0.2,9.8,1,19.6-0.5,29.3
		c-0.1,1-0.2,2-0.9,2.8c-0.6,0.1-1.1,0.2-1.7,0.3C0.1,408.4,0.1,396.4,0.1,384.4z"/>
	<path id="XMLID_565_" fill="#50559E" d="M416.2,421.6c10.6,0,21.2,0.1,31.9,0.1c0.2,0.1,0.5,0.2,0.7,0.3c-0.2,0.2-0.4,0.3-0.6,0.5
		c-10.7,0-21.3,0-32,0C415.4,422.1,415.4,421.8,416.2,421.6z"/>
	<path id="XMLID_564_" fill="#3B4077" d="M488.1,421.3c1.9-1.3,4-0.8,6-1c7.7-1.5,15.4-1.6,23,0.1c0,0.3,0,0.7,0,1
		c-6.9,1.1-13.8,0.2-20.7,0.5C493.6,421.6,490.8,422.6,488.1,421.3z"/>
	<path id="XMLID_563_" fill="#303748" d="M517.1,420.4c-7.7,0-15.3,0-23-0.1c-0.7-0.6-1.4-1.3-2-1.9c2.1-2.2,3.8,0.8,5.8,0.5
		c6.4,0.3,12.9-0.6,19.3,0.5C517.1,419.8,517.1,420.1,517.1,420.4z"/>
	<path id="XMLID_562_" fill="#50559E" d="M496.2,421.6c7-0.1,13.9-0.1,20.9-0.2c-0.6,2.5-2.4,0.8-3.5,0.9
		c-5.8,0.2-11.7,0.1-17.5,0.1c-0.2-0.2-0.4-0.3-0.6-0.5C495.7,421.8,496,421.7,496.2,421.6z"/>
	<path id="XMLID_561_" fill="#383D40" d="M517.1,419.4c-6.7,0-13.3,0-20,0c-0.4-0.2-0.5-0.4-0.4-0.6c0.1-0.2,0.2-0.3,0.4-0.3
		c6.7,0,13.3,0,20,0C517.1,418.8,517.1,419.1,517.1,419.4z"/>
	<path id="XMLID_560_" fill="#33363D" d="M515.1,4.4c0.7,0,1.3,0,2,0c0,1,0,2,0,3c-2,2.7,0,6.3-2,9c-2.8-3-0.8-7.2-2.8-10.4
		c0.3-1.1,1.1-1.5,2.1-1.6C514.6,4.4,514.9,4.4,515.1,4.4z"/>
	<path id="XMLID_559_" fill="#2B2E35" d="M1.1,4.4c-0.3,0-0.7,0-1,0c0.5-1.3-1.1-3.1,1-4c1.4,3.2,4.6,1.3,7,2.2
		c-1.9,1.4-4.4,0.2-6,1.8C1.8,4.8,1.4,4.9,1.1,4.4z"/>
	<path id="XMLID_558_" fill="#52588F" d="M416.2,421.6c0,0.3,0,0.6,0,0.9c-3.7,0-7.3,0-11,0C408.7,420.6,412.5,421.7,416.2,421.6z"
		/>
	<path id="XMLID_557_" fill="#525891" d="M496.2,421.6c0,0.3-0.1,0.5-0.1,0.8c-3.3,0-6.7,0-10,0c0.7-0.4,1.3-0.7,2-1.1
		C490.8,421.4,493.5,421.5,496.2,421.6z"/>
	<path id="XMLID_556_" fill="#575C94" d="M448.1,422.4c0-0.3,0-0.5-0.1-0.8c3,0,6.2-0.9,9.1,0.8
		C454.1,422.4,451.1,422.4,448.1,422.4z"/>
	<path id="XMLID_555_" fill="#373A41" d="M1.1,367.4c0-118.2,0-236.5,0-354.7c0-2.1-0.3-4.4,1-6.3c4.6-0.5,5.1,2.3,5,5.9
		c-0.1,23.3-0.1,46.7,0,70c0,1.9-0.6,4,1,6.3c1.3-2.9,2.1-5.9,1.4-8.2c-2.5-7.6-1.4-15.2-1.3-22.8C8.3,43.8,7.6,30,8.8,16.1
		c0.4-4.9,0.1-9.4,4.4-12.7c1.5,1.4,2.5,3,3.5,4.8c4.4,8.1,13.9,8.6,19.6,1.3c1.4-1.8,1.6-5,4.9-5.1c4.7,0.3,9.4-0.8,14,0.7
		c0.3,0.4,0.7,0.8,0.7,1.3c0,7.5,0,7.6,7.7,7.6c6.5,0,13,0.1,19.5,0c6.7-0.1,7.5-1,6.3-7.7C89.6,4.8,91,4.5,92.2,4
		c1.6-0.1,3.2-0.2,4.8,0c1,0.4,1.8,1.1,2.1,2.2c-0.3,6.5,0.6,7.6,7,7.7c8.3,0.1,16.6,0.1,24.9,0c6.5,0,6.9-0.5,6.3-7.2
		c0-0.5,0.2-1,0.4-1.4c3.2-1.5,6.5-1.6,9.7,0.1c0.7,8.5,0.7,8.5,9.8,8.5c9,0,18,0,26.9,0c7,0,7-0.1,8.4-6.8c0.1-0.7,0.4-1.3,0.8-1.8
		c3-1.5,6-1.6,9,0.1c0.5,8.5,0.5,8.5,9.4,8.5c8,0,15.9-0.2,23.9,0.1c4.8,0.2,8.8-0.8,11.9-4.6c2.6-0.9,4.3,1,6.3,1.9
		c1.3,1.4,2.8,2.4,4.8,2.4c8.3,0.2,16.6,0.2,24.9,0c1.2,0,2.3-0.5,3.2-1.3c1.7-1.6,0.7-3.5,0.5-5.3c0-0.5,0.1-1,0.2-1.5
		c1-1.6,2.8-1.3,4.3-1.8c0.9-0.1,1.8,0.3,2.6,0.4c64.4,0.2,128.8,0,193.1,0.1c2.5,0,5-0.2,7.5,0.2c2.6,1,3.1,3.2,3.3,5.7
		c0.2,3.3,0.1,6.7,0.2,10c0,100.2,0,200.3,0,300.5c0,2.5-0.1,5,0.1,7.5c0.1,1.9,0.5,4.1,2.3,4.8c4.9,2.1,4.8,6.1,4.7,10.4
		c-0.1,7.2,0,14.3-0.1,21.5c-0.1,4.4-1.3,5.6-5.7,5.5c-6.7-0.3-13.3,0.1-20,0c-3.2,0.3-6.3,0.4-9.5,0.4c-99.7,0-199.5,0-299.2,0
		c-3.6,0-7.4,0.8-10.6-1.5c-1.1-3.3,1.2-3.9,3.6-4.1c4.3-0.3,8.6-0.1,13-0.2c1.5,0,3,0.1,4.5-0.4c1.4-0.4,2.5-1.2,2.4-2.8
		c0-1.6-1.2-2.5-2.6-2.6c-6.8-0.7-13.6-0.7-20.4,0c-2.4,0.2-3.4,2.1-2,4.4c0.8,1.4,2.2,2.7,0.6,4.4c-3.3,3.3-5.7,3.4-10.8,0.5
		c-1-1.1-1-2.3-0.9-3.7c0.3-5.1-0.3-5.9-5.2-6c-12.3-0.2-24.7-0.2-37,0c-5.6,0.1-6.2,1.1-3.7,6.4c0.6,1.2,0.6,2.2-0.2,3.3
		c-1.3,2-3.4,1.9-5.4,2c-12.3,0.7-24.6,0.4-37,0.2c-13.5-0.1-27,0.6-40.4-0.3c-4.1,0.1-8.2,0.6-12.4,0.3
		C4.3,370.6,2.2,369.9,1.1,367.4z"/>
	<path id="XMLID_554_" fill="#43464D" d="M40.2,5.5C39.4,13,33,17.3,26.5,17.3c-7.4,0-12.7-5.6-13.4-13.8c9,0,18,0,27,0c0,0,0,0,0,0
		C40.7,4.1,40.7,4.8,40.2,5.5z"/>
	<path id="XMLID_553_" fill="#373A41" d="M1.1,4.4c0.3,0,0.7,0,1,0c1.4,0,2.8,0,5.1,0c-2.2,1.4-3.7,0.8-5,1C1.8,5.1,1.4,4.8,1.1,4.4
		z"/>
	<path id="XMLID_552_" fill="#383840" d="M513.1,5.4c2.9,3.3,1.7,7.3,2,11c0,133,0,266,0,399c-1.3,0.6-2.7,1.1-4,0
		c-1.1-1.9-1.4-4.1-1.4-6.2c0-13-0.3-25.9,0.2-38.9c-0.4-14.3-0.5-28.7,0-43c-0.6-103.3-0.1-206.6-0.2-309.8c0-3.9-0.8-8,1.6-11.7
		C511.8,5.3,512.4,5.2,513.1,5.4z"/>
	<path id="XMLID_551_" fill="#33363D" d="M97.1,4.4c-1.7,0-3.3,0-5,0c-2,0.9-4,1.4-6.2,1.5c-14.3,0.4-28.5-0.4-42.8-1
		c-1,0-2.1,0-2-1.5c155.7,0,311.5,0,467.2,0c2.3,0,4.7-0.4,6.8,1c0,0,0,0,0,0c-6.7,2-13.4,2.1-20.2,0.7c-1.6-0.4-3.3-0.2-5-0.2
		c-63.6,0-127.3,0-190.9,0c-2,0-4,0.5-5.9-0.5c-0.7,0-1.3,0-2,0c-3.5,1.3-7.1,1.5-10.8,1.5c-23.5,0.2-47,0.1-70.4-0.1
		c-19.1-0.1-38.2,0.2-57.2,0.1c-1,0-2,0-3-0.1c-4.2-1.1-8.4-0.8-12.7-0.4c-12.4,1-24.8,0.6-37.2,0.2C98.8,5.6,98,5,97.1,4.4z"/>
	<path id="XMLID_550_" fill="#3A3D44" d="M41.1,3.4c1.9,1.3,4.1,1,6.3,1c14.9,0,29.8,0,44.7,0c-0.7,0.7-1.3,1.3-2,2
		C89,8.6,87,8.6,85,8.7C76.7,9,68.5,9,60.2,8.7c-2-0.1-4-0.1-5.1-2.3c-4.9-2-10-0.6-14.9-1c0-0.7,0-1.3-0.1-2
		C40.4,3.5,40.8,3.4,41.1,3.4z"/>
	<path id="XMLID_549_" fill="#363B41" d="M512.1,370.4c0,13.1,0,26.2,0,39.3c0,2,0.2,4-1,5.8c-3.5,1-7.1,0.2-10.7,0.5
		c-1.5,0.1-4-0.7-3.3,2.5c0,0.3,0,0.7,0,1c-1.7-0.3-3.4-0.6-5.1-1c-4.9,1-9.9,1.3-14.9,1c-5-0.5-10.1,1.2-15.1,0l-0.4,0l-0.4,0
		c-1,0.6-2,0.6-3,0.1c0-0.8-0.3-0.8-0.9-0.4c-3.1-0.5-6,0.1-9,0.6c-0.7-0.2-1.3-0.4-1.9-0.6c-1.6-0.9-3.4-1.3-5.2-1.3
		c-7.8,0-15.5-0.1-23.3,0.1c-3.3,0-6.2,2.3-9.6,1.5c-2.1-0.1-4.1-0.3-6,0.8c-2.3,0.1-4.7,0.2-7,0.2c-128.8,0-257.6,0-386.4,0
		c-2.3,0-4.7-0.1-7-0.2c-1.5-9.9-0.3-19.8-0.7-29.8c-0.1-2,0-4,0-6c0-5.7,0-11.3,0-17c5.9,2,12,0.6,18,1c3.9,3.4,0.9,5.7-1.3,8.2
		c-3.8,6.9-2.5,14.2-1.3,21.4c0.4,2.5,2.9,3.5,5.4,3.8c2.2,0.3,4.3,0.2,6.5,0.2c153.3,0,306.7,0,460,0c1.3,0,2.7,0,4,0
		c6.7-0.3,9.2-2.5,9.2-9.1c0-5.2,1.4-10.7-1.8-15.6c-1.8-2.6-4.4-3.2-7.3-3.3c-3.1-0.1-6.3,0.1-9.4-0.1c-4-0.3-4.5-1.3-2.9-5.4
		c5.8-1,11.6-0.4,17.4,0c6,0.4,6.6-0.2,6.6-6.3c0-6.8-0.1-13.7,0-20.5c0-3.1-0.6-5.3-4.3-5.2c-2.8,0.1-3.8-1.6-3.7-4.2
		c0-1.7,0-3.3,0-5c0-104.3,0-208.6,0-312.9c0-3,0.4-6-1-8.9c3.8-0.9,7.6-0.7,11.3-0.1c2.2,0.9,2.6,2.8,2.9,4.9
		c0.2,2.2,0.2,4.3,0.2,6.5c0,99.9,0,199.7,0,299.6c0,3.8-0.7,7.6-0.2,11.5c0.3,11.6,0,23.3,0.2,34.9
		C509.6,365.5,509.4,368.4,512.1,370.4z"/>
	<path id="XMLID_548_" fill="#313849" d="M458.1,418.5c1,0.3,2,0.7,3.1,1c-1.1,0.3-2.1,0.7-3.2,1c-18.2,0-36.5,0-54.7,0
		c-0.3-0.1-0.7-0.2-1-0.3c1.5-2.2,3.6-2.4,5.9-1.7c3.3,1.6,6.4-0.9,9.7-0.5c7.9,0,15.8,0,23.6,0c2.3,0,4.6,0.1,6.6,1.5
		C451.3,417.9,454.6,417,458.1,418.5L458.1,418.5z"/>
	<path id="XMLID_547_" fill="#313849" d="M462.1,419.5c5-0.4,10.1-1.3,15.1,0C472.1,420.3,467.1,421.3,462.1,419.5z"/>
	<path id="XMLID_546_" fill="#3A3D44" d="M506.1,5.4c-3.7,0-7.3,0-11,0c-64.9,0-129.8,0-194.7,0c-2.5,0-5,0.5-7.3-1
		c74,0,148,0,222,0c-0.7,0.3-1.3,0.7-2,1c-0.3,0-0.7,0-1,0C510.1,7.5,508.1,6.7,506.1,5.4z"/>
	<path id="XMLID_545_" fill="#3A3E45" d="M115,278.4c-18.3,0-36.6,0-54.9,0c-7,0-8.4-2-8.2-9.1c0.3-17.5,0.3-35,0.3-52.4
		c0-10.3-0.2-20.6-0.3-30.9c-0.1-4.6,5-7.8,10.7-6.3c9.2,2.5,18.1,2,27.4,0.2c5.5-1.1,11.5,0.1,17.2,0.8c7.4,0.9,14.6,0.2,21.8,0
		c14.1-0.4,28.2,1.5,42.4,0.8c6.6-0.3,6.9,0.3,6.9,7c0,26,0,51.9,0,77.9c0,1.3,0,2.7,0.1,4c0.8,7-0.1,8-7.3,8
		C152.2,278.5,133.6,278.4,115,278.4z"/>
	<path id="XMLID_544_" fill="#363B41" d="M480.1,368.4c-0.1,3,1.5,4.1,4.3,4c3.6-0.1,7.3-0.1,10.9-0.2c2.5-0.1,5-0.2,6.7,2.2
		c-2.3,2.7-5.5,1.4-8,1.3c-11.3-0.4-22.6,0.9-33.9-0.5c-3.6-0.5-7.2,0.7-10.9,0.7c-141,0-282,0-422.9-0.1c-3.5,0-7.5,1.2-10.2-2.3
		c2.1-1,4.4-1.9,3-5c23.4,0,46.8,0,70.1,0c4.3,0,8.6-0.6,12.9-1c0.3-0.1,0.6-0.2,0.9-0.2c4-0.5,7.9-0.4,11.9-0.2
		c10.1,0.6,20.1-1,30.1-1.7c1.7,0.1,3.2,0.5,4.1,2.1c3.7,0.7,7.3,1.5,11,0c2.4,1.5,5.2,1,7.8,1C272,368.4,376,368.4,480.1,368.4z"/>
	<path id="XMLID_543_" fill="#4D5057" d="M93.1,120.4c11,0,22,0,32.9,0c3.9,0,7.5,0.7,7.4,5.3c-0.1,4.1-3.3,5.7-7.3,5.7
		c-22-0.1-43.9,0-65.9,0c-1,0-2,0-3-0.3c-3-0.8-5.4-2.3-4.9-5.8c0.4-3.2,2.5-4.9,5.9-4.9C69.8,120.4,81.5,120.4,93.1,120.4z"/>
	<path id="XMLID_542_" fill="#565960" d="M87.7,89.4c-9,0-18,0-26.9,0c-2.2,0-4.3-0.1-6.2-1.4c-1.8-1.3-2.5-3-2.3-5.2
		c0.2-2.4,1.7-3.5,3.8-4c1.1-0.3,2.3-0.4,3.5-0.4c19,0,37.9,0,56.9,0c0.5,0,1,0,1.5,0c3.6,0.2,5.8,2.1,5.8,5.6c0,3.3-2.5,5-5.6,5.3
		c-2.8,0.3-5.6,0.2-8.5,0.2C102.3,89.4,95,89.4,87.7,89.4z"/>
	<path id="XMLID_541_" fill="#40434A" d="M396.7,47.4c-6.5,0-13,0-19.5,0c-4.2,0-7.2-1.3-7.6-6c-0.4-4.6,3.1-5.2,6.2-5.3
		c14.5-0.8,28.9-1.5,43.3,0.5c2.9,0.4,5.2,1.5,4.8,5.1c-0.4,3.5-2.3,5.6-5.8,5.7C411.1,47.5,403.9,47.4,396.7,47.4
		C396.7,47.4,396.7,47.4,396.7,47.4z"/>
	<path id="XMLID_540_" fill="#44474E" d="M26.6,77.5c8.2,0.5,14.5,6.4,14.2,13.1c-0.4,8.1-7.4,15.1-14.7,14.7
		c-7.7-0.4-13.3-7.1-12.9-15.3C13.5,82.4,19.3,77.1,26.6,77.5z"/>
	<path id="XMLID_539_" fill="#4C4F56" d="M80.9,305.5c-7.3,0-14.6,0-21.9,0c-3.6,0-6.6-0.8-6.6-5c0-4,2.7-6,6.5-6
		c9.3-0.1,18.6-0.1,27.9-0.1c5.3,0,10.6-0.1,15.9,0.1c4.6,0.2,7.6,3.2,6.9,6.6c-0.7,3.5-3.2,4.3-6.3,4.3
		C95.8,305.4,88.3,305.4,80.9,305.5z"/>
	<path id="XMLID_538_" fill="#41444B" d="M162.9,309.4c5.6,0,11.3,0,16.9,0c2.4,0,4.6,0.4,6.7,1.5c2,1.1,2.6,2.9,2.5,5
		c-0.1,2.2-0.9,3.9-3.2,4.5c-1.3,0.3-2.6,0.9-3.9,0.8c-13.9-0.2-27.9,1-41.8-0.7c-2.8-0.4-4.3-1.4-4.7-4.1c-0.4-2.7,0.8-4.3,3.3-5.4
		c2.3-1,4.7-1.6,7.2-1.6C151.6,309.5,157.2,309.4,162.9,309.4z"/>
	<path id="XMLID_537_" fill="#44474E" d="M13.1,133.5c0-8.4,5.7-13.9,14.6-14c6.6-0.1,12.8,6.3,12.8,13.2c0,7.8-6.7,15-14.1,14.5
		C19.9,146.8,12.6,142.2,13.1,133.5z"/>
	<path id="XMLID_536_" fill="#44474E" d="M40.1,307.6c0,8.2-5.2,13.9-12.4,13.8c-9.6-0.2-14.7-5-14.6-13.7
		c0.1-8.1,5.4-13.3,13.5-13.3C34.6,294.4,40.2,299.9,40.1,307.6z"/>
	<path id="XMLID_535_" fill="#41444B" d="M232.1,57.4c-1,3.6-3.5,5-7.1,5c-13.9,0-27.9,0.1-41.8,0c-5.3,0-6.8-1.9-7.1-7.9
		c1.1-4.1,4-4.8,7.9-5.1c7.7-0.6,15.2,3,22.6,1.4c6.5-1.4,12.8-1.1,19.2-1.2C230.7,49.5,233.2,52.9,232.1,57.4z"/>
	<path id="XMLID_534_" fill="#41444B" d="M149.1,367.4c-1.3,0-2.7,0-4,0c-10,1.1-20.1,0.3-30.2,0.4c-4.3,0.1-8.6,0.6-12.8-0.4
		c0,0,0,0,0,0c-0.4-0.3-0.8-0.6-1.3-0.7c-2.8-1-4.8-2.8-4.3-5.8c0.6-3.2,3.2-4.4,6.3-4.4c6.5,0,13,0,19.4,0c6.6,0,13.3,0,19.9,0
		C152.2,356.4,153.8,358.9,149.1,367.4z"/>
	<path id="XMLID_533_" fill="#40434A" d="M122.6,47.4c-6,0-11.9,0.1-17.9,0c-3.4,0-6.2-0.9-6.6-5.1c-0.4-4.4,1.9-5.9,5.7-6.3
		c13.8-1.1,27.5-0.8,41.2,0.8c1.8,0.2,2.6,1.3,2.9,2.9c0.4,2.2,0.2,4.3-1.8,5.9c-1.8,1.4-3.9,1.8-6.1,1.8
		C134.2,47.4,128.4,47.4,122.6,47.4C122.6,47.4,122.6,47.4,122.6,47.4z"/>
	<path id="XMLID_532_" fill="#41444B" d="M79.7,62.4c-6,0-12,0-18,0c-1.5,0-3,0-4.5-0.3c-2.8-0.5-5.1-1.6-5.3-5
		c-0.1-3.2,2.2-4.9,4.5-5.1c14.9-1,29.9-1.2,44.8,0.1c2.6,0.2,4.7,2.3,4.1,5.3c-0.6,2.9-2,5.1-5.7,5C93,62.3,86.3,62.4,79.7,62.4z"
		/>
	<path id="XMLID_531_" fill="#40434A" d="M259.1,47.4c-3.3,0-6.7,0-10,0c-5.2,0.6-3-3.8-4-6c1.9-4.7,5.9-4.9,10.2-5.4
		c10.5-1.1,20.9-0.9,31.3-0.3c7.6,0.5,9.2,4.1,5.5,10.7c-1.1,1.3-2.9-0.1-4,1l0,0c-0.8,0.8-1.6,1.9-2.9,1.8
		C276.5,49.2,267.6,50.7,259.1,47.4z"/>
	<path id="XMLID_530_" fill="#40434A" d="M199.1,44.4c-0.7,0.7-1.3,1.3-2,2c-2,2.3-4.6,3.1-7.5,3c-4.9-0.2-9.7,0.5-14.6-1.2
		c-2.4-0.9-5.4-0.2-8.2,0.6c-4.7,1.2-9.7,2.1-13.7-2.3c-3.4-6.8-2.2-10.3,5-10.5c13.3-0.5,26.8-2.2,40,1.5
		C199.3,39.6,200.3,41.9,199.1,44.4z"/>
	<path id="XMLID_529_" fill="#41444B" d="M223.8,325.5c6.2,0,12.3,0,18.5,0c3.5,0,6.4,1,6.7,5.1c0.3,4.5-3,5.7-6.6,5.7
		c-12.8,0.2-25.6,0.1-38.5,0.1c-3.4,0-4.8-2-4.7-5.1c0.1-3.2,0.9-5.9,5.1-5.9C210.8,325.5,217.3,325.5,223.8,325.5z"/>
	<path id="XMLID_528_" fill="#41444B" d="M265.1,166.4c6.1,0,12.3,0.1,18.4,0c3.7-0.1,5.6,1.8,6.2,5.1c0.6,3.8-2.3,4.9-5.1,5.4
		c-2.8,0.5-5.6,0.5-8.4,0.5c-9.5,0-18.9,0.1-28.4,0c-3.6,0-7.8,0.2-8.1-5.1c-0.2-4,2.4-5.8,8-5.9
		C253.5,166.4,259.3,166.4,265.1,166.4z"/>
	<path id="XMLID_527_" fill="#41444B" d="M115.9,321.2c-8.5,1.2-16.1-1.4-23.7,0.2c-2.1,0.5-4.3-0.3-6.1-1.7
		c-1.9-1.6-2.1-3.7-1.7-5.9c0.5-2.4,2.1-3.2,4.4-3.2c11.8-0.3,23.6-0.7,35.4-1c1,0,2,0.1,3,0.3c2.8,0.8,4.8,2.3,4.9,5.5
		c0.1,3.5-2.1,5.4-5.1,5.8C123,321.5,119,321.2,115.9,321.2z"/>
	<path id="XMLID_526_" fill="#41434B" d="M161.3,166.4c6,0,12,0.1,17.9,0c3.4-0.1,5.6,1.2,5.6,4.7c0.1,3.6-1.5,6.2-5.5,6.2
		c-9,0.1-17.9,0.1-26.9,0.1c-3.5,0-7,0-10.5-0.2c-3.2-0.2-5.6-1.8-5.4-5.2c0.1-3.4,2.2-5.5,5.8-5.5
		C148.7,166.4,155,166.5,161.3,166.4C161.3,166.5,161.3,166.4,161.3,166.4z"/>
	<path id="XMLID_525_" fill="#41444B" d="M77.1,166.4c6,0,12,0,18,0c3,0,5.3,1,5.7,4.3c0.4,3.3-1.4,5.4-4.5,6.1
		c-1.8,0.4-3.6,0.6-5.4,0.6c-9.8,0.1-19.6,0.1-29.4,0c-1.8,0-3.7-0.2-5.4-0.6c-3.2-0.8-3.9-3.5-3.7-6.3c0.2-2.8,2.2-4,4.8-4
		C63.8,166.4,70.5,166.5,77.1,166.4C77.1,166.5,77.1,166.5,77.1,166.4z"/>
	<path id="XMLID_524_" fill="#41444B" d="M213.7,177.4c-7,0-12.5,0.1-18,0c-4.3-0.1-7.8-3.1-7.4-6.4c0.6-4.6,4.5-5.3,7.9-5
		c11.4,0.9,22.9,0.4,34.3,0.3c3.3,0,5,1.4,5.5,4.4c0.5,3.2-0.5,5.6-4,6.3C225.4,178.1,218.7,177.1,213.7,177.4z"/>
	<path id="XMLID_523_" fill="#41444B" d="M150.1,4.5c0.7,0,1.3,0,2,0c1.7,1.4,3.8,1,5.8,1c10.2,0,20.3,0,30.5,0c1.9,0,4-0.5,5.8,1
		c0.3,1.6,0.8,3.2,0.9,4.9c0.1,3.1-1.2,5.1-4.7,5.1c-13.5,0-26.9,0-40.4,0c-2.7,0-4.4-1.3-5.3-3.7c-1.1-2.8,0.1-4.8,2.5-6.3
		C147.8,5.3,149.4,5.5,150.1,4.5z"/>
	<path id="XMLID_522_" fill="#41444B" d="M202.3,104.4c-5.7,0-11.3,0-17,0c-3.6,0-5.9-1.7-5.9-5.2c0-3.6,1.7-5.8,5.9-5.8
		c11,0.1,22,0.1,33,0c4.1,0,7.2,1.7,7.1,5.9c-0.1,4-3.1,5.3-7,5.1C213,104.3,207.7,104.4,202.3,104.4
		C202.3,104.4,202.3,104.4,202.3,104.4z"/>
	<path id="XMLID_521_" fill="#41444B" d="M186.9,20.4c4.8,0,9.6-0.1,14.5,0c4.7,0.1,7.8,2.9,7.4,6.3c-0.4,3.8-4.1,6.3-8.6,5.3
		c-5.9-1.2-11.5,0.8-17.3,0.5c-4.5-0.2-8.9-0.8-13.4-1.4c-2.3-0.3-5.3-0.7-4.8-4.3c0.4-3.5,1.9-6.1,5.8-6.2
		C175.9,20.4,181.4,20.5,186.9,20.4C186.9,20.5,186.9,20.5,186.9,20.4z"/>
	<path id="XMLID_520_" fill="#41444B" d="M74.3,340.5c4.6,0,9.3,0,13.9,0c2.3,0,4.2,0.7,5.8,2.4c1.3,1.4,2.1,2.9,1.5,4.9
		c-0.7,2.1-1.8,3.3-4.1,3.7c-10.9,1.8-21.8,0.8-32.8,0.8c-3.9,0-6-2.8-5.9-6.6c0.1-3.7,3-5,6.2-5.1C64,340.4,69.2,340.5,74.3,340.5
		C74.3,340.5,74.3,340.5,74.3,340.5z"/>
	<path id="XMLID_519_" fill="#41444B" d="M252.1,104.4c-5.3,0-10.7,0-16,0c-4,0-6.5-1.9-6.6-5.8c-0.1-4.2,3-5.1,6.5-5.1
		c10.8,0,21.7,0,32.5,0c3.9,0,6.5,1.5,6.6,5.8c0.1,4.4-3.1,5.1-6.5,5.2C263,104.5,257.5,104.4,252.1,104.4z"/>
	<path id="XMLID_518_" fill="#41444B" d="M287.7,146.4c-5.1,0-10.3,0.1-15.4,0c-4.6-0.1-8.2-2.7-7.8-5.9c0.6-4.5,4-5.1,7.8-5.1
		c10,0,19.9-0.1,29.9,0.1c2.7,0,5.9-0.2,7.6,2.6c2.2,3.7-0.7,8-5.6,8.2C298.6,146.6,293.1,146.4,287.7,146.4
		C287.7,146.4,287.7,146.4,287.7,146.4z"/>
	<path id="XMLID_517_" fill="#41444B" d="M248.1,10.4c-0.4,4.2-2.6,6.1-6.9,6c-12-0.1-24,0-35.9,0c-2.4,0-4.9,0.1-5.7-2.8
		c-0.7-2.9-0.8-5.7,2.6-7.2c1.2-1.1,2.8-1,4.3-1c12.3,0,24.6-0.1,36.8,0C246.3,5.5,249.5,5.8,248.1,10.4z"/>
	<path id="XMLID_516_" fill="#40434A" d="M73.1,47.4c-4.6,0-9.3,0.1-13.9,0c-3.3-0.1-6.1-1.3-6.6-4.8c-0.5-3.7,2.1-5.4,5.3-6
		c10.4-2.1,20.8-1.1,31.2-0.6c2.9,0.1,5.5,2.2,5.2,5.6c-0.3,3.6-2.5,5.8-6.2,5.8C83.1,47.5,78.1,47.4,73.1,47.4z"/>
	<path id="XMLID_515_" fill="#41444B" d="M100.4,161.4c-5.5,0-11,0-16.5,0c-3.4,0-5.2-1.7-5.7-5c-0.5-3.5,1.8-4.7,4.6-5.4
		c4.4-1.1,8.9-0.9,13.4-0.3c6,0.8,11.9,1,17.9,0c1.1-0.2,2.3-0.3,3.5-0.2c3.9,0.4,5.3,3.1,5.4,6.6c0.1,3.5-2.6,4-5.1,4.1
		C112,161.5,106.2,161.3,100.4,161.4C100.4,161.4,100.4,161.4,100.4,161.4z"/>
	<path id="XMLID_514_" fill="#41444B" d="M149.5,336.4c-4.8,0-9.7-0.1-14.5,0c-3.7,0.1-6.4-1.3-6.6-5.2c-0.2-4,3.1-5.3,6.3-5.7
		c3.5-0.4,7-0.2,10.5-0.2c6,0,12,0,18,0c4.1,0,7.9,0.7,8.7,5.5c0.6,3.3-2.9,5.4-8.4,5.5C158.8,336.5,154.1,336.4,149.5,336.4z"/>
	<path id="XMLID_513_" fill="#41444B" d="M335.2,146.4c-4.7,0-9.3,0-14,0c-2.3,0-4.3-0.5-6-2.1c-3.2-2.9-2.4-6.8,1.7-8
		c1.9-0.6,3.9-0.8,5.9-0.9c8.3-0.1,16.6-0.1,24.9,0c1.5,0,3,0.2,4.4,0.6c2.9,0.7,5,2.4,4.5,5.6c-0.5,2.9-2.4,4.7-5.5,4.8
		C345.8,146.4,340.5,146.4,335.2,146.4C335.2,146.4,335.2,146.4,335.2,146.4z"/>
	<path id="XMLID_512_" fill="#40434A" d="M206.1,36.4c10.6-1.7,21.2-1.4,31.7,0.1c3,0.4,3.8,3,5.2,4.9c-0.5,7.2-1.5,8.4-9.1,8.3
		c-7.3-0.1-14.6-0.3-21.8-0.3c-2.5,0-4.7-1.5-7.1-2c-1-1-2-2-3-3c-0.8-1.7-0.8-3.3,0-5l0,0C202.9,37.6,204.5,37.1,206.1,36.4z"/>
	<path id="XMLID_511_" fill="#383B41" d="M205.1,47.4c9.1,0,18.3-0.3,27.4,0.1c5.1,0.2,8.7-1.1,10.6-6.1c0.2,0.6,0.4,1.3,1.2,1.1
		c0.3-0.1,0.5-0.7,0.8-1.1c1.3,2,2.7,4,4,6c-0.9,4.4,2.6,2.8,4.4,2.9c4.2,0.4,8.8-0.3,10.6,5.1c-1,0.7-2.1,0.8-3.3,0.3
		c-5.6-2.8-11.6-1.7-17.5-1.8c-2.9-0.1-5.1,1-6.1,4c-0.4,1.2-1.1,2-2.2,2.5c-1-1-2-2-3-3c-1.5-4.4-4.5-6.1-9.1-6
		c-12.4,0.1-24.8,0.1-37.2,0c-3.7,0-6.9,0.7-9.7,3.1c-0.8-3-0.2-7.1-5.6-5.9c-1.9,0.4-2,1.4-1.4,2.9c-0.4,0.5-0.8,1.3-1.3,1.4
		c-7.4,1.6-14.9,1.6-22.3,0c-0.6-0.1-1-0.8-1.4-1.4c1.5-1.2,3.4-0.8,5.1-1.2c1.9-0.5,4.3-0.9,3.9-3.8c12.8,1.5,25.7,1.2,38.6,0.6
		c1.8-0.1,3.6-0.4,5.4-0.6c1.2,3.4,6.6,5.7,9.2,3.7C208.2,48.6,205.5,48.3,205.1,47.4z"/>
	<path id="XMLID_510_" fill="#41444B" d="M299.3,104.4c-5,0-10-0.1-15,0c-3.6,0.1-5.3-2.1-5.5-5.1c-0.2-2.8,1.6-5.4,4.6-5.6
		c11-0.5,21.9-0.7,32.9,0.1c3.3,0.2,4.4,2.9,4.3,5.7c-0.1,3.2-2.4,4.7-5.4,4.8C310,104.5,304.6,104.4,299.3,104.4
		C299.3,104.4,299.3,104.4,299.3,104.4z"/>
	<path id="XMLID_509_" fill="#41444B" d="M138.1,6.4c3.2,1.4,3.2,3.9,2.5,6.7c-0.7,2.9-2.8,3.3-5.4,3.3c-10.8,0-21.7,0-32.5,0
		c-2.7,0-5.2-0.7-6.2-3.4c-0.8-2.3-1.4-5,1.5-6.6C111.4,4.8,124.8,4.8,138.1,6.4z"/>
	<path id="XMLID_508_" fill="#41444B" d="M103.5,20.4c4.2,0,8.3,0.1,12.5,0c4-0.1,6.4,1.8,6.8,5.7c0.3,3.4-2.7,6.1-6.7,6.3
		c-9.3,0.4-18.6-1.7-27.9-0.9c-2.6,0.2-4.9-1.5-4.9-4.6c0-3.7,2.1-6.1,5.8-6.3c4.8-0.3,9.7-0.1,14.5-0.1
		C103.5,20.5,103.5,20.5,103.5,20.4z"/>
	<path id="XMLID_507_" fill="#41444B" d="M147.9,352.6c-4-0.2-7.9-0.7-11.9-0.6c-4.1,0.1-5.1-2.6-5.6-5.6c-0.5-3.3,1.8-4.8,4.7-5.2
		c10.3-1.6,20.5-1,30.7,0.4c2.7,0.4,4.1,2.9,4.1,5.5c0,2.8-2,3.9-4.6,4.2C159.5,351.9,153.7,353,147.9,352.6z"/>
	<path id="XMLID_506_" fill="#41444B" d="M73.1,356.5c4.8,0,9.7-0.1,14.5,0c3.1,0,5.9,1.3,6,4.7c0.1,3.4-2.2,5.9-5.5,6
		c-10.1,0.3-20.3,0.2-30.5,0c-3.1-0.1-5.4-2.3-5.3-5.6c0.1-3.4,2.6-4.9,5.7-5C63.2,356.4,68.2,356.5,73.1,356.5z"/>
	<path id="XMLID_505_" fill="#41444B" d="M111.8,104.4c-4.5,0-9,0-13.5,0c-3.1,0-5.8-0.7-6.1-4.4c-0.3-3.9,2.2-6.3,5.6-6.4
		c10-0.3,20-0.2,30-0.1c3.3,0,5.2,2.2,5.2,5.5c-0.1,3.6-2.8,4.9-5.7,5.1C122.1,104.6,117,104.3,111.8,104.4
		C111.8,104.4,111.8,104.4,111.8,104.4z"/>
	<path id="XMLID_504_" fill="#41444B" d="M241.6,146.4c-4.7,0-9.3,0.1-14,0c-3.8-0.1-7.2-1.7-7.1-6c0.1-3.9,3.7-4.8,7-4.9
		c9.1-0.1,18.3-0.1,27.4,0c3.5,0,6.2,1.2,6.2,5.5c0,4.5-2.8,5.6-6.6,5.5C250.2,146.4,245.9,146.4,241.6,146.4
		C241.6,146.4,241.6,146.4,241.6,146.4z"/>
	<path id="XMLID_503_" fill="#41444B" d="M147.5,161.4c-5.1,0-10.3,0-15.4,0c-3.5,0-5.8-1.3-5.9-5.2c-0.1-3.9,2.4-4.6,5.5-4.8
		c10.2-0.6,20.5,0.3,30.7-0.7c3.6-0.3,6.6,1.4,6.5,5.8c-0.1,4.3-2.8,5-6.5,4.9C157.4,161.3,152.4,161.4,147.5,161.4z"/>
	<path id="XMLID_502_" fill="#41444B" d="M72.8,336.4c-4.6,0-9.3,0-13.9,0c-3.6,0-6.4-1.5-6.5-5.3c-0.2-4,3-5.4,6.3-5.5
		c8.9-0.2,17.9-0.1,26.9,0c1.4,0,3,0.5,4.3,1.2c2,1,3.6,2.6,3,5.1c-0.6,2.7-2.2,4.5-5.1,4.5C82.7,336.4,77.8,336.4,72.8,336.4
		C72.8,336.4,72.8,336.4,72.8,336.4z"/>
	<path id="XMLID_501_" fill="#41444B" d="M156.1,104.4c-4.1,0-8.3-0.1-12.4,0c-4.2,0.1-7-2.3-7.2-6c-0.2-4.1,3.8-4.8,6.8-4.9
		c8.9-0.3,17.9-0.2,26.9,0c3.2,0.1,6,1.5,5.8,5.4c-0.2,3.5-2.5,5.4-5.9,5.5C165.4,104.5,160.7,104.4,156.1,104.4
		C156.1,104.4,156.1,104.4,156.1,104.4z"/>
	<path id="XMLID_500_" fill="#41444B" d="M268,321.4c-4.3-0.2-8.7,0.5-12.9-0.8c-2.5-0.7-4.4-2.1-4.5-4.7c-0.1-2.5,1.5-4.4,3.8-5.3
		c1.2-0.5,2.6-1,3.8-1c8.3-0.1,16.6-0.8,24.9,0.8c2.9,0.5,4.7,2,4.7,4.8c0,2.8-1.6,4.6-4.4,5.2C278.3,321.5,273.1,321.6,268,321.4z"
		/>
	<path id="XMLID_499_" fill="#41434B" d="M55.1,6.4c11.7,0,23.3,0,35,0c2.9,1.2,3.4,3.6,2.5,6.2c-0.8,2.4-2.5,3.8-5.2,3.8
		c-9.8,0-19.6,0-29.4-0.1c-2.8,0-4.8-1.5-5.5-4.2C51.8,9.7,52.4,7.5,55.1,6.4z"/>
	<path id="XMLID_498_" fill="#40434A" d="M348.3,47.2c-3.8,0-7.7,0-11.5,0c-3.5,0-5.2-1.8-5.6-5.1c-0.4-3.5,1.5-5.6,4.6-6
		c8.6-1.1,17.2-1.3,25.8,0.2c3.1,0.6,4.6,2.5,4.3,5.7c-0.3,3-2.2,5-5.2,5.2c-4.1,0.3-8.3,0.1-12.5,0.1
		C348.3,47.3,348.3,47.2,348.3,47.2z"/>
	<path id="XMLID_497_" fill="#41444B" d="M143,20.4c4,0.2,8.7-0.4,13.3,0.7c3,0.7,5.1,2,4.8,5.2c-0.3,3.3-2.2,6.3-5.6,5.7
		c-7.5-1.3-14.9,1-22.4,0.3c-3.8-0.4-7.1-1.7-6.9-6.2c0.2-4.4,3-5.9,7.1-5.7C136.4,20.6,139.4,20.4,143,20.4z"/>
	<path id="XMLID_496_" fill="#41444B" d="M70.6,104.4c-4,0-8,0-11.9,0c-3.4,0-6-1.5-6.3-5c-0.4-3.8,2.4-5.6,5.6-5.7
		c8.4-0.3,16.9-0.3,25.4-0.1c3.8,0.1,5.5,3.1,5.4,6.6c-0.1,3.3-2.6,4.3-5.6,4.3C78.9,104.4,74.8,104.4,70.6,104.4z"/>
	<path id="XMLID_495_" fill="#41444B" d="M301.1,52.4c3.5,6.2,1.5,9.9-5.6,10c-7.9,0.1-15.9-0.1-23.8-0.3c-4.2-0.1-5.9-2.6-5.6-6.7
		c1.3-5.2,4.8-6,9.7-6.2c7.5-0.3,14.7,2.6,22.2,1.7C299.2,50.8,300.1,51.9,301.1,52.4z"/>
	<path id="XMLID_494_" fill="#41444B" d="M332.1,321.2c-4.1,0-8.3,0.6-12.4-0.4c-2.5-0.6-4.2-1.8-4.4-4.6c-0.2-2.7,0.9-4.5,3.4-5.5
		c1.2-0.5,2.5-1.1,3.8-1.2c6.7-0.1,13.3-0.2,19.9,0.1c3.4,0.2,6.8,1.3,6.7,5.8c-0.1,4.2-3.4,5.2-6.5,5.6
		C339.1,321.6,335.5,321.2,332.1,321.2z"/>
	<path id="XMLID_493_" fill="#41444B" d="M288.1,6.4c0.3,0,0.6,0,1,0c2.1,2.4,1.8,5.2,1,8c-1.3,1.4-3,2-4.9,2c-9.3,0-18.6,0-27.9,0
		c-2.4,0-4.2-0.7-5.2-3c-2.2-6.7-1.3-8,5.8-8c8.3,0,16.7,0,25,0C284.7,5.5,286.6,5.1,288.1,6.4z"/>
	<path id="XMLID_492_" fill="#41444B" d="M355.4,62.4c-3.8,0-7.6,0-11.5,0c-3.2,0-5.2-1.6-5.5-4.6c-0.4-3.1,1.4-5,4.4-5.6
		c8.6-1.5,17.2-1.1,25.8-0.3c2.8,0.2,5.1,1.7,4.7,5.2c-0.4,3.3-2,5.2-5.4,5.2C363.7,62.4,359.6,62.4,355.4,62.4
		C355.4,62.4,355.4,62.4,355.4,62.4z"/>
	<path id="XMLID_491_" fill="#41444B" d="M126.4,146.4c-3.7,0-7.3,0-11,0c-3.6,0-5.9-2-5.9-5.4c0-3.4,2.3-5.5,5.8-5.5
		c7.3,0,14.6-0.1,21.9,0.1c3.3,0.1,6.5,1.4,6.6,5.4c0,4-3.2,5.2-6.5,5.4C133.7,146.6,130.1,146.4,126.4,146.4
		C126.4,146.4,126.4,146.4,126.4,146.4z"/>
	<path id="XMLID_490_" fill="#41444B" d="M164.3,135.5c3.7,0,7.3-0.1,11,0c3.4,0.1,6.2,1.9,6.2,5.2c0.1,3.6-2.8,5.5-6.4,5.6
		c-6.8,0.1-13.6,0.1-20.5,0c-1.3,0-2.6-0.5-3.9-0.9c-2.5-0.8-3.9-2.5-3.5-5.3c0.3-2.6,1.9-4.4,4.6-4.5c4.1-0.2,8.3-0.1,12.5-0.1
		C164.3,135.6,164.3,135.5,164.3,135.5z"/>
	<path id="XMLID_489_" fill="#41444B" d="M200.9,146.4c-3.3,0-6.6,0-10,0c-3.6,0-6-2.2-6.2-5.3c-0.3-3.4,2.4-5.5,5.8-5.6
		c7-0.2,13.9-0.2,20.9,0.1c3.3,0.1,6.5,1.8,6.1,5.7c-0.4,3.5-2.8,5.4-6.7,5.1C207.5,146.2,204.2,146.4,200.9,146.4
		C200.9,146.4,200.9,146.4,200.9,146.4z"/>
	<path id="XMLID_488_" fill="#41444B" d="M171.2,356.6c3.7,0,7.3-0.2,11,0.1c3.1,0.2,5.5,2,5.5,5.3c0,3.4-2.5,5.2-5.6,5.3
		c-7,0.2-14,0.4-21,0.1c-3.6-0.2-6.3-2.5-6.1-6.5c0.2-3.8,3.4-4.1,6.2-4.3c3.3-0.2,6.7,0,10,0C171.2,356.5,171.2,356.5,171.2,356.6z
		"/>
	<path id="XMLID_487_" fill="#40434A" d="M311.2,47.2c-2.8,0-5.7,0.2-8.5-0.1c-2.9-0.3-5.1-2.1-5.2-5.2c-0.1-2.7,1.6-4.8,4.3-5.5
		c7.2-1.8,14.5-1.8,21.7,0c2.6,0.7,4.4,2.5,4.4,5.4c0,3.1-2.3,4-4.9,4.7C319.1,47.8,315.1,47.3,311.2,47.2z"/>
	<path id="XMLID_486_" fill="#41444B" d="M144.1,51.4c8.3,0,16.7,0,25,0c1.4,1.4,3.2,2.5,4.1,4.2c1.5,2.8-1.4,6.6-5.2,6.7
		c-6,0.2-11.9,0.1-17.9,0.1C141.9,62.4,140,58.8,144.1,51.4z"/>
	<path id="XMLID_485_" fill="#41444B" d="M113.8,340.5c2.2,0,4.3,0,6.5,0c4,0.1,6.8,1.8,6.7,6.2c-0.1,4.2-2.2,6.2-6.7,5.8
		c-4.6-0.4-9.3,0.1-13.9-0.3c-3.5-0.3-7.3-1.2-7.1-5.9c0.2-4.7,3.5-5.9,7.6-5.9C109.2,340.5,111.5,340.4,113.8,340.5z"/>
	<path id="XMLID_484_" fill="#41444B" d="M338.9,104.4c-3,0-6,0-9,0c-3.2,0-5.6-1.1-5.7-4.7c-0.1-3.5,1.8-5.9,5.3-6.1
		c6.6-0.3,13.3-0.2,19.9,0c2.9,0.1,4.4,2.4,4.5,5.1c0.1,2.9-1.3,5.3-4.5,5.6C345.9,104.6,342.4,104.3,338.9,104.4
		C338.9,104.4,338.9,104.4,338.9,104.4z"/>
	<path id="XMLID_483_" fill="#41444B" d="M123.6,62.4c-3.2,0-6.3,0.1-9.5,0c-3.4-0.1-5.4-2.5-5.5-5.4c0-2.9,2-5.4,5.4-5.4
		c6.2-0.1,12.3-0.1,18.5,0c3.7,0,5.3,2.5,5.5,5.8c0.1,3.6-2.1,5-5.4,5.1C129.6,62.4,126.6,62.4,123.6,62.4
		C123.6,62.4,123.6,62.4,123.6,62.4z"/>
	<path id="XMLID_482_" fill="#41444B" d="M110.5,336.4c-3,0-6,0-9,0c-3.7,0-5.3-2-5.4-5.6c-0.1-3.8,2.1-5.1,5.3-5.2
		c6.1-0.2,12.3-0.2,18.4,0c3.3,0.1,5.3,2.1,5.1,5.5c-0.2,3.2-2,5.3-5.4,5.3C116.5,336.4,113.5,336.4,110.5,336.4z"/>
	<path id="XMLID_481_" fill="#41444B" d="M65.9,20.5c2.5,0,5-0.2,7.5,0.1c3.1,0.4,5.9,1.6,6.1,5.3c0.2,3.7-1.7,6.1-5.5,6.3
		c-5.1,0.2-10.3,0.4-15.4,0.1c-3.4-0.2-6.1-2.5-6-6.2c0.1-3.8,2.9-5.4,6.5-5.6C61.2,20.4,63.5,20.5,65.9,20.5z"/>
	<path id="XMLID_480_" fill="#41444B" d="M67.7,310.5c3,0,6,0,8.9,0c2.9,0,4.3,1.6,4.3,4.4c0,2.5-0.5,4.9-3.7,5.6
		c-6.6,1.3-13.2,1.2-19.8,0.7c-3.1-0.3-5.2-2-5.2-5.5c-0.1-3.6,2.4-4.6,5.1-4.9c3.4-0.3,6.9-0.1,10.4-0.1
		C67.7,310.6,67.7,310.5,67.7,310.5z"/>
	<path id="XMLID_479_" fill="#41444B" d="M118.2,177.3c-2.7,0-5.3,0.2-8-0.1c-3.4-0.3-5.7-2.5-5.7-5.8c0-3.6,2.6-5.1,6.1-5
		c5.2,0.1,10.3,0,15.5,0c3.6,0.1,6.7,1,7,5.4c0.3,4.6-3.3,4.9-6.4,5.3C123.9,177.5,121,177.2,118.2,177.3
		C118.2,177.3,118.2,177.3,118.2,177.3z"/>
	<path id="XMLID_478_" fill="#41444B" d="M235.1,60.4c-0.4-7.1,1.3-8.9,8.2-9c3.8,0,7.6,0,11.4,0c3.7,0,6.6,1.7,9.3,4
		c0,4.7-2.4,7-7.1,7c-5.3,0-10.6,0-15.9,0C238.8,62.5,236.9,61.7,235.1,60.4z"/>
	<path id="XMLID_477_" fill="#3A3D44" d="M288.1,6.4c-9.6,0-19.1,0-28.7,0c-6.4,0-6.9,0.6-7.3,7c-1.2-1.2-2.1-2.8-4-3
		c-0.9-3.9-3.9-4-7-4c-13,0-26,0-39,0c-2.7-1.4-5.3-1.4-8,0c-12.1,0-24.2,0-36.3,0c-2.1,0-4.4,0.6-5.7-2c46.3,0,92.7,0,139,0
		C290.1,5.1,289.1,5.8,288.1,6.4z"/>
	<path id="XMLID_476_" fill="#41444B" d="M320.8,62.4c-2.7,0-5.3,0-8,0c-3.6,0.1-5.8-1.7-6.1-5.2c-0.2-3.1,2.2-5.2,4.8-5.4
		c6.3-0.5,12.6-0.4,18.8,0c2.7,0.2,4,2.7,3.8,5.5c-0.2,2.8-1.5,4.8-4.5,5C326.8,62.5,323.8,62.3,320.8,62.4
		C320.8,62.4,320.8,62.4,320.8,62.4z"/>
	<path id="XMLID_475_" fill="#41444B" d="M66.6,146.2c-3,0-6,0.3-9-0.1c-3.2-0.4-5.2-2.4-5.2-5.7c-0.1-3.4,2.5-4.7,5.3-4.8
		c5.6-0.2,11.3-0.3,16.9,0c3.4,0.2,5.7,2.1,5.4,5.8c-0.3,3.5-2.9,4.6-5.9,4.8c-2.5,0.2-5,0-7.5,0C66.6,146.3,66.6,146.3,66.6,146.2z
		"/>
	<path id="XMLID_474_" fill="#41444B" d="M185.4,161.4c-2.5,0-5,0-7.5,0c-3.4,0.1-5.5-1.5-5.6-4.9c0-3.3,2-5.8,5.1-5.7
		c5.8,0.3,11.6-1.2,17.3,0.6c3,0.9,5.4,2.3,5,5.7c-0.4,3.2-3,4.2-5.9,4.2C191.1,161.5,188.3,161.4,185.4,161.4z"/>
	<path id="XMLID_473_" fill="#41444B" d="M207.4,321.3c-3.5,0.2-6.9,0-10.4-0.8c-2.7-0.6-4.1-2.3-4.3-4.8c-0.3-2.5,1.6-4.1,3.6-4.9
		c6.3-2.3,12.8-1.7,19,0.1c2.9,0.9,2.8,3.8,2.7,6.3c-0.1,2.7-1.8,3.8-4.2,4C211.7,321.4,209.5,321.3,207.4,321.3z"/>
	<path id="XMLID_472_" fill="#41444B" d="M236.9,309.4c1.8,0.4,4.3,0.7,6.7,1.4c2.5,0.8,3.6,2.8,3.4,5.4c-0.2,2.5-1.5,3.6-4,4.3
		c-5.9,1.6-11.6,0.3-17.3-0.4c-2.5-0.3-3.5-2.4-3.4-4.8c0-2.5,1.1-4.3,3.6-4.7C229.3,310.1,232.8,309.8,236.9,309.4z"/>
	<path id="XMLID_471_" fill="#41444B" d="M63.2,161.3c-2,0-4,0.1-6,0c-2.8-0.2-4.8-1.7-4.9-4.7c-0.1-2.8,1.4-4.9,4-5.6
		c4.6-1.1,9.3-0.9,13.8-0.2c3.1,0.5,3.9,3.2,3.8,6.1c-0.1,3.2-2,4.3-4.9,4.4C67.2,161.4,65.2,161.4,63.2,161.3
		C63.2,161.4,63.2,161.4,63.2,161.3z"/>
	<path id="XMLID_470_" fill="#41434A" d="M304.6,166.5c2,0,4-0.1,6,0c3.3,0.3,4.4,2.4,4.5,5.5c0.2,3.1-1.3,4.9-4.2,5.1
		c-4,0.3-8,0.4-11.9,0.2c-3.4-0.2-5.5-2.6-5.6-5.9c-0.1-3.6,2.8-4.6,5.8-4.9C301,166.3,302.8,166.5,304.6,166.5
		C304.6,166.5,304.6,166.5,304.6,166.5z"/>
	<path id="XMLID_469_" fill="#41444B" d="M96,135.6c2,0,4-0.2,6,0c3.1,0.4,3.9,2.8,4.1,5.4c0.2,2.6-1.1,3.9-3.6,4.6
		c-4.3,1.1-8.6,1.1-12.9,0.5c-3.2-0.4-5.5-2-5.4-5.9c0.1-3.8,2.8-4.1,5.4-4.6c2.1-0.3,4.3-0.3,6.5-0.4C96,135.4,96,135.5,96,135.6z"
		/>
	<path id="XMLID_468_" fill="#41434B" d="M301.4,321.6c-2-0.3-3.9-0.5-5.9-0.9c-2.9-0.5-4.3-2.1-4.4-5.1c-0.1-2.9,1.5-4.6,4.1-5.4
		c4.7-1.6,9.2-0.6,13.6,1c1.7,0.6,3,2.2,3,4.2c0,2.2-1.3,3.7-3.1,4.8C306.5,321.5,304,321.5,301.4,321.6z"/>
	<path id="XMLID_467_" fill="#41444B" d="M184.7,336.4c-1.7,0-3.3,0-5,0c-2.8,0-4.3-1.5-4.5-4.2c-0.2-2.7,0.4-4.9,3.4-5.8
		c3.9-1.2,7.9-1.2,11.8-0.7c3.2,0.4,5.9,2,5.5,5.8c-0.4,3.5-2.7,5.1-6.2,5C188,336.4,186.3,336.4,184.7,336.4
		C184.7,336.4,184.7,336.4,184.7,336.4z"/>
	<path id="XMLID_466_" fill="#383B41" d="M301.1,52.4c-9.5-2-19.2-0.7-28.8-0.9c-2.8,0-4.1,2.7-6.2,3.9c-0.2-4.5-4.3-5.6-7-8
		c9.7,0,19.3,0,29,0c0.7,4.3,4.1,2.8,6.6,2.9C297.1,50.5,299.7,49.5,301.1,52.4z"/>
	<path id="XMLID_465_" fill="#3A3D44" d="M138.1,6.4c-13.3,0-26.7,0-40,0c-0.3-0.7-0.7-1.3-1-2c17.7,0,35.3,0,53,0
		c-0.5,1.5-1.6,1.9-3,2C144.1,5,141.1,5,138.1,6.4z"/>
	<path id="XMLID_464_" fill="#3A3D44" d="M290.1,14.4c0.2-2.7-0.2-5.4-1-8C292.4,8.7,291.2,11.6,290.1,14.4z"/>
	<path id="XMLID_463_" fill="#383B41" d="M199.1,44.4c-0.3-2.3-0.7-4.7-1-7C200.6,39.5,200.6,41.8,199.1,44.4z"/>
	<path id="XMLID_462_" fill="#383B41" d="M206.1,36.4c-1.3,1-2.7,2-4,3C202.5,37.2,204.1,36.5,206.1,36.4z"/>
	<path id="XMLID_461_" fill="#383B41" d="M202.1,39.4c0,1.7,0,3.3,0,5C200.9,42.8,200.9,41.1,202.1,39.4z"/>
	<path id="XMLID_460_" fill="#383B41" d="M288.1,47.4c1.2-0.9,2.6-1,4-1C291.1,48.2,289.6,47.7,288.1,47.4z"/>
	<path id="XMLID_459_" fill="#2F343A" d="M506.1,5.4c2,0,4,0,6,0c0,107.3,0,214.7,0,322c-1.4,1.5-3,2.4-5,1c-1-4,0-7.9,0-11.9
		c0-100.6,0-201.1,0-301.7C507.1,11.7,507,8.5,506.1,5.4z"/>
	<path id="XMLID_458_" fill="#1F2327" d="M507.1,328.5c1.4-1.8,3.1-1.6,5-1c0,14.3,0,28.6,0,42.9c-4.2,0.4-5-2-5-5.6
		C507.2,352.7,507.1,340.6,507.1,328.5z"/>
	<path id="XMLID_457_" fill="#41464C" d="M16.1,373.5c159.4,0,318.7,0,478.1,0c2.7,0,5.3,0.3,7.9,1c1.3,1.8,2,3.7,2,6
		c-0.1,5.3,0.1,10.7-0.1,16c-0.1,5-2.8,7.7-7.7,7.9c-1.2,0.1-2.3,0-3.5,0c-156.1,0-312.2,0-468.3,0c-10.5,0-11.4-0.9-11.5-11.3
		c0-3.5,0.2-7,0-10.5C12.8,379.1,13.6,376,16.1,373.5z"/>
	<path id="XMLID_456_" fill="#373A44" d="M8.1,416.4c128.6-1.1,257.3-0.2,385.9-0.4c2,0,4.6-1.5,6.1,1.4c-1.9,1-3.9,0.5-5.9,0.5
		c-123.4,0-246.7,0-370.1,0c-4.3,0-8.7,0.1-13,0C10,417.9,8.2,418.7,8.1,416.4z"/>
	<path id="XMLID_455_" fill="#343641" d="M8.1,416.4c2.4,1.5,5.2,1,7.8,1c128.1,0,256.1,0,384.2,0c-2.4,1.6-5.2,1-7.8,1
		c-122.1,0-244.2,0-366.2,0c-6.8,0-13.6,0-20.6,0C5.7,416.3,7.1,416.6,8.1,416.4z"/>
	<path id="XMLID_454_" fill="#393949" d="M417.1,419.4c-3-0.3-6.1,0.7-9-1c11.7-3.6,23.8-2.4,35.8-2.5c1.4,0,4.2-1.1,3.2,2.4
		c-7.2,1.1-14.5,0.2-21.7,0.5C422.7,419.1,419.8,418.4,417.1,419.4z"/>
	<path id="XMLID_453_" fill="#393E41" d="M417.1,419.4c4.1-2,8.4-0.8,12.7-1c5.8-0.2,11.5,0,17.3,0c0.3,0.3,0.6,0.6,1,0.9
		C437.8,419.4,427.4,419.4,417.1,419.4z"/>
	<path id="XMLID_452_" fill="#353A3A" d="M458.1,418.5c-0.3-1.6,0.5-2.1,1.9-1.8c0.4,0.1,1,0.6,1,0.8
		C460.5,418.9,459.1,418.2,458.1,418.5C458.1,418.5,458.1,418.5,458.1,418.5z"/>
	<path id="XMLID_451_" fill="#3D3E43" d="M120.4,192.4c16.7,0,33.3,0.1,50-0.1c4.3,0,5.9,1.3,5.8,5.7c-0.2,23-0.1,46,0,68.9
		c0,4.2-1.6,5.5-5.6,5.4c-33.6-0.1-67.3-0.1-100.9,0c-4.1,0-5.6-1.3-5.6-5.5c0.1-23,0.1-46,0-68.9c0-4.4,1.6-5.7,5.9-5.7
		C86.7,192.5,103.6,192.4,120.4,192.4z"/>
	<path id="XMLID_450_" fill="#373A41" d="M102.1,367.4c14.3,0,28.7,0,43,0c-1.5,1-3.1,1-4.8,1c-11.1,0-22.3,0-33.4,0
		C105.2,368.4,103.6,368.4,102.1,367.4z"/>
	<path id="XMLID_449_" fill="#B5B9BF" d="M434.9,381.4c2.1,0.6,5.7-1.5,7.1,1c1.8,3.3,0.5,7.5,0.4,11.3c-0.1,1.4-1.4,1.7-2.7,1.7
		c-1.7,0-3.3,0.1-5,0c-9.2-0.2-8.7,1.8-8.8-8.7c-0.1-4,0.9-5.9,5.2-5.3C432.2,381.5,433.4,381.4,434.9,381.4z"/>
	<path id="XMLID_448_" fill="#B4B7BE" d="M462.2,387.3c0.7,1.4,2,1.1,3,1c2.7-0.1,2.9,1.5,2.8,3.5c-0.1,2-0.5,3.6-3,3.6
		c-2.6,0-5.3-0.1-7.9,0c-2.4,0.1-3.2-1.3-3.1-3.4c0-1.3,0-2.6,0-4c0-7,0-7,7.1-6.4C463.5,383.1,461.7,385.4,462.2,387.3z"/>
	<path id="XMLID_447_" fill="#C0C1C3" d="M488.1,381.2c4.7,1.4,6.7,4.6,5.9,9.4c-0.2,1.5-0.4,3.5-3,2.8c-0.2,0-0.4-0.1-0.6-0.1
		c-0.9-0.4-1.8-1-2.8-1.2c-1.3-0.3-2.6-0.7-3.9-0.7c-0.4,0-0.8,0-1.2,0.1c-0.8,0.1-1.6,0.2-2.4,0.1c-2.8-5.1,0.2-7.8,4.1-10.3
		C485.4,380.2,486.8,380.3,488.1,381.2z"/>
	<path id="XMLID_446_" fill="#B7B9C0" d="M37.1,393.5c-1.9,2.9-4.7,2.8-7.5,1.8c-2.7-1-4.3-3.3-4.4-6.1c-0.1-3.2,1.5-5.7,4.8-6.7
		c1,0.6,2.2,1.1,2.4,2.5c-0.1,2.9,2.4,2.8,4.1,3.7c0.4,0.3,0.6,0.8,0.8,1.2C37.8,391.1,38,392.3,37.1,393.5z"/>
	<path id="XMLID_445_" fill="#B0B5BB" d="M399.5,385.6c0.5-0.1,1.2,0,1.4-0.3c1.1-1.1-0.1-4.5,3-3.7c3.2,0.8,6.5,1.8,8.7,4.5
		c1,1.2,0.4,2.2-1.2,2.3c-2,0.1-4,0.1-5.9,0.2c-1.7,1.1-3.3,2.4-5.4,0.9c-0.3,0-0.5-0.1-0.8-0.1C398.2,388.1,398,386.8,399.5,385.6z
		"/>
	<path id="XMLID_444_" fill="#42464E" d="M482.2,379.4c-3-2.7-2.5-4.6,1.5-4.9c3-0.3,6-0.1,9,0c2.8,0,3.7,1.6,3.2,4.5
		c-3-0.8-6.1-2.4-8.7,0.4C485.4,381.5,483.8,377.7,482.2,379.4z"/>
	<path id="XMLID_443_" fill="#494E54" d="M108.2,387.4c0.6,0,1.3,0,1.9,0c1-0.1,2-1,3.1,0c0.7,0,1.3,0,2,0c1.5,1.7,1.2,3.3,0,5
		c-3.4,0.6-6.8,1.3-10.1,1.9C104.4,391.2,106,389.2,108.2,387.4z"/>
	<path id="XMLID_442_" fill="#595E64" d="M154.1,387.6c0.9,1.3,2.5,3.4,0.6,4.1c-2.4,0.8-5.5,2-7.9-0.4c-1-1-0.7-2.5,0.2-3.6
		c0.7-0.9,1.8-1.2,2.6-0.5c1.5,1.3,1.3,2.2-0.8,2.5c-0.6,0.1-0.4,0.9,0,1.1c1.8,1.1,3.1,0.3,4.1-1.3
		C152.4,388.3,153.4,388,154.1,387.6z"/>
	<path id="XMLID_441_" fill="#B9BDC3" d="M400.1,389.4c1.7-0.8,3.5-1,5.4-0.9c0,0.3,0.1,0.7,0,1c-0.7,2,1.9,5.6-2.4,5.7
		C398.4,395.4,400.7,391.6,400.1,389.4z"/>
	<path id="XMLID_440_" fill="#53585E" d="M66.1,387.4c1.5,0.1,3.2-1.5,4.5,0.2c0.9,1.1,2.1,2.9,1.2,4c-1.6,1.8-3.8,1.1-5.7-0.2
		C64.8,390,63.6,388.7,66.1,387.4z"/>
	<path id="XMLID_439_" fill="#B4B9BF" d="M407.2,392.2c-0.4-2.3,0.8-2.8,2.9-2.8c2.1,0,2.5,1,2.4,2.8c-0.1,1.9-0.5,3.1-2.8,3.2
		C407.1,395.5,407,394.1,407.2,392.2z"/>
	<path id="XMLID_438_" fill="#B9BABB" d="M480,391.6c0.8-0.7,1.5-1.4,2.3-2.1c0.9,1,1.8,1.8,3,2.4c1.1,0.6,2.3,0.9,3.6,0.8
		c0.9-0.1,1.7,0.1,2.3,0.7c0,0-0.1,0-0.1,0c-0.2,3.8-3.2,3-5.3,3C482.6,396.6,480.5,394.9,480,391.6z"/>
	<path id="XMLID_437_" fill="#51565C" d="M66.1,387.4c0,1.3,0,2.6,0,4c-1.7,1.1-3.3,1-5,0.1c-0.6-0.7-0.6-1.4,0.1-2.1
		C62.9,388.7,63.5,385.5,66.1,387.4z"/>
	<path id="XMLID_436_" fill="#B8BCC2" d="M31.2,385.6c-0.4-1-0.7-2.1-1.1-3.1c3-0.8,5.9-1,7.2,2.7c0,0.2-0.1,0.5-0.1,0.7
		c-1,2-2.6,2-4.3,1C32.3,386.6,31.7,386.1,31.2,385.6z"/>
	<path id="XMLID_435_" fill="#94979D" d="M462.1,381.4c2.7,0.4,3.8,2.7,5.6,4.7c-2,1.2-3.8,0.5-5.6,0.4
		C461.4,384.9,461.3,383.2,462.1,381.4z"/>
	<path id="XMLID_434_" fill="#494E54" d="M131.1,392.5c-1-0.3-2-0.7-2.9-1c-1.6-0.7-1.5-2-1.2-3.4c0-0.2,0.1-0.4,0.1-0.7
		c1.2-0.9,2.7-0.9,4.2-0.9c2.4,1.3,3.4,2.8,0.9,4.9C131.8,391.8,131.4,392.1,131.1,392.5z"/>
	<path id="XMLID_433_" fill="#565B61" d="M59.9,388.6c-1.9,3.2-3.9,3.9-5.8,0c-0.9-1.3-0.7-2.7-0.1-4c1.6,1.8,2.5,5.9,6.1,2
		C60.7,387.2,60.7,387.9,59.9,388.6z"/>
	<path id="XMLID_432_" fill="#40454B" d="M462.1,381.4c0,1.7,0,3.4,0,5.1c0,0.2,0,0.5,0.1,0.7c-2.1-1.5-0.9-3.7-1.1-5.6
		c-0.4-0.3-0.7-0.7-1.1-0.9c-1-0.5-2.2-0.8-1.8-2.4c0.1-0.4,0.6-1,0.9-1c1.2,0,1.4,1.2,2,1.9C461.5,380,461.7,380.7,462.1,381.4z"/>
	<path id="XMLID_431_" fill="#54595F" d="M79,391.3c-1.4,0.2-2.8,1.1-4.2-0.3c-0.9-0.9-2.2-1.7-1.8-3.2c0.1-0.4,0.6-0.9,0.9-1
		c1.8-0.4,0.8,1.9,2,2.2c0.7,0.2,1.4,0.9,2,1.3C78.9,390.1,79.2,390.5,79,391.3z"/>
	<path id="XMLID_430_" fill="#4E5359" d="M79,391.3c-0.3-0.3-0.6-0.6-1-1c0.4-2.2-0.1-5.8,4-2.8c-1,1.5,0.1,3.3-0.8,4.8
		C80.5,392,79.8,391.7,79,391.3z"/>
	<path id="XMLID_429_" fill="#565B61" d="M123.1,391.4c-2.3,0.6-2.1-1.2-1.8-2.3c0.5-1.9,1.9-2.6,3.8-1.7
		C128.5,390.8,124.2,390.3,123.1,391.4z"/>
	<path id="XMLID_428_" fill="#575C62" d="M115.1,392.4c0-1.7,0-3.3,0-5c1.7-0.9,3.3-0.9,4.9,0.1c-0.3,0.3-0.4,1-1,1.1
		C116.8,388.9,117.3,392,115.1,392.4z"/>
	<path id="XMLID_427_" fill="#474C52" d="M123.1,391.4c-0.9-2.1,3.2-1.7,2.1-4c0.6,0,1.3,0,1.9,0c0,0,0.1,0.1,0.1,0.1
		c0.7,1.6,0.6,3.2,0.1,4.8C125.9,392,124.5,391.7,123.1,391.4z"/>
	<path id="XMLID_426_" fill="#595E64" d="M90,392.3c-1.7-2.5-1.2-3.8,0.5-4.8c0.6-0.4,1.6-0.4,1.8,0.3C92.6,389.8,90,390,90,392.3z"
		/>
	<path id="XMLID_425_" fill="#565B61" d="M131.1,391.4c0.6-1.6,1.6-3.3,0.1-4.9c1.7,0,3.3,0,3.9,2
		C134.4,390.3,134.5,393.3,131.1,391.4z"/>
	<path id="XMLID_424_" fill="#5B6066" d="M108.2,387.4c0,2.8-2.8,4.3-3.2,6.9c-1.3-1.7-0.6-3.3,0.1-4.9c0.9-0.8,0.1-2.2,1.1-2.9
		C106.8,386.8,107.5,387.1,108.2,387.4z"/>
	<path id="XMLID_423_" fill="#60656B" d="M84,392.4c0-1.4-1.4-3.3,1.4-3.7c1.6,0.1,1.3,0.9,0.7,1.8c0.3,0.4,0.6,0.7,0.9,1.1
		c0.7,0.7,0.6,1.6-0.2,2C85.6,394.2,84.7,393.6,84,392.4z"/>
	<path id="XMLID_422_" fill="#B4B9BF" d="M37.1,393.5c-0.3-1-0.7-2-1-3c0.5-1.7,0.2-3.7,2-4.8C39.8,388.5,39.7,391.1,37.1,393.5z"/>
	<path id="XMLID_421_" fill="#63686E" d="M143.9,391.3c-1.1-1.4-0.7-3-0.7-5C145.1,388.1,143.7,389.8,143.9,391.3z"/>
	<path id="XMLID_420_" fill="#4A4E54" d="M106.2,386.5c0.5,1.3,0.8,2.5-1.1,2.9C105.1,388.3,102.6,386.3,106.2,386.5z"/>
	<path id="XMLID_419_" fill="#4A4F55" d="M102.2,387.6c-1.4,2.5-2.8,3.3-4.1,0C99.4,386.7,100.8,386.6,102.2,387.6z"/>
	<path id="XMLID_418_" fill="#575C62" d="M84,392.4c1.2,0.4,2.4,1,3-0.9c1.1,1.3,0.9,2.4-0.8,2.7C85,394.4,83.4,394.6,84,392.4z"/>
	<path id="XMLID_417_" fill="#5F646A" d="M54.1,384.5c0,1.3,0.1,2.7,0.1,4c-0.1,0.9-0.3,1.9-0.4,2.8
		C53.2,388.9,52.5,386.6,54.1,384.5z"/>
	<path id="XMLID_416_" fill="#474A53" d="M483.8,399c1.5-0.9,2.9-0.6,4.5-0.3C486.8,399.9,485.4,399.5,483.8,399z"/>
	<path id="XMLID_415_" fill="#5F646A" d="M136.5,386.4c0.7,1.4,0.7,2.8,0.1,4.6C135.7,389.2,136.3,387.8,136.5,386.4z"/>
	<path id="XMLID_414_" fill="#666A70" d="M102.2,387.6c-1.4,0-2.7,0-4.1,0C100.7,385.4,101.5,385.4,102.2,387.6z"/>
	<path id="XMLID_413_" fill="#5D6268" d="M86.1,390.5c-0.2-0.6-0.5-1.2-0.7-1.8c-0.2-0.6-0.7-1.3,0.1-1.8c0.6-0.4,1.3-0.1,1.7,0.5
		C87.7,388.7,87,389.7,86.1,390.5z"/>
	<path id="XMLID_412_" fill="#B8BCC2" d="M38.1,385.7c-0.4,1.7,0.3,3.9-2,4.8c0-0.4,0-0.7,0-1.1c-0.3-0.3-0.5-0.7-0.6-1.1
		c0.1-1.2,1.1-1.8,1.6-2.7l0.3-0.3C37.6,385.2,37.9,385.4,38.1,385.7z"/>
	<path id="XMLID_411_" fill="#3D4248" d="M399.5,385.6c0,1.3-0.1,2.5-0.1,3.8c-1-0.9-2.3-1.6-2-3.1
		C397.6,385.3,398.7,385.6,399.5,385.6z"/>
	<path id="XMLID_410_" fill="#5E6369" d="M131.1,391.4c2.1,0.1,3-1.6,4-3c0.3,2.9-1.1,4.2-4,4C131.1,392.1,131.1,391.8,131.1,391.4z
		"/>
	<path id="XMLID_409_" fill="#696E74" d="M59.9,388.6c0.1-0.7,0.1-1.4,0.2-2.1c1,0.7,0.9,1.9,1.1,2.9c0,0.7-0.1,1.4-0.1,2.1
		C59.5,391,60.3,389.5,59.9,388.6z"/>
	<path id="XMLID_408_" fill="#575C62" d="M113.1,387.4c-1-1.3-2.1,4-3.1,0C111.1,386.6,112.1,386.6,113.1,387.4z"/>
	<path id="XMLID_407_" fill="#3B4046" d="M482.2,379.4c1.7-1.4,3.3-0.2,5,0c0,0,0,0,0,0c-0.3,2.5-1.7,1.4-3,1
		C483.5,380.1,482.8,379.7,482.2,379.4z"/>
	<path id="XMLID_406_" fill="#42464E" d="M484.1,380.4c1-0.3,2-0.6,3-1c0.3,0.6,0.7,1.2,1,1.8c-1.3,0-2.7,0.1-4,0.1
		C484.1,381,484.1,380.7,484.1,380.4z"/>
	<path id="XMLID_405_" fill="#51565C" d="M154.1,387.6c-0.4,0.6-0.7,1.2-1.1,1.9c-0.5-0.8-1.2-1.6-0.5-2.5
		C152.7,386.8,153.6,387.4,154.1,387.6z"/>
	<path id="XMLID_404_" fill="#676C72" d="M81.2,392.3c0-1.6-0.4-3.3,0.8-4.8C82.1,389.2,82.4,390.9,81.2,392.3z"/>
	<path id="XMLID_403_" fill="#63686F" d="M127.3,392.3c0-1.6-0.1-3.2-0.1-4.8c1.1,1.1,0.9,2.6,1,3.9
		C127.8,391.7,127.5,392,127.3,392.3z"/>
	<path id="XMLID_402_" fill="#575C62" d="M119,388.5c0.3-0.4,0.7-0.7,1-1.1c0,1.1,0,2.2,0,3.5C118.8,390.2,119.2,389.3,119,388.5z"
		/>
	<path id="XMLID_401_" fill="#9A9EA5" d="M434.3,391.3c-0.7,0-1.5,0.1-2.2,0.1c-0.7-1.2-2.4-0.9-3.1-2.2c0-0.2,0-0.4,0.1-0.7
		c-1.6-3.4,1.8-2.1,2.9-3.1c0.7,0,1.5,0,2.2,0C436.1,387.4,435.2,389.3,434.3,391.3z"/>
	<path id="XMLID_400_" fill="#858990" d="M438.2,389.8c-0.4,1.2-1.2,1.4-2.2,0.8c-1-1.7-1.2-3.4,0.2-5c0.8,0,1.5,0.2,1.9,0.9
		C439,387.5,438.9,388.6,438.2,389.8z"/>
	<path id="XMLID_399_" fill="#787C82" d="M429,389.2c1.3,0.3,2.2-1.9,3.4-0.8c1.2,1,0.1,2-0.4,3C430.6,391.4,428.8,391.7,429,389.2z
		"/>
	<path id="XMLID_398_" fill="#81868C" d="M438.2,389.8c0-1.1-0.1-2.2-0.1-3.3C440.4,387.5,440.3,388.6,438.2,389.8z"/>
	<path id="XMLID_397_" fill="#484D52" d="M434.3,391.3c0-1.9-0.1-3.9-0.1-5.8c0.3,0,0.5,0,0.8,0c1.1,1.6,0.7,3.3,0.3,5
		C435,390.8,434.6,391,434.3,391.3z"/>
	<path id="XMLID_396_" fill="#595D63" d="M432,385.5c-0.7,1.3-2.9,1.1-2.9,3.1C427.9,385.7,428.1,385.5,432,385.5z"/>
	<path id="XMLID_395_" fill="#9A9FA5" d="M435.3,390.5c-0.1-1.7-0.2-3.3-0.3-5c0.4,0,0.8,0,1.2,0c-0.1,1.7-0.2,3.4-0.2,5
		C435.7,390.6,435.5,390.5,435.3,390.5z"/>
	<path id="XMLID_394_" fill="#787978" d="M491.2,393.4c-0.7,0.3-1.4,0.6-2.1,0.9c-0.7-0.8-1.6-1.5-1.5-2.7c0.1-0.4,0.4-0.8,0.7-1
		C492.3,388.4,491.1,391.6,491.2,393.4z"/>
	<path id="XMLID_393_" fill="#999A99" d="M488.2,390.6c0,0.2-0.1,0.5-0.2,0.7c-0.5,2.2-1.9,2.2-3.7,1.8c-1.2-0.9-1.4-2.1-1.4-3.5
		C484.7,389.9,486.5,390.2,488.2,390.6z"/>
	<path id="XMLID_392_" fill="#6A696C" d="M485,387.1c-0.1,0.8-0.5,1.3-1.2,1.1c-0.6-0.2-1-0.8-1.5-1.2c0.5-0.4,0.9-1,1.5-1.1
		C484.4,385.8,484.9,386.4,485,387.1z"/>
	<path id="XMLID_391_" fill="#6D6F6E" d="M483,389.6c0.4,0.9,0.7,1.9,1.1,2.8c0.6,0.6,0.6,1.2,0.1,1.9c-1.9-1.1-2.3-2.7-1.9-4.7
		C482.5,389.5,482.8,389.6,483,389.6z"/>
	<path id="XMLID_390_" fill="#3D3D3F" d="M490.5,387.5c-0.5,0.2-0.9,0.6-1.2,0.5c-0.3-0.1-0.8-0.6-0.8-0.9c0-0.3,0.5-0.6,0.8-0.9
		C489.6,386.5,489.9,386.7,490.5,387.5z"/>
	<path id="XMLID_389_" fill="#6C6E75" d="M36.1,388.5c0,0.3,0,0.6,0,0.9c-0.6,0.1-1.3,0.4-1.9,0.4c-1.5-0.1-0.1,4-2.5,1.8
		c-0.9-0.8-3.8-2.5-0.5-4.4c0.2-0.1,0.1-0.9,0.1-1.4c0.6-0.1,1.3-0.1,1.9-0.2C33.7,386.9,35.1,387.4,36.1,388.5z"/>
	<path id="XMLID_388_" fill="#434444" d="M484.2,394.3c0-0.6-0.1-1.3-0.1-1.9c1.5,0.2,2.8-0.2,3.9-1.1c1.2,0.7,1.3,1.8,1,3
		C487.4,394.3,485.8,394.3,484.2,394.3z"/>
	<path id="XMLID_387_" fill="#B4B9BF" d="M36.1,388.5c-2-0.1-3-1-2.9-3.1c1.3,0.7,2.6,0.7,3.9,0.1C36.7,386.5,36.4,387.5,36.1,388.5
		z"/>
</g>
</svg>
