<?xml version="1.0" encoding="utf-8"?>
<!-- Generator: Adobe Illustrator 19.0.0, SVG Export Plug-In . SVG Version: 6.00 Build 0)  -->
<svg version="1.2" baseProfile="tiny" id="Layer_1" xmlns="http://www.w3.org/2000/svg" xmlns:xlink="http://www.w3.org/1999/xlink"
	 x="0px" y="0px" viewBox="0 0 121.4 24.4" xml:space="preserve">
<g display="none">
	<path display="inline" d="M41.8,6.1h6.6c1.6,0,2.9,0.2,4,0.7c1.1,0.5,1.9,1.2,2.5,2.1c0.5,0.9,0.8,1.9,0.8,3c0,1.1-0.3,2.1-0.9,3
		c-0.6,0.9-1.4,1.6-2.6,2.2c-1.2,0.5-2.6,0.8-4.3,0.8h-6.1V6.1z M47.8,14.9c1.1,0,1.9-0.3,2.5-0.8c0.6-0.5,0.9-1.3,0.9-2.2
		c0-0.9-0.3-1.5-0.8-2c-0.5-0.5-1.3-0.8-2.3-0.8H46v5.8H47.8z"/>
	<path display="inline" d="M65.9,17.9c-0.9-0.2-1.7-0.6-2.5-1v-2.8c0.6,0.4,1.3,0.8,2.2,1.1c0.9,0.3,1.8,0.4,2.7,0.4
		c0.4,0,0.7,0,0.9-0.2c0.2-0.1,0.3-0.2,0.3-0.4c0-0.2-0.1-0.3-0.2-0.4c-0.1-0.1-0.3-0.2-0.7-0.3l-2-0.4c-1.2-0.3-2-0.7-2.5-1.1
		c-0.5-0.5-0.7-1.1-0.7-1.9c0-0.7,0.2-1.2,0.6-1.7c0.4-0.5,1-0.9,1.8-1.1c0.8-0.3,1.7-0.4,2.8-0.4c0.9,0,1.8,0.1,2.6,0.3
		c0.8,0.2,1.4,0.5,2,0.8v2.7c-0.5-0.3-1.1-0.6-1.8-0.7c-0.7-0.2-1.4-0.3-2.1-0.3c-1.1,0-1.6,0.2-1.6,0.5c0,0.2,0.1,0.3,0.2,0.4
		c0.2,0.1,0.5,0.2,0.9,0.3l1.7,0.3c1.1,0.2,1.9,0.5,2.5,1c0.5,0.5,0.8,1.2,0.8,2.1c0,1-0.4,1.8-1.3,2.4c-0.9,0.6-2.2,0.9-3.8,0.9
		C67.8,18.3,66.9,18.2,65.9,17.9z"/>
	<path display="inline" d="M78.1,17.6c-1-0.5-1.7-1.1-2.2-1.9c-0.5-0.8-0.7-1.7-0.7-2.7c0-1,0.2-1.9,0.8-2.7
		c0.5-0.8,1.3-1.4,2.2-1.9c1-0.4,2.2-0.7,3.5-0.7c1.7,0,3.1,0.4,4.2,1.1v3.1c-0.4-0.3-0.9-0.5-1.4-0.7c-0.5-0.2-1.1-0.2-1.7-0.2
		c-1.1,0-1.9,0.2-2.5,0.6c-0.6,0.4-0.9,0.9-0.9,1.5c0,0.6,0.3,1.1,0.9,1.5c0.6,0.4,1.4,0.6,2.5,0.6c0.6,0,1.1-0.1,1.7-0.2
		c0.5-0.2,1-0.4,1.4-0.6v3c-1.2,0.7-2.7,1.1-4.3,1.1C80.2,18.3,79.1,18,78.1,17.6z"/>
	<path display="inline" d="M90.3,17.6c-1-0.5-1.7-1.1-2.2-1.9c-0.5-0.8-0.8-1.7-0.8-2.8c0-1,0.3-1.9,0.8-2.7
		c0.5-0.8,1.3-1.4,2.2-1.9c1-0.4,2.1-0.7,3.5-0.7c1.3,0,2.5,0.2,3.5,0.7c1,0.4,1.7,1.1,2.2,1.9c0.5,0.8,0.8,1.7,0.8,2.7
		c0,1-0.2,1.9-0.8,2.8c-0.5,0.8-1.2,1.5-2.2,1.9c-1,0.5-2.1,0.7-3.5,0.7C92.4,18.3,91.3,18,90.3,17.6z M95.4,14.6
		c0.4-0.4,0.6-1,0.6-1.6c0-0.7-0.2-1.2-0.6-1.6c-0.4-0.4-1-0.6-1.7-0.6c-0.7,0-1.3,0.2-1.7,0.6c-0.4,0.4-0.6,0.9-0.6,1.6
		c0,0.7,0.2,1.2,0.6,1.6c0.4,0.4,1,0.6,1.7,0.6C94.5,15.2,95,15,95.4,14.6z"/>
	<path display="inline" d="M110.5,8.3v3.6c-0.4-0.3-1-0.4-1.7-0.4c-0.9,0-1.6,0.3-2.1,0.8c-0.5,0.5-0.7,1.4-0.7,2.5v3.1h-4.1V8.1
		h4.1v3.1c0.2-1.1,0.6-2,1.1-2.5c0.5-0.5,1.1-0.8,1.9-0.8C109.6,7.8,110.1,8,110.5,8.3z"/>
	<path display="inline" d="M124.5,5.8V18h-4.1v-2.2c-0.4,0.8-0.9,1.5-1.6,1.9c-0.7,0.4-1.6,0.7-2.7,0.7c-0.9,0-1.8-0.2-2.4-0.7
		c-0.7-0.4-1.2-1.1-1.6-1.9c-0.4-0.8-0.6-1.7-0.6-2.7c0-1,0.2-2,0.6-2.8c0.4-0.8,1-1.5,1.7-1.9c0.7-0.5,1.6-0.7,2.6-0.7
		c2,0,3.3,0.9,4,2.6V5.8H124.5z M119.7,14.5c0.4-0.4,0.6-0.9,0.6-1.6c0-0.6-0.2-1.1-0.6-1.5c-0.4-0.4-1-0.6-1.7-0.6
		c-0.7,0-1.3,0.2-1.7,0.6c-0.4,0.4-0.6,0.9-0.6,1.6c0,0.7,0.2,1.2,0.6,1.6c0.4,0.4,1,0.6,1.7,0.6C118.8,15.1,119.3,14.9,119.7,14.5z
		"/>
	<path display="inline" d="M59.5,8.7c1.2,0,2.2-0.9,2.2-1.9c0-1.1-1-1.9-2.2-1.9c-1.2,0-2.2,0.9-2.2,1.9C57.3,7.8,58.3,8.7,59.5,8.7
		z"/>
	<path display="inline" d="M61.6,10c-1.3,0.6-3,0.6-4.3,0v8h4.3V10z"/>
</g>
<g>
	<path d="M38.5,11.5h-3.6l-3.1,4.3v-4.3h-2.9v11.5h2.9v-4l0.1-0.1l2.9,4.1h3.7L34,17L38.5,11.5z"/>
	<path d="M43,11.3c-2.4,0-4.8,1.3-4.8,3.9v3.9c0,2.6,2.4,3.9,4.8,3.9s4.8-1.3,4.8-3.9v-3.9C47.8,12.6,45.4,11.3,43,11.3z M44.9,19.2
		c0,0.8-0.9,1.3-1.8,1.3c-0.9,0-1.9-0.4-1.9-1.3v-3.9c0-0.8,0.9-1.3,1.8-1.3c0.9,0,1.9,0.4,1.9,1.3V19.2z"/>
	<path d="M57.1,11.5l-2.4,5.6l-2.4-5.6h-2.9v11.5h2.9v-3.3L52,17.3l0.1,0l1.5,3.9h2l1.5-3.9l0.1,0l-0.2,2.3l0,3.3H60V11.5H57.1z"/>
	<path d="M61.8,11.5v11.5h2.9V11.5H61.8z"/>
	<path d="M72.4,19.4c-0.6,1.6-3.2,1.2-3.2-0.2v-4c0-1.4,2.6-1.8,3.3-0.3l2.4-1c-0.9-2-2.6-2.6-4-2.6c-2.3,0-4.6,1.3-4.6,3.9v4
		c0,2.6,2.3,3.9,4.5,3.9c1.5,0,3.2-0.7,4.1-2.6L72.4,19.4z"/>
	<path d="M81.5,11.5h-2.6l-4,11.5H78l0.7-2.3h3.1l0.7,2.3h3.1L81.5,11.5z M79.4,18.1l0.8-3.4h0.1l0.8,3.4H79.4z"/>
	<path d="M84.5,11.4v2.8h3v8.7h2.9v-8.7h3v-2.8H84.5z"/>
	<path d="M94.7,11.5v11.5h2.9V11.5H94.7z"/>
	<path d="M103.8,11.3c-2.4,0-4.8,1.3-4.8,3.9v3.9c0,2.6,2.4,3.9,4.8,3.9c2.4,0,4.7-1.3,4.7-3.9v-3.9
		C108.6,12.6,106.2,11.3,103.8,11.3z M105.7,19.2c0,0.8-0.9,1.3-1.8,1.3c-0.9,0-1.9-0.4-1.9-1.3v-3.9c0-0.8,0.9-1.3,1.8-1.3
		c0.9,0,1.9,0.4,1.9,1.3V19.2z"/>
	<path d="M116.4,11.5v5.2c0,0,0.3,2,0.3,2l-0.1,0l-1-2.3l-2.8-4.9h-2.8v11.5h2.9v-4.6l-0.4-2.2l0.1,0l1,2.3l2.6,4.5h2.9V11.5H116.4z
		"/>
</g>
<g>
	<path d="M25.9,16.3c-0.3,0-0.6,0-0.9,0c0,0,0,0,0-0.1c0.2-0.1,0.4-0.1,0.6-0.2c0.2-0.3,0.5-0.7,0.7-1.1c0.5-0.8,0.9-1.7,0.9-2.6
		c0-0.3,0-0.7-0.1-1c-0.1-0.4-0.3-0.7-0.6-0.9c-0.5-0.3-1.1-0.5-1.6-0.8c-0.2-0.1-0.4-0.3-0.2-0.5c0.2-0.3,0.2-0.6,0.2-1
		c0-0.2,0-0.5,0.1-0.7c0.4-1.5,0.9-3,1-4.5c0.1-0.6,0-1.1,0-1.7c0-0.4-0.3-0.5-0.6-0.4c-0.6,0.1-1.3,0.3-1.8,0.5
		c-1.5,0.7-2.7,1.7-3.8,2.9c-0.2,0.2-0.3,0.2-0.5,0.2c-2.4-0.4-4.7-0.4-7.1,0.2c-0.6-1.6-1.7-2.9-2.9-4C9,0.3,8.7,0.1,8.3,0.1
		C8.2,0,8.1,0,8,0C7.4,0,6.8,0.4,6.5,1C6.3,1.6,6.1,2.3,5.9,2.9C5.6,4.4,5.6,5.8,5.6,7.2c0,0.1,0,0.3-0.2,0.3
		c-1.2,0.7-2.1,1.7-2.9,2.8c-0.4,0.6-0.7,1.2-0.7,1.9c0,0.1,0,0.2,0,0.4c0,0.3,0.1,0.6,0.4,0.8c0.5,0.4,0.8,0.8,0.9,1.4
		c0.1,0.5,0.3,0.9,0.8,1.2c-0.2-0.4-0.3-0.7-0.5-1c0.4,0.2,0.8,0.4,1.2,0.7c0.2,0.1,0.1,0.7-0.1,0.9c-0.2,0.2-0.4,0.5-0.6,0.7
		c-0.3,0.7-0.1,1.3,0.4,1.8c0.2,0.2,0.3,0.5,0.3,0.8c0,0.3,0,0.6,0,1c0,0.3,0,0.6,0,0.9c0,0.3,0,0.7,0,1c0.3,0.6,0.7,1.1,1.4,1.6
		h0.4c0-0.2,0-0.3,0-0.4h0.1v0.4h5.5c-0.3-0.1-0.6-0.2-1-0.3c-1.1-0.5-2.2-0.9-3-1.7c-1-0.9-1.5-2.1-1.6-3.5c0-0.7,0-1.3,0-1.9
		c0-0.2,0-0.4,0-0.7h1.1c0,0,0-0.1,0-0.1c-0.1,0-0.1-0.1-0.2-0.1c-0.4-0.2-0.6-0.4-0.6-0.8c-0.1-1,0-1.9,0.5-2.8
		c0.9-1.8,2.2-3.3,4-4.3c0.2-0.1,0.3-0.2,0.4-0.3c0,0,0,0,0.1,0c-0.5,1.1-0.8,2.1-0.1,3.2c0.4,0.6,0.8,1.1,1.5,1.3
		c-0.4-0.4-0.8-0.7-0.8-1.4c0.1,0.1,0.1,0.1,0.2,0.1c0.3,0.5,0.9,0.8,1.4,1c0.5,0.2,1,0.3,1.6,0.4c0.8,0.1,1.6,0.1,2.3-0.1
		c0,0,0.1,0,0.1-0.1c-0.3-0.5-0.6-1.1-0.6-1.7c0.5,0.9,1.3,1.5,2.3,1.9c-1.1,0-2,0.5-3,1c0.2,0.2,0.4,0.2,0.6,0.1
		c0.6-0.3,1.2-0.5,1.8-0.6c1.3-0.1,2.9,0.3,3.5,1.8c0,0.1,0.1,0.2,0.1,0.2c0.1,0,0.2,0.1,0.3,0.1c0-0.1,0-0.2,0-0.3
		c-0.3-0.8-0.9-1.3-1.5-1.6c-0.3-0.2-0.6-0.3-0.9-0.4c-0.2-0.1-0.4-0.3-0.5-0.4c0,0,0-0.1,0.1-0.1c0.2,0.1,0.4,0.3,0.6,0.3
		c0.4,0.1,0.8,0.2,1.2,0.3c0.3,0.1,0.5,0.2,0.8,0.3c-0.1-0.5-0.3-1-0.4-1.6c0,0,0.1,0,0.1-0.1c0.1,0.2,0.3,0.3,0.4,0.5
		c0.6,0.8,0.8,1.7,1.1,2.6c0.2,0.4,0.2,0.9,0.4,1.4c0,0.1,0.1,0.2,0.1,0.3c0.1,0.2,0.1,0.3,0.2,0.5c0,0,0.2-0.1,0.3-0.1
		c0.3-0.1,0.7-0.2,1-0.2c0.4,0,0.6,0.3,0.7,0.6c0.1,1-0.1,2.5-1.4,3.2c-0.4,0.2-0.9,0.3-1.3,0.5c0,0,0-0.1-0.1-0.1
		c0.1-0.3,0.2-0.5,0.3-0.8c0,0,0.1-0.1,0.2-0.1c0.6,0.1,0.8-0.4,1.1-0.7c-0.1,0-0.2,0-0.7,0.3c-0.1-0.2-0.2-0.5-0.3-0.7H25
		c-0.3-0.2-0.5-0.3-0.7-0.5c0,0,0,0.1-0.1,0.2c-0.7,2.9-2.4,4.8-5.1,5.7c-0.3,0.1-0.7,0.2-1,0.3h5.6c0-0.8,0.1-1.5,0.1-2.3
		c0-0.1,0-0.2,0.1-0.3c0,0,0.1,0,0.1,0c0,0.3,0.1,0.5,0,0.8c0,0.6,0,1.2,0.1,1.8h0.3c0-1,0-2,0-3c0-0.3,0.2-0.5,0.5-0.7
		c1.8-1,2-2,2-3.5C26.8,16.7,26.4,16.3,25.9,16.3z M25.8,12.1c0.2,0.1,0.4,0.2,0.7,0.3v-0.8c0.4,0.4,0.3,1.9-0.2,2.3
		c0-0.2,0.1-0.3,0.1-0.4c0-0.1,0-0.2-0.1-0.2c-0.1,0-0.2,0-0.2,0.1c-0.1,0-0.2,0.1-0.2,0.2c0-0.1-0.1-0.2-0.1-0.3
		C25.7,12.8,25.8,12.4,25.8,12.1z M4.6,9.7C4.5,9.8,4.4,9.9,4.3,9.9c0,0,0,0-0.1-0.1c0-0.1,0.1-0.2,0.1-0.4
		c-0.6,0.3-0.8,0.9-1.1,1.4c-0.3,0.5-0.4,1.1-0.6,1.6c-0.2-0.1-0.3-0.5-0.2-0.9c0.4-1,1-1.8,1.8-2.5c0.9-0.8,1.9-1.4,3-2
		C6.5,7.5,5.8,8.1,5.1,8.6c0,0,0.1,0,0.1,0.1c0,0.1,0,0.3-0.1,0.4C5,9.3,4.8,9.5,4.6,9.7z M5.7,9.7c0.2-0.3,0.4-0.6,0.6-0.9
		c0,0,0.1,0,0.1,0.1C6.2,9.2,6,9.5,5.7,9.7z M6.4,9.6C6.3,9.8,6.2,10,6,10.2c0,0-0.1-0.1-0.1-0.1C6,9.9,6.2,9.7,6.4,9.6
		C6.4,9.5,6.4,9.5,6.4,9.6z M5.6,9.9C5.6,9.9,5.6,9.9,5.6,9.9c0,0.1,0,0.1,0,0.1c0,0,0,0,0,0c0,0.1,0,0.1-0.1,0.2c0,0,0,0.1-0.1,0.1
		c0,0,0,0,0,0c0,0,0,0,0,0.1c-0.1,0.1-0.1,0.1-0.2,0.2C5.3,10.4,5.5,10.1,5.6,9.9z M5.6,9.8L5.6,9.8C5.6,9.8,5.6,9.8,5.6,9.8
		C5.6,9.8,5.6,9.8,5.6,9.8z M5.1,10.2C5,10.2,5,10.2,5.1,10.2c0.1-0.4,0.4-0.8,0.6-1.1c0.1,0,0.1,0.1,0.1,0.1L5.1,10.2z M4.8,10
		c0,0-0.1,0-0.1-0.1C5,9.6,5.2,9.2,5.5,8.8c0,0,0.1,0,0.1,0.1C5.3,9.3,5.1,9.7,4.8,10z M4.4,18.7c-0.1-0.2-0.2-0.4-0.2-0.6
		c0,0,0-0.1,0-0.1c0-0.3,0-0.5,0.1-0.7c0-0.1,0.1-0.2,0.2-0.2c0.1-0.1,0.1-0.1,0.2-0.2V19C4.5,18.9,4.4,18.8,4.4,18.7z M6.2,10.6
		c0,0-0.1-0.1-0.1-0.1c0.3-0.4,0.5-0.8,0.8-1.1c0,0,0.1,0.1,0.1,0.1C6.7,9.9,6.5,10.2,6.2,10.6z M7.1,10.7C7,10.8,7,10.9,6.9,11.1
		c0,0,0,0-0.1,0c0.3-0.4,0.5-0.9,0.8-1.3c0,0,0.1,0,0.1,0.1C7.5,10.1,7.3,10.4,7.1,10.7z M8.6,4.3c0,0.1,0,0.2-0.1,0.3
		C8.4,4.8,8.4,5,8.3,5.2C8.1,5.5,7.9,5.6,7.7,5.3C7.6,5.1,7.4,5,7.3,4.8c0.2-0.1,0.4-0.1,0.6-0.1c0.4-0.1,0.5-0.2,0.3-0.6
		C8,3.9,7.9,3.8,7.7,3.6c0.1,0,0.1,0,0.1,0c0.1,0,0.3,0.1,0.4,0.1c0,0,0.1,0,0.1,0c0.1,0,0.2,0.1,0.2,0.2C8.6,4,8.6,4.1,8.6,4.3z
		 M11.6,9.3c0.1-0.6,0.3-1.2,0.4-1.7c0,0,0.1,0,0.1,0c-0.1,0.6-0.3,1.2-0.4,1.7C11.7,9.3,11.6,9.3,11.6,9.3z M12.1,9.3
		c0,0-0.1,0-0.2,0C12,9,12.1,8.7,12.2,8.4c0,0,0.1,0,0.1,0C12.2,8.7,12.2,9,12.1,9.3z M12.8,9.2c-0.1,0-0.1,0-0.2,0
		c0-0.3,0.1-0.6,0.1-0.9v0c0.1,0,0.1,0,0.2,0C12.9,8.7,12.8,9,12.8,9.2z M13.2,9.7C12.9,9.2,13,8,13.4,7.5C13.3,8.3,13.2,9,13.2,9.7
		z M13.9,9.2L13.9,9.2c-0.1,0-0.1,0-0.1,0c0.1-0.3,0.1-0.6,0.2-1c0,0,0.1,0,0.1,0C14,8.6,14,8.9,13.9,9.2z M14.8,9.2
		c0,0-0.1,0-0.1,0c0-0.2,0-0.4,0-0.6c0,0,0.1,0,0.1,0C14.8,8.8,14.8,9,14.8,9.2z M16.7,10c-0.1-0.1-0.2-0.2-0.3-0.3
		c-0.1,0-0.1,0.1-0.3,0.1C16,9.5,16,9.3,15.9,9.1c0.3,0.1,0.5,0.2,0.8,0.3C16.7,9.5,16.8,9.7,16.7,10C16.8,9.9,16.7,9.9,16.7,10z
		 M17.9,10.6C17.8,10.6,17.8,10.6,17.9,10.6c-0.4-0.4-0.5-1-0.6-1.5c0.2,0.2,0.4,0.5,0.6,0.7c0,0,0.1,0,0.1-0.1c0-0.1,0-0.2,0-0.3
		c0,0,0,0,0,0c0.1,0.3,0.2,0.6,0.3,0.9c-0.2-0.1-0.4-0.1-0.7-0.2C17.8,10.3,17.8,10.4,17.9,10.6z M19.4,10.5
		c-0.1-0.2-0.3-0.4-0.4-0.6c0,0,0.1-0.1,0.1-0.1C19.3,10,19.4,10.2,19.4,10.5C19.5,10.4,19.5,10.5,19.4,10.5z M21,11.1
		c-0.2-0.4-0.4-0.9-0.6-1.3c0,0,0.1,0,0.1,0c0.2,0.4,0.4,0.9,0.6,1.3C21,11,21,11,21,11.1z M23.1,4.7c0.1-0.2,0.3-0.4,0.5-0.6
		c0,0,0.1,0,0.1,0.1c-0.1,0.3-0.2,0.5-0.3,0.8C23.7,5,24,5,24.2,5c0,0,0,0.1,0,0.1c-0.1,0.1-0.2,0.1-0.3,0.2
		c-0.3,0.1-0.3,0.2-0.1,0.5c0,0,0.1,0.1,0.1,0.1c0,0,0,0.1,0.1,0.1C24,5.9,24,6,24,6c-0.2,0-0.4,0-0.5-0.1
		C22.9,5.6,22.8,5.2,23.1,4.7z M24.4,12.1c-0.1,0-0.2,0.1-0.3,0c-0.2-0.1-0.4-0.3-0.7-0.5c-0.2-0.1-0.4-0.2-0.6-0.3
		c-0.1-0.1-0.2-0.1-0.3-0.1c-0.1-0.1-0.2-0.3-0.2-0.4c0,0,0.2-0.1,0.3-0.2c0.2-0.1,0.5-0.1,0.7-0.1c0.4,0,0.7,0.3,0.8,0.7
		c0,0.2,0.1,0.4,0.1,0.6c0.1,0,0.2,0,0.2,0.1C24.5,12,24.5,12.1,24.4,12.1z"/>
	<path fill="#FFFFFF" d="M26.5,17.1c0-0.3-0.3-0.6-0.7-0.6c-0.3,0-0.7,0.1-1,0.2c-0.1,0-0.2,0.1-0.3,0.1c-0.1-0.2-0.2-0.3-0.2-0.5
		c0-0.1-0.1-0.2-0.1-0.3c-0.1-0.5-0.2-0.9-0.4-1.4c-0.3-0.9-0.6-1.8-1.1-2.6c-0.1-0.2-0.3-0.3-0.4-0.5c0,0-0.1,0.1-0.1,0.1
		c0.1,0.5,0.3,1.1,0.4,1.6c-0.3-0.1-0.5-0.3-0.8-0.3c-0.4-0.1-0.8-0.2-1.2-0.3c-0.2-0.1-0.4-0.2-0.6-0.3c0,0,0,0.1-0.1,0.1
		c0.2,0.1,0.3,0.3,0.5,0.4c0.3,0.1,0.6,0.2,0.9,0.4c0.7,0.4,1.3,0.8,1.5,1.6c0,0.1,0,0.2,0,0.3c-0.1,0-0.2,0-0.3-0.1
		c-0.1,0-0.1-0.1-0.1-0.2c-0.6-1.5-2.2-1.9-3.5-1.8c-0.6,0.1-1.2,0.3-1.8,0.6c-0.2,0.1-0.4,0.1-0.6-0.1c0.9-0.5,1.9-1,3-1
		c-1-0.4-1.7-1-2.3-1.9c0,0.6,0.3,1.1,0.6,1.7c-0.1,0-0.1,0.1-0.1,0.1c-0.8,0.3-1.5,0.3-2.3,0.1c-0.5-0.1-1.1-0.3-1.6-0.4
		c-0.6-0.2-1.1-0.4-1.4-1c0,0-0.1-0.1-0.2-0.1c0,0.7,0.5,1,0.8,1.4c-0.7-0.2-1.2-0.8-1.5-1.3c-0.7-1.1-0.4-2.1,0.1-3.2
		c0,0,0,0-0.1,0c-0.1,0.1-0.3,0.2-0.4,0.3c-1.8,1-3.1,2.5-4,4.3c-0.4,0.9-0.6,1.8-0.5,2.8c0,0.4,0.3,0.6,0.6,0.8
		c0.1,0,0.1,0.1,0.2,0.1c0,0,0,0.1,0,0.1H6.4c0,0.2,0,0.5,0,0.7c0,0.6,0,1.3,0,1.9c0,1.4,0.6,2.5,1.6,3.5c0.8,0.9,2,1.3,3,1.7
		c0.3,0.1,0.6,0.2,1,0.3h6.1c0.4-0.1,0.7-0.2,1-0.3c2.7-1,4.4-2.9,5.1-5.7c0-0.1,0-0.1,0.1-0.2c0.3,0.2,0.5,0.3,0.7,0.5h-0.6
		c0.1,0.3,0.2,0.5,0.3,0.7c0.5-0.3,0.5-0.3,0.7-0.3c-0.3,0.3-0.6,0.8-1.1,0.7c-0.1,0-0.2,0-0.2,0.1c-0.1,0.3-0.2,0.5-0.3,0.8
		c0,0,0,0.1,0.1,0.1c0.4-0.2,0.9-0.3,1.3-0.5C26.4,19.6,26.7,18.1,26.5,17.1z M8.3,17.5c0.7,0.4,1.4,0.7,2.3,0.8
		c0.8,0,1.6-0.2,2.3-0.7C11.8,18.8,9.2,18.6,8.3,17.5z M9.6,14.4C9.6,14.4,9.6,14.3,9.6,14.4C9.6,14.3,9.7,14.3,9.6,14.4
		c0.2-0.2,0.3-0.2,0.4-0.3c0.1-0.1,0.3-0.1,0.5-0.2h0.1c0,0,0,0,0,0h0c0,0,0,0,0,0c0,0,0,0,0,0c0,0,0.1,0,0.1,0.1c0,0.1,0,0.2,0,0.3
		c0,0,0,0.1,0,0.2c-0.1,0.3-0.2,0.5-0.3,0.6c0,0-0.1,0.1-0.1,0.1c-0.1,0.1-0.1,0.1-0.2,0.1c-0.1,0-0.1,0-0.2,0.1c0,0-0.1,0-0.1,0
		c-0.1,0-0.2,0-0.3,0c-0.1,0-0.2,0-0.3,0c0-0.2,0.1-0.4,0.1-0.5c0,0,0-0.1,0-0.1c0,0,0-0.1,0.1-0.1c0,0,0,0,0,0v0c0,0,0,0,0,0
		c0,0,0,0,0,0C9.5,14.5,9.5,14.4,9.6,14.4z M11.3,14c0.1,0,0.2,0,0.2,0c0.1,0,0.1,0,0.2,0.1c0,0,0.1,0,0.1,0.1
		c0.1,0,0.1,0.1,0.2,0.1c0,0,0,0,0,0c0.1,0,0.1,0.1,0.2,0.1c0.1,0,0.1,0.1,0.2,0.2c0,0,0,0,0,0c0,0,0.1,0.1,0.1,0.2
		c0,0.1,0.1,0.2,0.1,0.3c0,0.1,0.1,0.2,0,0.3c0,0,0,0,0,0c0,0-0.1,0-0.3,0c-0.8-0.1-1-0.8-1.3-1.4C11.1,13.9,11.2,13.9,11.3,14
		C11.3,13.9,11.3,13.9,11.3,14z M12.7,15.9c0,0.1,0,0.2,0,0.3c0,0.1-0.1,0.2-0.1,0.3c0,0-0.1,0.1-0.1,0.1c0,0-0.1,0.1-0.1,0.1
		C12,17,11.6,17.2,11,17.2c0,0,0,0,0,0c0-0.1,0.1-0.3,0.1-0.4c0.1-0.3,0.3-0.6,0.5-0.8c0,0,0.1-0.1,0.2-0.1c0.1,0,0.1-0.1,0.2-0.1
		c0.1,0,0.2-0.1,0.3-0.1c0.2-0.1,0.3-0.1,0.3-0.1c0,0,0,0,0,0c0,0,0,0,0,0C12.7,15.7,12.7,15.8,12.7,15.9z M9.1,15.8
		c0.2,0,0.4,0,0.6,0.1c0.2,0.1,0.4,0.2,0.5,0.3c0.3,0.3,0.4,0.6,0.4,1c0,0,0,0,0,0C9.9,17.2,9.1,16.6,9.1,15.8
		C9.1,15.8,9.1,15.8,9.1,15.8z M13.6,13.7c-0.2,0-0.3,0-0.5-0.1c-0.6-0.2-1.2-0.5-1.8-0.6c-1.2-0.2-2.9,0.3-3.5,1.7
		c0,0.1-0.1,0.2-0.1,0.2C7.6,15,7.5,15,7.3,15.1c0-0.1,0-0.2,0-0.3c0.2-0.5,0.5-0.9,0.9-1.2c0.8-0.8,1.7-1,2.7-1
		c0.9,0,1.8,0.3,2.6,0.8c0.1,0,0.1,0,0.2,0.1C13.6,13.6,13.6,13.6,13.6,13.7z M19.3,17.3c-0.3,0-0.4,0-0.6-0.1
		c-0.3-0.2-0.6-0.3-0.9-0.5c-0.3-0.2-0.3-0.5-0.3-0.8c0,0,0,0,0,0v0c0,0,0.2-0.1,0.3-0.1c0.2,0,0.3,0.2,0.5,0.2
		c0.1,0.1,0.2,0.2,0.3,0.2c0.1,0.1,0.2,0.2,0.3,0.4c0.1,0.1,0.1,0.2,0.2,0.3C19.1,17,19.2,17.1,19.3,17.3
		C19.3,17.3,19.3,17.3,19.3,17.3z M19.3,17.3c0.2-0.4,0.4-0.8,0.7-1c0.3-0.3,0.7-0.3,1.1-0.5c0,0.1,0,0.1,0,0.2v0c0,0,0,0,0,0
		c0,0.1,0,0.1,0,0.2c0,0,0,0,0,0c0,0.1-0.1,0.2-0.1,0.2c0,0.1-0.1,0.1-0.2,0.2c0,0,0,0,0,0c-0.1,0.1-0.1,0.1-0.2,0.2c0,0,0,0,0,0
		c-0.1,0.1-0.2,0.1-0.2,0.2c0,0,0,0,0,0c-0.1,0-0.2,0.1-0.3,0.1C19.8,17.3,19.5,17.3,19.3,17.3C19.3,17.3,19.3,17.3,19.3,17.3z
		 M19.7,14c0.1,0,0.1,0,0.2,0c0.1,0,0.1,0,0.2,0.1c0.1,0,0.1,0,0.1,0.1c0,0,0,0,0.1,0.1c0,0,0,0,0,0c0,0,0.1,0.1,0.1,0.1
		c0.3,0.3,0.5,0.6,0.7,1c0,0,0,0,0,0c0,0,0,0,0,0c0,0,0,0,0,0c0,0,0,0.1,0,0.1v0c0,0.1-0.1,0.1-0.2,0.1c-0.3-0.1-0.5-0.1-0.8-0.2
		c-0.5-0.3-0.6-0.8-0.8-1.4c0,0,0.1,0,0.2,0C19.6,14,19.7,14,19.7,14z M17.7,14.9c0,0,0-0.1,0-0.1c0,0,0.1-0.1,0.1-0.2
		c0,0,0.1-0.1,0.1-0.1c0,0,0.1-0.1,0.1-0.1c0.1,0,0.1-0.1,0.2-0.1c0,0,0,0,0,0c0,0,0,0,0,0c0.1,0,0.1-0.1,0.2-0.1
		c0.1,0,0.2-0.1,0.3-0.1c0.1,0,0.2,0,0.3-0.1c0,0,0,0,0,0c0,0,0,0,0.1,0v0c-0.1,0.3-0.2,0.6-0.4,0.8c0,0.1-0.1,0.2-0.2,0.2
		c-0.1,0.2-0.3,0.3-0.4,0.4c-0.1,0-0.1,0.1-0.2,0.1c0,0-0.1,0-0.1,0c-0.1,0-0.2,0-0.3,0c-0.1,0-0.1,0-0.2,0c0-0.1,0-0.2,0-0.3
		C17.6,15.1,17.6,15,17.7,14.9L17.7,14.9z M17.5,17.5c0.7,0.5,1.4,0.8,2.3,0.7c0.8-0.1,1.6-0.4,2.3-0.9
		C21.1,18.7,18.2,18.8,17.5,17.5z M25.6,18c-0.1,0.2-0.2,0.4-0.4,0.6v-0.9c-0.3,0.1-0.5,0.3-0.8,0.4c0,0,0,0,0-0.1c0,0,0,0,0-0.1h0
		c0.2-0.2,0.5-0.4,0.7-0.6c0.4-0.3,0.6-0.2,0.7,0.2C25.9,17.8,25.7,17.9,25.6,18z"/>
	<path fill="#FFFFFF" d="M24,24.4h-0.4c0-0.8,0.1-1.5,0.1-2.3c0-0.1,0-0.2,0.1-0.3c0,0,0.1,0,0.1,0c0,0.3,0.1,0.5,0,0.8
		C24,23.2,24,23.8,24,24.4z"/>
	<path fill="#FFFFFF" d="M7.2,7C6.5,7.5,5.8,8.1,5.1,8.6c0,0,0.1,0,0.1,0.1c0,0.1,0,0.3-0.1,0.4C5,9.3,4.8,9.5,4.6,9.7
		C4.5,9.8,4.4,9.9,4.3,9.9c0,0,0,0-0.1-0.1c0-0.1,0-0.2,0.1-0.4c-0.6,0.3-0.8,0.9-1.1,1.4c-0.3,0.5-0.4,1.1-0.6,1.6
		c-0.2-0.1-0.3-0.5-0.2-0.9c0.4-1,1-1.8,1.8-2.6C5.1,8.2,6.2,7.6,7.2,7z"/>
	<path fill="#FFFFFF" d="M6.4,24v0.4H6.3C6.3,24.3,6.3,24.1,6.4,24L6.4,24z"/>
	<path fill="#FFFFFF" d="M24.2,11.9c0.1,0,0.2,0,0.2,0.1c0,0,0,0.2,0,0.2c-0.1,0-0.2,0.1-0.3,0.1c-0.2-0.2-0.4-0.4-0.7-0.5
		c-0.2-0.1-0.4-0.2-0.6-0.3c-0.1,0-0.2-0.1-0.3-0.1c-0.1-0.1-0.2-0.3-0.2-0.4c0,0,0.2-0.2,0.3-0.2c0.2-0.1,0.5-0.1,0.7-0.1
		c0.4,0,0.7,0.3,0.8,0.7C24.2,11.5,24.2,11.7,24.2,11.9z"/>
	<path fill="#FFFFFF" d="M26.3,13.8c0-0.2,0.1-0.3,0.1-0.4c0-0.1,0-0.1-0.1-0.2c-0.1,0-0.2,0.1-0.2,0.1c-0.1,0.1-0.2,0.1-0.2,0.2
		c0-0.1-0.1-0.2-0.1-0.3c0-0.4,0.1-0.8,0.1-1.1c0.2,0.1,0.4,0.2,0.7,0.3c0-0.3,0-0.6,0-0.8C26.9,11.9,26.8,13.4,26.3,13.8z"/>
	<path fill="#FFFFFF" d="M23.7,4.1c-0.1,0.3-0.2,0.5-0.3,0.8C23.7,5,24,5,24.2,5c0,0,0,0.1,0,0.1c-0.1,0.1-0.2,0.1-0.3,0.2
		c-0.3,0.1-0.3,0.2-0.1,0.5C23.9,5.8,24,5.8,24,5.9c0,0,0,0.1,0,0.1c-0.2,0-0.4,0-0.6-0.1c-0.5-0.3-0.6-0.7-0.3-1.2
		C23.3,4.4,23.5,4.2,23.7,4.1C23.7,4.1,23.7,4.1,23.7,4.1z"/>
	<path fill="#FFFFFF" d="M7.3,4.8c0.2,0,0.4-0.1,0.6-0.1c0.4-0.1,0.5-0.2,0.3-0.6C8,3.9,7.9,3.8,7.7,3.6c0.1,0,0.1,0,0.1,0
		c0.8,0.2,0.9,0.3,0.6,1.1C8.4,4.8,8.4,5,8.3,5.2C8.1,5.5,7.9,5.6,7.7,5.3C7.6,5.1,7.4,5,7.3,4.8z"/>
	<path fill="#FFFFFF" d="M4.6,19c-0.6-0.7-0.6-1.8,0-2.1C4.6,17.6,4.6,18.3,4.6,19z"/>
	<path fill="#FFFFFF" d="M17.3,9.1c0.2,0.2,0.4,0.5,0.6,0.7c0,0,0.1,0,0.1-0.1c0-0.1,0-0.2,0-0.3c0,0,0,0,0,0
		c0.1,0.3,0.2,0.6,0.3,0.9c-0.2-0.1-0.4-0.1-0.7-0.2c0.1,0.2,0.1,0.4,0.1,0.5c0,0-0.1,0-0.1,0C17.4,10.1,17.3,9.6,17.3,9.1z"/>
	<path fill="#FFFFFF" d="M16.7,9.3c0,0.1,0.1,0.4,0.1,0.6c0,0-0.1,0-0.1,0c-0.1-0.1-0.2-0.2-0.3-0.3c-0.1,0-0.2,0.1-0.3,0.1
		C16,9.5,16,9.3,15.9,9.1C16.2,9.1,16.4,9.2,16.7,9.3z"/>
	<path fill="#FFFFFF" d="M13.4,7.5c-0.1,0.7-0.1,1.4-0.2,2.2C12.9,9.2,13,8,13.4,7.5z"/>
	<path fill="#FFFFFF" d="M6.1,10.5c0.3-0.4,0.5-0.8,0.8-1.1c0,0,0.1,0.1,0.1,0.1c-0.3,0.4-0.5,0.7-0.8,1.1
		C6.2,10.6,6.1,10.5,6.1,10.5z"/>
	<path fill="#FFFFFF" d="M6.8,11c0.3-0.4,0.5-0.9,0.8-1.3c0,0,0.1,0.1,0.1,0.1C7.5,10.2,7.2,10.6,6.8,11C6.9,11.1,6.8,11,6.8,11z"/>
	<path fill="#FFFFFF" d="M11.6,9.3c0.1-0.6,0.3-1.2,0.4-1.7c0,0,0.1,0,0.1,0c-0.1,0.6-0.3,1.2-0.4,1.7C11.7,9.3,11.6,9.3,11.6,9.3z"
		/>
	<path fill="#FFFFFF" d="M20.4,9.7c0.2,0.4,0.4,0.9,0.6,1.3c0,0-0.1,0-0.1,0.1c-0.2-0.4-0.4-0.9-0.6-1.3C20.4,9.7,20.4,9.7,20.4,9.7
		z"/>
	<path fill="#FFFFFF" d="M4.7,10C5,9.6,5.2,9.2,5.5,8.8c0,0,0.1,0,0.1,0.1C5.3,9.3,5.1,9.7,4.8,10C4.8,10,4.8,10,4.7,10z"/>
	<path fill="#FFFFFF" d="M5.8,9.3c-0.2,0.3-0.5,0.7-0.7,1c0,0-0.1,0-0.1-0.1c0.2-0.3,0.5-0.7,0.7-1C5.7,9.2,5.8,9.2,5.8,9.3z"/>
	<path fill="#FFFFFF" d="M12.9,8.4c0,0.3-0.1,0.6-0.1,0.9c-0.1,0-0.1,0-0.2,0c0-0.3,0.1-0.6,0.1-0.9C12.8,8.4,12.9,8.4,12.9,8.4z"/>
	<path fill="#FFFFFF" d="M11.9,9.2c0.1-0.3,0.2-0.5,0.2-0.8c0,0,0.1,0,0.1,0c-0.1,0.3-0.1,0.5-0.2,0.8C12,9.2,12,9.2,11.9,9.2z"/>
	<path fill="#FFFFFF" d="M5.6,9.8c0.2-0.3,0.5-0.7,0.7-1c0,0,0.1,0,0.1,0.1C6.2,9.2,5.9,9.5,5.6,9.8L5.6,9.8z"/>
	<path fill="#FFFFFF" d="M14.1,8.2c0,0.3-0.1,0.6-0.1,1c0,0-0.1,0-0.1,0C13.9,8.9,13.9,8.5,14.1,8.2C14,8.2,14,8.2,14.1,8.2z"/>
	<path fill="#FFFFFF" d="M14.8,8.6c0,0.2,0,0.4,0,0.6c0,0-0.1,0-0.1,0c0-0.2,0-0.4,0-0.6C14.7,8.6,14.8,8.6,14.8,8.6z"/>
	<path fill="#FFFFFF" d="M19.2,9.8c0.1,0.2,0.2,0.4,0.4,0.6c0,0-0.1,0-0.1,0.1c-0.1-0.2-0.3-0.4-0.4-0.6C19.1,9.9,19.1,9.8,19.2,9.8
		z"/>
	<path fill="#FFFFFF" d="M5.9,10.1c0.1-0.2,0.3-0.4,0.4-0.6c0,0,0.1,0,0.1,0.1C6.3,9.8,6.2,10,6,10.2C6,10.1,5.9,10.1,5.9,10.1z"/>
	<path fill="#FFFFFF" d="M5.6,9.8c0,0.2-0.2,0.6-0.5,0.8C5.3,10.4,5.5,10.1,5.6,9.8C5.6,9.8,5.6,9.8,5.6,9.8z"/>
	<path d="M13.6,13.7c-0.2,0-0.3,0-0.5-0.1c-0.6-0.2-1.2-0.5-1.8-0.6c-1.2-0.2-2.9,0.3-3.5,1.7c0,0.1-0.1,0.2-0.1,0.2
		C7.6,15,7.5,15,7.3,15.1c0-0.1,0-0.2,0-0.3c0.2-0.5,0.5-0.9,0.9-1.2c0.7-0.7,1.6-1,2.7-0.9c0.9,0,1.8,0.3,2.6,0.8
		c0.1,0,0.1,0.1,0.2,0.1C13.6,13.6,13.6,13.6,13.6,13.7z"/>
	<path d="M19.4,14c0.4-0.1,0.8,0.1,1,0.3c0.3,0.3,0.5,0.6,0.7,1c0.1,0.2,0,0.3-0.2,0.3c-0.3-0.1-0.5-0.1-0.8-0.2
		C19.7,15,19.6,14.5,19.4,14z"/>
	<path d="M19.3,17.3c-0.3,0-0.4,0-0.6-0.1c-0.3-0.2-0.6-0.3-0.9-0.5c-0.3-0.2-0.3-0.6-0.3-0.9c0,0,0.2-0.1,0.3-0.1
		c0.2,0,0.4,0.1,0.5,0.2C18.9,16.2,19,16.7,19.3,17.3z"/>
	<path d="M11,17.2c0.2-0.6,0.4-1.2,1-1.4c0.1,0,0.2-0.1,0.3-0.1c0.3-0.2,0.4-0.1,0.4,0.2c0,0.3-0.1,0.6-0.4,0.8
		C12,17,11.6,17.2,11,17.2z"/>
	<path d="M19.3,17.3c0.3-0.4,0.4-0.8,0.7-1.1c0.3-0.2,0.7-0.3,1.1-0.5C21.3,16.4,20.2,17.4,19.3,17.3z"/>
	<path d="M19.2,13.9c-0.2,0.8-0.8,1.6-1.6,1.5C17.6,14.5,18.3,14.1,19.2,13.9z"/>
	<path d="M9.1,15.4c0.1-0.7,0.6-1.4,1.3-1.5c0.3,0,0.2,0.2,0.2,0.3C10.4,15.1,10.1,15.3,9.1,15.4z"/>
	<path d="M11,13.9c0.8,0,1.4,0.4,1.6,1.1c0.1,0.3,0,0.3-0.3,0.3C11.5,15.2,11.3,14.6,11,13.9z"/>
	<path d="M9.1,15.8c0.9,0,1.6,0.6,1.6,1.4C9.9,17.2,9.1,16.6,9.1,15.8z"/>
	<path d="M22.1,17.4c-1,1.3-3.9,1.4-4.6,0.1c0.7,0.5,1.4,0.8,2.3,0.7C20.6,18.2,21.3,17.8,22.1,17.4z"/>
	<path d="M12.8,17.6c-1,1.3-3.7,1-4.6-0.1c0.7,0.4,1.4,0.7,2.3,0.8C11.4,18.3,12.1,18.1,12.8,17.6z"/>
	<path d="M25.2,17.7c-0.3,0.1-0.5,0.3-0.7,0.4c0,0-0.1-0.1-0.1-0.1c0.2-0.2,0.5-0.4,0.7-0.6c0.4-0.3,0.5-0.2,0.7,0.2
		c0.1,0.3-0.1,0.3-0.2,0.4c-0.1,0.2-0.2,0.4-0.4,0.6C25.2,18.3,25.2,18,25.2,17.7z"/>
	<ellipse cx="10.9" cy="15.5" rx="1.8" ry="1.7"/>
	<ellipse cx="19.3" cy="15.6" rx="1.8" ry="1.7"/>
</g>
</svg>
