<?xml version="1.0" encoding="utf-8"?>
<!-- Generator: Adobe Illustrator 19.0.0, SVG Export Plug-In . SVG Version: 6.00 Build 0)  -->
<svg version="1.2" baseProfile="tiny" id="Layer_1" xmlns="http://www.w3.org/2000/svg" xmlns:xlink="http://www.w3.org/1999/xlink"
	 x="0px" y="0px" viewBox="0 0 122 24.4" xml:space="preserve">
<g display="none">
	<path display="inline" d="M41.1,6.1h6.6c1.6,0,2.9,0.2,4,0.7c1.1,0.5,1.9,1.2,2.5,2.1c0.5,0.9,0.8,1.9,0.8,3c0,1.1-0.3,2.1-0.9,3
		c-0.6,0.9-1.4,1.6-2.6,2.2c-1.2,0.5-2.6,0.8-4.3,0.8h-6.1V6.1z M47.1,14.9c1.1,0,1.9-0.3,2.5-0.8c0.6-0.5,0.9-1.3,0.9-2.2
		c0-0.9-0.3-1.5-0.8-2c-0.5-0.5-1.3-0.8-2.3-0.8h-2.1v5.8H47.1z"/>
	<path display="inline" d="M65.3,17.9c-0.9-0.2-1.7-0.6-2.5-1v-2.8c0.6,0.4,1.3,0.8,2.2,1.1c0.9,0.3,1.8,0.4,2.7,0.4
		c0.4,0,0.7,0,0.9-0.2c0.2-0.1,0.3-0.2,0.3-0.4c0-0.2-0.1-0.3-0.2-0.4c-0.1-0.1-0.3-0.2-0.7-0.3l-2-0.4c-1.2-0.3-2-0.7-2.5-1.1
		c-0.5-0.5-0.7-1.1-0.7-1.9c0-0.7,0.2-1.2,0.6-1.7c0.4-0.5,1-0.9,1.8-1.1c0.8-0.3,1.7-0.4,2.8-0.4c0.9,0,1.8,0.1,2.6,0.3
		c0.8,0.2,1.4,0.5,2,0.8v2.7c-0.5-0.3-1.1-0.6-1.8-0.7c-0.7-0.2-1.4-0.3-2.1-0.3c-1.1,0-1.6,0.2-1.6,0.5c0,0.2,0.1,0.3,0.2,0.4
		c0.2,0.1,0.5,0.2,0.9,0.3l1.7,0.3c1.1,0.2,1.9,0.5,2.5,1c0.5,0.5,0.8,1.2,0.8,2.1c0,1-0.4,1.8-1.3,2.4c-0.9,0.6-2.2,0.9-3.8,0.9
		C67.1,18.3,66.2,18.2,65.3,17.9z"/>
	<path display="inline" d="M77.4,17.6c-1-0.5-1.7-1.1-2.2-1.9c-0.5-0.8-0.7-1.7-0.7-2.7c0-1,0.2-1.9,0.8-2.7
		c0.5-0.8,1.3-1.4,2.2-1.9c1-0.4,2.2-0.7,3.5-0.7c1.7,0,3.1,0.4,4.2,1.1v3.1c-0.4-0.3-0.9-0.5-1.4-0.7c-0.5-0.2-1.1-0.2-1.7-0.2
		c-1.1,0-1.9,0.2-2.5,0.6c-0.6,0.4-0.9,0.9-0.9,1.5c0,0.6,0.3,1.1,0.9,1.5c0.6,0.4,1.4,0.6,2.5,0.6c0.6,0,1.1-0.1,1.7-0.2
		c0.5-0.2,1-0.4,1.4-0.6v3c-1.2,0.7-2.7,1.1-4.3,1.1C79.6,18.3,78.4,18,77.4,17.6z"/>
	<path display="inline" d="M89.6,17.6c-1-0.5-1.7-1.1-2.2-1.9c-0.5-0.8-0.8-1.7-0.8-2.8c0-1,0.3-1.9,0.8-2.7
		c0.5-0.8,1.3-1.4,2.2-1.9c1-0.4,2.1-0.7,3.5-0.7c1.3,0,2.5,0.2,3.5,0.7c1,0.4,1.7,1.1,2.2,1.9c0.5,0.8,0.8,1.7,0.8,2.7
		c0,1-0.2,1.9-0.8,2.8c-0.5,0.8-1.2,1.5-2.2,1.9c-1,0.5-2.1,0.7-3.5,0.7C91.8,18.3,90.6,18,89.6,17.6z M94.8,14.6
		c0.4-0.4,0.6-1,0.6-1.6c0-0.7-0.2-1.2-0.6-1.6c-0.4-0.4-1-0.6-1.7-0.6c-0.7,0-1.3,0.2-1.7,0.6c-0.4,0.4-0.6,0.9-0.6,1.6
		c0,0.7,0.2,1.2,0.6,1.6c0.4,0.4,1,0.6,1.7,0.6C93.8,15.2,94.4,15,94.8,14.6z"/>
	<path display="inline" d="M109.9,8.3v3.6c-0.4-0.3-1-0.4-1.7-0.4c-0.9,0-1.6,0.3-2.1,0.8c-0.5,0.5-0.7,1.4-0.7,2.5v3.1h-4.1V8.1
		h4.1v3.1c0.2-1.1,0.6-2,1.1-2.5c0.5-0.5,1.1-0.8,1.9-0.8C108.9,7.8,109.4,8,109.9,8.3z"/>
	<path display="inline" d="M123.8,5.8V18h-4.1v-2.2c-0.4,0.8-0.9,1.5-1.6,1.9c-0.7,0.4-1.6,0.7-2.7,0.7c-0.9,0-1.8-0.2-2.4-0.7
		c-0.7-0.4-1.2-1.1-1.6-1.9c-0.4-0.8-0.6-1.7-0.6-2.7c0-1,0.2-2,0.6-2.8c0.4-0.8,1-1.5,1.7-1.9c0.7-0.5,1.6-0.7,2.6-0.7
		c2,0,3.3,0.9,4,2.6V5.8H123.8z M119.1,14.5c0.4-0.4,0.6-0.9,0.6-1.6c0-0.6-0.2-1.1-0.6-1.5c-0.4-0.4-1-0.6-1.7-0.6
		c-0.7,0-1.3,0.2-1.7,0.6c-0.4,0.4-0.6,0.9-0.6,1.6c0,0.7,0.2,1.2,0.6,1.6c0.4,0.4,1,0.6,1.7,0.6C118.1,15.1,118.7,14.9,119.1,14.5z
		"/>
	<path display="inline" d="M58.8,8.7C60,8.7,61,7.8,61,6.7c0-1.1-1-1.9-2.2-1.9c-1.2,0-2.2,0.9-2.2,1.9C56.7,7.8,57.6,8.7,58.8,8.7z
		"/>
	<path display="inline" d="M61,10c-1.3,0.6-3,0.6-4.3,0v8H61V10z"/>
</g>
<rect y="0.2" display="none" fill="#6565C4" width="122" height="24.4"/>
<g>
	<path fill="#FFFFFF" d="M40.2,11.1h-3.6l-3.1,4.3v-4.3h-2.9v11.5h2.9v-4l0.1-0.1l2.9,4.1h3.7l-4.5-5.9L40.2,11.1z"/>
	<path fill="#FFFFFF" d="M44.7,11c-2.4,0-4.8,1.3-4.8,3.9v3.9c0,2.6,2.4,3.9,4.8,3.9s4.8-1.3,4.8-3.9v-3.9
		C49.5,12.3,47.1,11,44.7,11z M46.6,18.8c0,0.8-0.9,1.3-1.8,1.3c-0.9,0-1.9-0.4-1.9-1.3v-3.9c0-0.8,0.9-1.3,1.8-1.3
		c0.9,0,1.9,0.4,1.9,1.3V18.8z"/>
	<path fill="#FFFFFF" d="M58.7,11.1l-2.4,5.6l-2.4-5.6H51v11.5h2.9v-3.3L53.7,17l0.1,0l1.5,3.9h2l1.5-3.9l0.1,0l-0.2,2.3l0,3.3h2.9
		V11.1H58.7z"/>
	<path fill="#FFFFFF" d="M63.5,11.1v11.5h2.9V11.1H63.5z"/>
	<path fill="#FFFFFF" d="M74,19c-0.6,1.6-3.2,1.2-3.2-0.2v-4c0-1.4,2.6-1.8,3.3-0.3l2.4-1c-0.9-2-2.6-2.6-4-2.6
		c-2.3,0-4.6,1.3-4.6,3.9v4c0,2.6,2.3,3.9,4.5,3.9c1.5,0,3.2-0.7,4.1-2.6L74,19z"/>
	<path fill="#FFFFFF" d="M83.2,11.1h-2.6l-4,11.5h3.1l0.7-2.3h3.1l0.7,2.3h3.1L83.2,11.1z M81,17.7l0.8-3.4h0.1l0.8,3.4H81z"/>
	<path fill="#FFFFFF" d="M86.1,11.1v2.8h3v8.7h2.9v-8.7h3v-2.8H86.1z"/>
	<path fill="#FFFFFF" d="M96.3,11.1v11.5h2.9V11.1H96.3z"/>
	<path fill="#FFFFFF" d="M105.5,11c-2.4,0-4.8,1.3-4.8,3.9v3.9c0,2.6,2.4,3.9,4.8,3.9c2.4,0,4.7-1.3,4.7-3.9v-3.9
		C110.3,12.3,107.9,11,105.5,11z M107.4,18.8c0,0.8-0.9,1.3-1.8,1.3c-0.9,0-1.9-0.4-1.9-1.3v-3.9c0-0.8,0.9-1.3,1.8-1.3
		c0.9,0,1.9,0.4,1.9,1.3V18.8z"/>
	<path fill="#FFFFFF" d="M118.1,11.1v5.2c0,0,0.3,2,0.3,2l-0.1,0l-1-2.3l-2.8-4.9h-2.8v11.5h2.9V18l-0.4-2.2l0.1,0l1,2.3l2.6,4.5
		h2.9V11.1H118.1z"/>
</g>
<g>
	<path fill="#FFFFFF" d="M25.2,16.3c-0.3,0-0.6,0-0.9,0c0,0,0,0,0-0.1c0.2-0.1,0.4-0.1,0.6-0.2c0.2-0.3,0.5-0.7,0.7-1.1
		c0.5-0.8,0.9-1.7,0.9-2.6c0-0.3,0-0.7-0.1-1c-0.1-0.4-0.3-0.7-0.6-0.9c-0.5-0.3-1.1-0.5-1.6-0.8C24,9.6,23.8,9.3,24,9.2
		c0.2-0.3,0.2-0.6,0.2-1c0-0.2,0-0.5,0.1-0.7c0.4-1.5,0.9-3,1-4.5c0.1-0.6,0-1.1,0-1.7c0-0.4-0.3-0.5-0.6-0.4
		c-0.6,0.1-1.3,0.3-1.8,0.5c-1.5,0.7-2.7,1.7-3.8,2.9c-0.2,0.2-0.3,0.2-0.5,0.2c-2.4-0.4-4.7-0.4-7.1,0.2c-0.6-1.6-1.7-2.9-2.9-4
		C8.3,0.3,8,0.1,7.7,0.1C7.5,0,7.4,0,7.3,0C6.7,0,6.2,0.4,5.9,1C5.6,1.6,5.4,2.3,5.3,2.9C5,4.4,4.9,5.8,4.9,7.2c0,0.1,0,0.3-0.2,0.3
		c-1.2,0.7-2.1,1.7-2.9,2.8c-0.4,0.6-0.7,1.2-0.7,1.9c0,0.1,0,0.2,0,0.4c0,0.3,0.1,0.6,0.4,0.8c0.5,0.4,0.8,0.8,0.9,1.4
		c0.1,0.5,0.3,0.9,0.8,1.2c-0.2-0.4-0.3-0.7-0.5-1c0.4,0.2,0.8,0.4,1.2,0.7c0.2,0.1,0.1,0.7-0.1,0.9c-0.2,0.2-0.4,0.5-0.6,0.7
		C3,18,3.2,18.6,3.7,19.2c0.2,0.2,0.3,0.5,0.3,0.8c0,0.3,0,0.6,0,1c0,0.3,0,0.6,0,0.9c0,0.3,0,0.7,0,1c0.3,0.6,0.7,1.1,1.4,1.6h0.4
		c0-0.2,0-0.3,0-0.4h0.1v0.4h5.5c-0.3-0.1-0.6-0.2-1-0.3c-1.1-0.5-2.2-0.9-3-1.7c-1-0.9-1.5-2.1-1.6-3.5c0-0.7,0-1.3,0-1.9
		c0-0.2,0-0.4,0-0.7h1.1c0,0,0-0.1,0-0.1c-0.1,0-0.1-0.1-0.2-0.1C6.2,15.9,6,15.6,6,15.3c-0.1-1,0-1.9,0.5-2.8
		c0.9-1.8,2.2-3.3,4-4.3c0.2-0.1,0.3-0.2,0.4-0.3c0,0,0,0,0.1,0c-0.5,1.1-0.8,2.1-0.1,3.2c0.4,0.6,0.8,1.1,1.5,1.3
		c-0.4-0.4-0.8-0.7-0.8-1.4c0.1,0.1,0.1,0.1,0.2,0.1c0.3,0.5,0.9,0.8,1.4,1c0.5,0.2,1,0.3,1.6,0.4c0.8,0.1,1.6,0.1,2.3-0.1
		c0,0,0.1,0,0.1-0.1c-0.3-0.5-0.6-1.1-0.6-1.7c0.5,0.9,1.3,1.5,2.3,1.9c-1.1,0-2,0.5-3,1c0.2,0.2,0.4,0.2,0.6,0.1
		c0.6-0.3,1.2-0.5,1.8-0.6c1.3-0.1,2.9,0.3,3.5,1.8c0,0.1,0.1,0.2,0.1,0.2c0.1,0,0.2,0.1,0.3,0.1c0-0.1,0-0.2,0-0.3
		c-0.3-0.8-0.9-1.3-1.5-1.6c-0.3-0.2-0.6-0.3-0.9-0.4c-0.2-0.1-0.4-0.3-0.5-0.4c0,0,0-0.1,0.1-0.1c0.2,0.1,0.4,0.3,0.6,0.3
		c0.4,0.1,0.8,0.2,1.2,0.3c0.3,0.1,0.5,0.2,0.8,0.3c-0.1-0.5-0.3-1-0.4-1.6c0,0,0.1,0,0.1-0.1c0.1,0.2,0.3,0.3,0.4,0.5
		c0.6,0.8,0.8,1.7,1.1,2.6c0.2,0.4,0.2,0.9,0.4,1.4c0,0.1,0.1,0.2,0.1,0.3c0.1,0.2,0.1,0.3,0.2,0.5c0,0,0.2-0.1,0.3-0.1
		c0.3-0.1,0.7-0.2,1-0.2c0.4,0,0.6,0.3,0.7,0.6c0.1,1-0.1,2.5-1.4,3.2c-0.4,0.2-0.9,0.3-1.3,0.5c0,0,0-0.1-0.1-0.1
		c0.1-0.3,0.2-0.5,0.3-0.8c0,0,0.1-0.1,0.2-0.1c0.6,0.1,0.8-0.4,1.1-0.7c-0.1,0-0.2,0-0.7,0.3c-0.1-0.2-0.2-0.5-0.3-0.7h0.6
		c-0.3-0.2-0.5-0.3-0.7-0.5c0,0,0,0.1-0.1,0.2c-0.7,2.9-2.4,4.8-5.1,5.7c-0.3,0.1-0.7,0.2-1,0.3H23c0-0.8,0.1-1.5,0.1-2.3
		c0-0.1,0-0.2,0.1-0.3c0,0,0.1,0,0.1,0c0,0.3,0.1,0.5,0,0.8c0,0.6,0,1.2,0.1,1.8h0.3c0-1,0-2,0-3c0-0.3,0.2-0.5,0.5-0.7
		c1.8-1,2-2,2-3.5C26.1,16.7,25.7,16.3,25.2,16.3z M25.1,12.1c0.2,0.1,0.4,0.2,0.7,0.3v-0.8c0.4,0.4,0.3,1.9-0.2,2.3
		c0-0.2,0.1-0.3,0.1-0.4c0-0.1,0-0.2-0.1-0.2c-0.1,0-0.2,0-0.2,0.1c-0.1,0-0.2,0.1-0.2,0.2c0-0.1-0.1-0.2-0.1-0.3
		C25.1,12.8,25.1,12.4,25.1,12.1z M3.9,9.7C3.8,9.8,3.7,9.9,3.6,9.9c0,0,0,0-0.1-0.1c0-0.1,0.1-0.2,0.1-0.4
		c-0.6,0.3-0.8,0.9-1.1,1.4c-0.3,0.5-0.4,1.1-0.6,1.6c-0.2-0.1-0.3-0.5-0.2-0.9c0.4-1,1-1.8,1.8-2.5c0.9-0.8,1.9-1.4,3-2
		C5.8,7.5,5.1,8.1,4.4,8.6c0,0,0.1,0,0.1,0.1c0,0.1,0,0.3-0.1,0.4C4.3,9.3,4.1,9.5,3.9,9.7z M5,9.7c0.2-0.3,0.4-0.6,0.6-0.9
		c0,0,0.1,0,0.1,0.1C5.5,9.2,5.3,9.5,5,9.7z M5.8,9.6C5.6,9.8,5.5,10,5.3,10.2c0,0-0.1-0.1-0.1-0.1C5.4,9.9,5.5,9.7,5.8,9.6
		C5.7,9.5,5.7,9.5,5.8,9.6z M5,9.9C5,9.9,5,9.9,5,9.9C5,9.9,5,10,5,10c0,0,0,0,0,0c0,0.1,0,0.1-0.1,0.2c0,0,0,0.1-0.1,0.1
		c0,0,0,0,0,0c0,0,0,0,0,0.1c-0.1,0.1-0.1,0.1-0.2,0.2C4.7,10.4,4.8,10.1,5,9.9z M5,9.8L5,9.8C5,9.8,5,9.8,5,9.8C5,9.8,5,9.8,5,9.8z
		 M4.4,10.2C4.4,10.2,4.3,10.2,4.4,10.2C4.5,9.8,4.8,9.5,5,9.2c0.1,0,0.1,0.1,0.1,0.1L4.4,10.2z M4.2,10c0,0-0.1,0-0.1-0.1
		c0.3-0.4,0.5-0.8,0.8-1.1c0,0,0.1,0,0.1,0.1C4.6,9.3,4.4,9.7,4.2,10z M3.7,18.7c-0.1-0.2-0.2-0.4-0.2-0.6c0,0,0-0.1,0-0.1
		c0-0.3,0-0.5,0.1-0.7c0-0.1,0.1-0.2,0.2-0.2c0.1-0.1,0.1-0.1,0.2-0.2V19C3.8,18.9,3.8,18.8,3.7,18.7z M5.5,10.6
		c0,0-0.1-0.1-0.1-0.1c0.3-0.4,0.5-0.8,0.8-1.1c0,0,0.1,0.1,0.1,0.1C6.1,9.9,5.8,10.2,5.5,10.6z M6.4,10.7c-0.1,0.1-0.2,0.2-0.2,0.3
		c0,0,0,0-0.1,0c0.3-0.4,0.5-0.9,0.8-1.3c0,0,0.1,0,0.1,0.1C6.9,10.1,6.7,10.4,6.4,10.7z M7.9,4.3c0,0.1,0,0.2-0.1,0.3
		C7.7,4.8,7.7,5,7.6,5.2C7.5,5.5,7.2,5.6,7,5.3C6.9,5.1,6.8,5,6.6,4.8C6.8,4.8,7,4.7,7.2,4.7c0.4-0.1,0.5-0.2,0.3-0.6
		C7.3,3.9,7.2,3.8,7,3.6c0.1,0,0.1,0,0.1,0c0.1,0,0.3,0.1,0.4,0.1c0,0,0.1,0,0.1,0c0.1,0,0.2,0.1,0.2,0.2C7.9,4,7.9,4.1,7.9,4.3z
		 M10.9,9.3c0.1-0.6,0.3-1.2,0.4-1.7c0,0,0.1,0,0.1,0c-0.1,0.6-0.3,1.2-0.4,1.7C11,9.3,10.9,9.3,10.9,9.3z M11.4,9.3
		c0,0-0.1,0-0.2,0c0.1-0.3,0.2-0.5,0.2-0.8c0,0,0.1,0,0.1,0C11.6,8.7,11.5,9,11.4,9.3z M12.1,9.2c-0.1,0-0.1,0-0.2,0
		c0-0.3,0.1-0.6,0.1-0.9v0c0.1,0,0.1,0,0.2,0C12.2,8.7,12.2,9,12.1,9.2z M12.5,9.7c-0.3-0.5-0.2-1.7,0.2-2.2
		C12.6,8.3,12.6,9,12.5,9.7z M13.3,9.2L13.3,9.2c-0.1,0-0.1,0-0.1,0c0.1-0.3,0.1-0.6,0.2-1c0,0,0.1,0,0.1,0
		C13.3,8.6,13.3,8.9,13.3,9.2z M14.1,9.2c0,0-0.1,0-0.1,0c0-0.2,0-0.4,0-0.6c0,0,0.1,0,0.1,0C14.2,8.8,14.2,9,14.1,9.2z M16,10
		c-0.1-0.1-0.2-0.2-0.3-0.3c-0.1,0-0.1,0.1-0.3,0.1c-0.1-0.2-0.1-0.5-0.2-0.7c0.3,0.1,0.5,0.2,0.8,0.3C16.1,9.5,16.1,9.7,16,10
		C16.1,9.9,16.1,9.9,16,10z M17.2,10.6C17.2,10.6,17.1,10.6,17.2,10.6c-0.4-0.4-0.5-1-0.6-1.5c0.2,0.2,0.4,0.5,0.6,0.7
		c0,0,0.1,0,0.1-0.1c0-0.1,0-0.2,0-0.3c0,0,0,0,0,0c0.1,0.3,0.2,0.6,0.3,0.9c-0.2-0.1-0.4-0.1-0.7-0.2
		C17.1,10.3,17.1,10.4,17.2,10.6z M18.8,10.5c-0.1-0.2-0.3-0.4-0.4-0.6c0,0,0.1-0.1,0.1-0.1C18.6,10,18.7,10.2,18.8,10.5
		C18.8,10.4,18.8,10.5,18.8,10.5z M20.3,11.1c-0.2-0.4-0.4-0.9-0.6-1.3c0,0,0.1,0,0.1,0c0.2,0.4,0.4,0.9,0.6,1.3
		C20.4,11,20.3,11,20.3,11.1z M22.5,4.7C22.6,4.4,22.8,4.2,23,4c0,0,0.1,0,0.1,0.1c-0.1,0.3-0.2,0.5-0.3,0.8c0.3,0,0.5,0,0.8,0.1
		c0,0,0,0.1,0,0.1c-0.1,0.1-0.2,0.1-0.3,0.2C23,5.4,23,5.5,23.2,5.7c0,0,0.1,0.1,0.1,0.1c0,0,0,0.1,0.1,0.1c0,0,0,0.1-0.1,0.1
		c-0.2,0-0.4,0-0.5-0.1C22.3,5.6,22.2,5.2,22.5,4.7z M23.8,12.1c-0.1,0-0.2,0.1-0.3,0c-0.2-0.1-0.4-0.3-0.7-0.5
		c-0.2-0.1-0.4-0.2-0.6-0.3c-0.1-0.1-0.2-0.1-0.3-0.1c-0.1-0.1-0.2-0.3-0.2-0.4c0,0,0.2-0.1,0.3-0.2c0.2-0.1,0.5-0.1,0.7-0.1
		c0.4,0,0.7,0.3,0.8,0.7c0,0.2,0.1,0.4,0.1,0.6c0.1,0,0.2,0,0.2,0.1C23.8,12,23.8,12.1,23.8,12.1z"/>
	<path display="none" fill="#FFFFFF" d="M25.9,17.1c0-0.3-0.3-0.6-0.7-0.6c-0.3,0-0.7,0.1-1,0.2c-0.1,0-0.2,0.1-0.3,0.1
		c-0.1-0.2-0.2-0.3-0.2-0.5c0-0.1-0.1-0.2-0.1-0.3c-0.1-0.5-0.2-0.9-0.4-1.4c-0.3-0.9-0.6-1.8-1.1-2.6c-0.1-0.2-0.3-0.3-0.4-0.5
		c0,0-0.1,0.1-0.1,0.1c0.1,0.5,0.3,1.1,0.4,1.6c-0.3-0.1-0.5-0.3-0.8-0.3c-0.4-0.1-0.8-0.2-1.2-0.3c-0.2-0.1-0.4-0.2-0.6-0.3
		c0,0,0,0.1-0.1,0.1c0.2,0.1,0.3,0.3,0.5,0.4c0.3,0.1,0.6,0.2,0.9,0.4c0.7,0.4,1.3,0.8,1.5,1.6c0,0.1,0,0.2,0,0.3
		c-0.1,0-0.2,0-0.3-0.1c-0.1,0-0.1-0.1-0.1-0.2c-0.6-1.5-2.2-1.9-3.5-1.8c-0.6,0.1-1.2,0.3-1.8,0.6c-0.2,0.1-0.4,0.1-0.6-0.1
		c0.9-0.5,1.9-1,3-1c-1-0.4-1.7-1-2.3-1.9c0,0.6,0.3,1.1,0.6,1.7c-0.1,0-0.1,0.1-0.1,0.1c-0.8,0.3-1.5,0.3-2.3,0.1
		c-0.5-0.1-1.1-0.3-1.6-0.4c-0.6-0.2-1.1-0.4-1.4-1c0,0-0.1-0.1-0.2-0.1c0,0.7,0.5,1,0.8,1.4c-0.7-0.2-1.2-0.8-1.5-1.3
		C10.1,10,10.5,8.9,11,7.9c0,0,0,0-0.1,0c-0.1,0.1-0.3,0.2-0.4,0.3c-1.8,1-3.1,2.5-4,4.3C6,13.3,5.8,14.3,6,15.3
		c0,0.4,0.3,0.6,0.6,0.8c0.1,0,0.1,0.1,0.2,0.1c0,0,0,0.1,0,0.1H5.7c0,0.2,0,0.5,0,0.7c0,0.6,0,1.3,0,1.9c0,1.4,0.6,2.5,1.6,3.5
		c0.8,0.9,2,1.3,3,1.7c0.3,0.1,0.6,0.2,1,0.3h6.1c0.4-0.1,0.7-0.2,1-0.3c2.7-1,4.4-2.9,5.1-5.7c0-0.1,0-0.1,0.1-0.2
		c0.3,0.2,0.5,0.3,0.7,0.5h-0.6c0.1,0.3,0.2,0.5,0.3,0.7c0.5-0.3,0.5-0.3,0.7-0.3c-0.3,0.3-0.6,0.8-1.1,0.7c-0.1,0-0.2,0-0.2,0.1
		c-0.1,0.3-0.2,0.5-0.3,0.8c0,0,0,0.1,0.1,0.1c0.4-0.2,0.9-0.3,1.3-0.5C25.8,19.6,26,18.1,25.9,17.1z M7.6,17.5
		c0.7,0.4,1.4,0.7,2.3,0.8c0.8,0,1.6-0.2,2.3-0.7C11.1,18.8,8.5,18.6,7.6,17.5z M8.9,14.4C8.9,14.4,8.9,14.3,8.9,14.4
		C9,14.3,9,14.3,8.9,14.4c0.2-0.2,0.3-0.2,0.4-0.3c0.1-0.1,0.3-0.1,0.5-0.2h0.1c0,0,0,0,0,0h0c0,0,0,0,0,0c0,0,0,0,0,0
		c0,0,0.1,0,0.1,0.1c0,0.1,0,0.2,0,0.3c0,0,0,0.1,0,0.2c-0.1,0.3-0.2,0.5-0.3,0.6c0,0-0.1,0.1-0.1,0.1c-0.1,0.1-0.1,0.1-0.2,0.1
		c-0.1,0-0.1,0-0.2,0.1c0,0-0.1,0-0.1,0c-0.1,0-0.2,0-0.3,0c-0.1,0-0.2,0-0.3,0c0-0.2,0.1-0.4,0.1-0.5c0,0,0-0.1,0-0.1
		c0,0,0-0.1,0.1-0.1c0,0,0,0,0,0v0c0,0,0,0,0,0c0,0,0,0,0,0C8.8,14.5,8.9,14.4,8.9,14.4z M10.6,14c0.1,0,0.2,0,0.2,0
		c0.1,0,0.1,0,0.2,0.1c0,0,0.1,0,0.1,0.1c0.1,0,0.1,0.1,0.2,0.1c0,0,0,0,0,0c0.1,0,0.1,0.1,0.2,0.1c0.1,0,0.1,0.1,0.2,0.2
		c0,0,0,0,0,0c0,0,0.1,0.1,0.1,0.2c0,0.1,0.1,0.2,0.1,0.3c0,0.1,0.1,0.2,0,0.3c0,0,0,0,0,0c0,0-0.1,0-0.3,0c-0.8-0.1-1-0.8-1.3-1.4
		C10.4,13.9,10.5,13.9,10.6,14C10.6,13.9,10.6,13.9,10.6,14z M12,15.9c0,0.1,0,0.2,0,0.3c0,0.1-0.1,0.2-0.1,0.3c0,0-0.1,0.1-0.1,0.1
		c0,0-0.1,0.1-0.1,0.1c-0.3,0.3-0.8,0.5-1.3,0.5c0,0,0,0,0,0c0-0.1,0.1-0.3,0.1-0.4c0.1-0.3,0.3-0.6,0.5-0.8c0,0,0.1-0.1,0.2-0.1
		c0.1,0,0.1-0.1,0.2-0.1c0.1,0,0.2-0.1,0.3-0.1c0.2-0.1,0.3-0.1,0.3-0.1c0,0,0,0,0,0c0,0,0,0,0,0C12,15.7,12,15.8,12,15.9z
		 M8.4,15.8c0.2,0,0.4,0,0.6,0.1c0.2,0.1,0.4,0.2,0.5,0.3c0.3,0.3,0.4,0.6,0.4,1c0,0,0,0,0,0C9.2,17.2,8.5,16.6,8.4,15.8
		C8.4,15.8,8.4,15.8,8.4,15.8z M12.9,13.7c-0.2,0-0.3,0-0.5-0.1c-0.6-0.2-1.2-0.5-1.8-0.6c-1.2-0.2-2.9,0.3-3.5,1.7
		c0,0.1-0.1,0.2-0.1,0.2C6.9,15,6.8,15,6.7,15.1c0-0.1,0-0.2,0-0.3c0.2-0.5,0.5-0.9,0.9-1.2c0.8-0.8,1.7-1,2.7-1
		c0.9,0,1.8,0.3,2.6,0.8c0.1,0,0.1,0,0.2,0.1C13,13.6,12.9,13.6,12.9,13.7z M18.6,17.3c-0.3,0-0.4,0-0.6-0.1
		c-0.3-0.2-0.6-0.3-0.9-0.5c-0.3-0.2-0.3-0.5-0.3-0.8c0,0,0,0,0,0v0c0,0,0.2-0.1,0.3-0.1c0.2,0,0.3,0.2,0.5,0.2
		c0.1,0.1,0.2,0.2,0.3,0.2c0.1,0.1,0.2,0.2,0.3,0.4c0.1,0.1,0.1,0.2,0.2,0.3C18.5,17,18.5,17.1,18.6,17.3
		C18.6,17.3,18.6,17.3,18.6,17.3z M18.6,17.3c0.2-0.4,0.4-0.8,0.7-1c0.3-0.3,0.7-0.3,1.1-0.5c0,0.1,0,0.1,0,0.2v0c0,0,0,0,0,0
		c0,0.1,0,0.1,0,0.2c0,0,0,0,0,0c0,0.1-0.1,0.2-0.1,0.2c0,0.1-0.1,0.1-0.2,0.2c0,0,0,0,0,0c-0.1,0.1-0.1,0.1-0.2,0.2c0,0,0,0,0,0
		c-0.1,0.1-0.2,0.1-0.2,0.2c0,0,0,0,0,0c-0.1,0-0.2,0.1-0.3,0.1C19.1,17.3,18.9,17.3,18.6,17.3C18.6,17.3,18.6,17.3,18.6,17.3z
		 M19.1,14c0.1,0,0.1,0,0.2,0c0.1,0,0.1,0,0.2,0.1c0.1,0,0.1,0,0.1,0.1c0,0,0,0,0.1,0.1c0,0,0,0,0,0c0,0,0.1,0.1,0.1,0.1
		c0.3,0.3,0.5,0.6,0.7,1c0,0,0,0,0,0c0,0,0,0,0,0c0,0,0,0,0,0c0,0,0,0.1,0,0.1v0c0,0.1-0.1,0.1-0.2,0.1c-0.3-0.1-0.5-0.1-0.8-0.2
		C19,15,18.9,14.5,18.8,14c0,0,0.1,0,0.2,0C19,14,19,14,19.1,14z M17,14.9c0,0,0-0.1,0-0.1c0,0,0.1-0.1,0.1-0.2c0,0,0.1-0.1,0.1-0.1
		c0,0,0.1-0.1,0.1-0.1c0.1,0,0.1-0.1,0.2-0.1c0,0,0,0,0,0c0,0,0,0,0,0c0.1,0,0.1-0.1,0.2-0.1c0.1,0,0.2-0.1,0.3-0.1
		c0.1,0,0.2,0,0.3-0.1c0,0,0,0,0,0c0,0,0,0,0.1,0v0c-0.1,0.3-0.2,0.6-0.4,0.8c0,0.1-0.1,0.2-0.2,0.2c-0.1,0.2-0.3,0.3-0.4,0.4
		c-0.1,0-0.1,0.1-0.2,0.1c0,0-0.1,0-0.1,0c-0.1,0-0.2,0-0.3,0c-0.1,0-0.1,0-0.2,0c0-0.1,0-0.2,0-0.3C17,15.1,17,15,17,14.9L17,14.9z
		 M16.8,17.5c0.7,0.5,1.4,0.8,2.3,0.7c0.8-0.1,1.6-0.4,2.3-0.9C20.4,18.7,17.5,18.8,16.8,17.5z M25,18c-0.1,0.2-0.2,0.4-0.4,0.6
		v-0.9c-0.3,0.1-0.5,0.3-0.8,0.4c0,0,0,0,0-0.1c0,0,0,0,0-0.1h0c0.2-0.2,0.5-0.4,0.7-0.6c0.4-0.3,0.6-0.2,0.7,0.2
		C25.3,17.8,25.1,17.9,25,18z"/>
	<path display="none" fill="#FFFFFF" d="M23.4,24.4H23c0-0.8,0.1-1.5,0.1-2.3c0-0.1,0-0.2,0.1-0.3c0,0,0.1,0,0.1,0
		c0,0.3,0.1,0.5,0,0.8C23.3,23.2,23.3,23.8,23.4,24.4z"/>
	<path display="none" fill="#FFFFFF" d="M6.6,7C5.9,7.5,5.1,8.1,4.4,8.6c0,0,0.1,0,0.1,0.1c0,0.1,0,0.3-0.1,0.4
		C4.3,9.3,4.1,9.5,3.9,9.7C3.8,9.8,3.7,9.9,3.6,9.9c0,0,0,0-0.1-0.1c0-0.1,0-0.2,0.1-0.4c-0.6,0.3-0.8,0.9-1.1,1.4
		c-0.3,0.5-0.4,1.1-0.6,1.6c-0.2-0.1-0.3-0.5-0.2-0.9c0.4-1,1-1.8,1.8-2.6C4.5,8.2,5.5,7.6,6.6,7z"/>
	<path display="none" fill="#FFFFFF" d="M5.7,24v0.4H5.6C5.6,24.3,5.6,24.1,5.7,24L5.7,24z"/>
	<path display="none" fill="#FFFFFF" d="M23.6,11.9c0.1,0,0.2,0,0.2,0.1c0,0,0,0.2,0,0.2c-0.1,0-0.2,0.1-0.3,0.1
		c-0.2-0.2-0.4-0.4-0.7-0.5c-0.2-0.1-0.4-0.2-0.6-0.3c-0.1,0-0.2-0.1-0.3-0.1c-0.1-0.1-0.2-0.3-0.2-0.4c0,0,0.2-0.2,0.3-0.2
		c0.2-0.1,0.5-0.1,0.7-0.1c0.4,0,0.7,0.3,0.8,0.7C23.5,11.5,23.5,11.7,23.6,11.9z"/>
	<path display="none" fill="#FFFFFF" d="M25.6,13.8c0-0.2,0.1-0.3,0.1-0.4c0-0.1,0-0.1-0.1-0.2c-0.1,0-0.2,0.1-0.2,0.1
		c-0.1,0.1-0.2,0.1-0.2,0.2c0-0.1-0.1-0.2-0.1-0.3c0-0.4,0.1-0.8,0.1-1.1c0.2,0.1,0.4,0.2,0.7,0.3c0-0.3,0-0.6,0-0.8
		C26.2,11.9,26.1,13.4,25.6,13.8z"/>
	<path display="none" fill="#FFFFFF" d="M23.1,4.1c-0.1,0.3-0.2,0.5-0.3,0.8c0.3,0,0.5,0,0.8,0.1c0,0,0,0.1,0,0.1
		c-0.1,0.1-0.2,0.1-0.3,0.2C23,5.4,23,5.5,23.2,5.7c0.1,0.1,0.1,0.1,0.1,0.2c0,0,0,0.1,0,0.1c-0.2,0-0.4,0-0.6-0.1
		c-0.5-0.3-0.6-0.7-0.3-1.2C22.6,4.4,22.8,4.2,23.1,4.1C23,4.1,23,4.1,23.1,4.1z"/>
	<path display="none" fill="#FFFFFF" d="M6.6,4.8c0.2,0,0.4-0.1,0.6-0.1c0.4-0.1,0.5-0.2,0.3-0.6C7.3,3.9,7.2,3.8,7,3.6
		c0.1,0,0.1,0,0.1,0C8,3.7,8,3.9,7.8,4.6C7.7,4.8,7.7,5,7.6,5.2C7.5,5.5,7.2,5.6,7,5.3C6.9,5.1,6.8,5,6.6,4.8z"/>
	<path display="none" fill="#FFFFFF" d="M3.9,19c-0.6-0.7-0.6-1.8,0-2.1C3.9,17.6,3.9,18.3,3.9,19z"/>
	<path display="none" fill="#FFFFFF" d="M16.6,9.1c0.2,0.2,0.4,0.5,0.6,0.7c0,0,0.1,0,0.1-0.1c0-0.1,0-0.2,0-0.3c0,0,0,0,0,0
		c0.1,0.3,0.2,0.6,0.3,0.9c-0.2-0.1-0.4-0.1-0.7-0.2c0.1,0.2,0.1,0.4,0.1,0.5c0,0-0.1,0-0.1,0C16.8,10.1,16.7,9.6,16.6,9.1z"/>
	<path display="none" fill="#FFFFFF" d="M16,9.3c0,0.1,0.1,0.4,0.1,0.6c0,0-0.1,0-0.1,0c-0.1-0.1-0.2-0.2-0.3-0.3
		c-0.1,0-0.2,0.1-0.3,0.1c-0.1-0.2-0.1-0.5-0.2-0.7C15.5,9.1,15.7,9.2,16,9.3z"/>
	<path display="none" fill="#FFFFFF" d="M12.7,7.5c-0.1,0.7-0.1,1.4-0.2,2.2C12.2,9.2,12.3,8,12.7,7.5z"/>
	<path display="none" fill="#FFFFFF" d="M5.4,10.5c0.3-0.4,0.5-0.8,0.8-1.1c0,0,0.1,0.1,0.1,0.1c-0.3,0.4-0.5,0.7-0.8,1.1
		C5.5,10.6,5.5,10.5,5.4,10.5z"/>
	<path display="none" fill="#FFFFFF" d="M6.1,11c0.3-0.4,0.5-0.9,0.8-1.3c0,0,0.1,0.1,0.1,0.1C6.8,10.2,6.5,10.6,6.1,11
		C6.2,11.1,6.2,11,6.1,11z"/>
	<path display="none" fill="#FFFFFF" d="M10.9,9.3c0.1-0.6,0.3-1.2,0.4-1.7c0,0,0.1,0,0.1,0c-0.1,0.6-0.3,1.2-0.4,1.7
		C11,9.3,11,9.3,10.9,9.3z"/>
	<path display="none" fill="#FFFFFF" d="M19.8,9.7c0.2,0.4,0.4,0.9,0.6,1.3c0,0-0.1,0-0.1,0.1c-0.2-0.4-0.4-0.9-0.6-1.3
		C19.7,9.7,19.7,9.7,19.8,9.7z"/>
	<path display="none" fill="#FFFFFF" d="M4,10c0.3-0.4,0.5-0.7,0.8-1.1c0,0,0.1,0,0.1,0.1C4.7,9.3,4.4,9.7,4.2,10
		C4.1,10,4.1,10,4,10z"/>
	<path display="none" fill="#FFFFFF" d="M5.1,9.3c-0.2,0.3-0.5,0.7-0.7,1c0,0-0.1,0-0.1-0.1c0.2-0.3,0.5-0.7,0.7-1
		C5,9.2,5.1,9.2,5.1,9.3z"/>
	<path display="none" fill="#FFFFFF" d="M12.3,8.4c0,0.3-0.1,0.6-0.1,0.9c-0.1,0-0.1,0-0.2,0c0-0.3,0.1-0.6,0.1-0.9
		C12.1,8.4,12.2,8.4,12.3,8.4z"/>
	<path display="none" fill="#FFFFFF" d="M11.3,9.2c0.1-0.3,0.2-0.5,0.2-0.8c0,0,0.1,0,0.1,0c-0.1,0.3-0.1,0.5-0.2,0.8
		C11.4,9.2,11.3,9.2,11.3,9.2z"/>
	<path display="none" fill="#FFFFFF" d="M5,9.8c0.2-0.3,0.5-0.7,0.7-1c0,0,0.1,0,0.1,0.1C5.5,9.2,5.2,9.5,5,9.8L5,9.8z"/>
	<path display="none" fill="#FFFFFF" d="M13.4,8.2c0,0.3-0.1,0.6-0.1,1c0,0-0.1,0-0.1,0C13.2,8.9,13.2,8.5,13.4,8.2
		C13.3,8.2,13.4,8.2,13.4,8.2z"/>
	<path display="none" fill="#FFFFFF" d="M14.2,8.6c0,0.2,0,0.4,0,0.6c0,0-0.1,0-0.1,0c0-0.2,0-0.4,0-0.6C14.1,8.6,14.1,8.6,14.2,8.6
		z"/>
	<path display="none" fill="#FFFFFF" d="M18.5,9.8c0.1,0.2,0.2,0.4,0.4,0.6c0,0-0.1,0-0.1,0.1c-0.1-0.2-0.3-0.4-0.4-0.6
		C18.4,9.9,18.5,9.8,18.5,9.8z"/>
	<path display="none" fill="#FFFFFF" d="M5.2,10.1c0.1-0.2,0.3-0.4,0.4-0.6c0,0,0.1,0,0.1,0.1C5.6,9.8,5.5,10,5.4,10.2
		C5.3,10.1,5.3,10.1,5.2,10.1z"/>
	<path display="none" fill="#FFFFFF" d="M5,9.8c0,0.2-0.2,0.6-0.5,0.8C4.7,10.4,4.8,10.1,5,9.8C5,9.8,5,9.8,5,9.8z"/>
	<path fill="#FFFFFF" d="M12.9,13.7c-0.2,0-0.3,0-0.5-0.1c-0.6-0.2-1.2-0.5-1.8-0.6c-1.2-0.2-2.9,0.3-3.5,1.7c0,0.1-0.1,0.2-0.1,0.2
		C6.9,15,6.8,15,6.7,15.1c0-0.1,0-0.2,0-0.3c0.2-0.5,0.5-0.9,0.9-1.2c0.7-0.7,1.6-1,2.7-0.9c0.9,0,1.8,0.3,2.6,0.8
		c0.1,0,0.1,0.1,0.2,0.1C13,13.6,12.9,13.6,12.9,13.7z"/>
	<path fill="#FFFFFF" d="M18.8,14c0.4-0.1,0.8,0.1,1,0.3c0.3,0.3,0.5,0.6,0.7,1c0.1,0.2,0,0.3-0.2,0.3c-0.3-0.1-0.5-0.1-0.8-0.2
		C19,15,18.9,14.5,18.8,14z"/>
	<path fill="#FFFFFF" d="M18.6,17.3c-0.3,0-0.4,0-0.6-0.1c-0.3-0.2-0.6-0.3-0.9-0.5c-0.3-0.2-0.3-0.6-0.3-0.9c0,0,0.2-0.1,0.3-0.1
		c0.2,0,0.4,0.1,0.5,0.2C18.2,16.2,18.4,16.7,18.6,17.3z"/>
	<path fill="#FFFFFF" d="M10.3,17.2c0.2-0.6,0.4-1.2,1-1.4c0.1,0,0.2-0.1,0.3-0.1c0.3-0.2,0.4-0.1,0.4,0.2c0,0.3-0.1,0.6-0.4,0.8
		C11.3,17,10.9,17.2,10.3,17.2z"/>
	<path fill="#FFFFFF" d="M18.6,17.3c0.3-0.4,0.4-0.8,0.7-1.1c0.3-0.2,0.7-0.3,1.1-0.5C20.6,16.4,19.5,17.4,18.6,17.3z"/>
	<path fill="#FFFFFF" d="M18.5,13.9c-0.2,0.8-0.8,1.6-1.6,1.5C16.9,14.5,17.6,14.1,18.5,13.9z"/>
	<path fill="#FFFFFF" d="M8.4,15.4c0.1-0.7,0.6-1.4,1.3-1.5c0.3,0,0.2,0.2,0.2,0.3C9.7,15.1,9.4,15.3,8.4,15.4z"/>
	<path fill="#FFFFFF" d="M10.4,13.9c0.8,0,1.4,0.4,1.6,1.1c0.1,0.3,0,0.3-0.3,0.3C10.8,15.2,10.6,14.6,10.4,13.9z"/>
	<path fill="#FFFFFF" d="M8.4,15.8c0.9,0,1.6,0.6,1.6,1.4C9.2,17.2,8.5,16.6,8.4,15.8z"/>
	<path fill="#FFFFFF" d="M21.4,17.4c-1,1.3-3.9,1.4-4.6,0.1c0.7,0.5,1.4,0.8,2.3,0.7C19.9,18.2,20.6,17.8,21.4,17.4z"/>
	<path fill="#FFFFFF" d="M12.2,17.6c-1,1.3-3.7,1-4.6-0.1c0.7,0.4,1.4,0.7,2.3,0.8C10.7,18.3,11.5,18.1,12.2,17.6z"/>
	<path fill="#FFFFFF" d="M24.5,17.7c-0.3,0.1-0.5,0.3-0.7,0.4c0,0-0.1-0.1-0.1-0.1c0.2-0.2,0.5-0.4,0.7-0.6c0.4-0.3,0.5-0.2,0.7,0.2
		c0.1,0.3-0.1,0.3-0.2,0.4c-0.1,0.2-0.2,0.4-0.4,0.6C24.5,18.3,24.5,18,24.5,17.7z"/>
	<ellipse fill="#FFFFFF" cx="10.2" cy="15.5" rx="1.8" ry="1.7"/>
	<ellipse fill="#FFFFFF" cx="18.7" cy="15.6" rx="1.8" ry="1.7"/>
</g>
</svg>
