<?xml version="1.0" encoding="utf-8"?>
<!-- Generator: Adobe Illustrator 19.0.0, SVG Export Plug-In . SVG Version: 6.00 Build 0)  -->
<svg version="1.2" baseProfile="tiny" xmlns="http://www.w3.org/2000/svg" xmlns:xlink="http://www.w3.org/1999/xlink" x="0px"
	 y="0px" viewBox="0 0 300.8 300.8" xml:space="preserve">
<g id="Layer_1">
	<g>
		<path display="none" fill="#838BC5" d="M87.3,91.9c-2.1-1.7,0.2-10.7,0.4-11.3c6.2,3.4,4.6,18.3,4.6,18.3s-5.4,2.9-7.3,3.5
			c-3.3,1-8.1-1.9-8.1-1.9c0.7-4.2,6.6-4.2,6.6-4.2c-3.2-1.5-6.8-7.8-6.8-7.8C80.3,88,87.3,91.9,87.3,91.9"/>
		<path fill="#838BC5" d="M216.1,89.2c0.4-0.1,9-2.8,13-1.6c0,0-5.5,6.4-9.6,7.5c0,0,6.8,1.3,6.7,6.3c0,0,0,0,0,0h0
			c-0.5,0.2-6.2,2.2-9.7,0.4c-2.1-1.1-7.6-5.6-7.6-5.6s0.1-1.6,0.6-4c0.9-5.3,3.3-14.3,8.7-16C218.2,76.9,218.8,87.7,216.1,89.2"/>
		<path display="none" fill="#838BC5" d="M232.9,192.6c3.8,12.1,5.5,24.4,1.3,37c-8.5,25.2-25.8,41-50.8,48.7
			c-6.4,2-13,3.4-19.6,4.8c-1.2,0.3-2.1,0.6-2.7,1.3c-10.3,1.3-18.9,1-25.6,0.2c-0.9-0.6-2-1.1-3.4-1.4
			c-13.3-2.8-25.7-8.1-37.5-14.7c-17.3-9.7-27.2-24.1-27-44.5c0-5.4,0-10.8,0-16.5c2.9-0.2,5-0.4,7.9-0.6c-0.9-1.1-1.1-1.7-1.6-1.9
			c-4.7-1.9-6.2-5.6-5.9-10.3c0.6-11.6,4.7-22,10.8-31.7c9.1-14.5,19.7-27.5,34.4-36.5c0.7-0.4,1.4-0.9,2.2-1.4
			c0.2-0.1,0.5-0.1,1.7-0.3c-7.6,16.8-6.6,31.9,8.6,44c4.5,1.8,7.4,4.9,9,7c-4.3-6.3-10.3-10.5-11.2-18.2c4.7,8,12.9,9.5,20.7,12
			c8.1,2.6,16.1,3.5,25.7,1.7c-0.5,0.4-1,0.7-1.5,1.1c0.5-0.3,1.2-0.6,2-1c7.2-3.3,25.9-9.7,42.8,2.8c1,0.8,2,1.6,3,2.5
			c-0.5-0.5-1.1-1-1.6-1.5c0.3-0.3,0.6-0.6,0.9-0.9c1.5,1,2.9,2.1,5.2,3.7c-1.3-5.8-2.3-10.9-3.4-15.9c0.4-0.2,0.8-0.4,1.3-0.6
			c1.2,1.4,2.8,2.6,3.5,4.2C225.9,174.6,230,183.4,232.9,192.6"/>
		<rect x="0.7" display="none" fill="#A86CDD" width="300.8" height="300.8"/>
		<ellipse fill="#7C3AED" cx="150.7" cy="150.5" rx="150.7" ry="150"/>
		<path display="none" fill="#384EBA" d="M301.4,150.4c0,49.7-24.2,93.8-61.4,121.2c0-5.6,0.1-11.2,0.2-16.8
			c0.3-14.7,0.4-29.5,0.2-44.2c-0.1-3.9,1.4-6.1,4.5-7.9c10.2-6,16.2-15.4,19.4-26.3c1.6-5.4,1.2-11.6,0.7-17.4
			c-0.7-7.4-5.9-11.8-12.4-14.7c-0.9-0.4-1.9-0.8-2.8-1.1c-2.7-1-6.2-1.3-7.7-3.2c-1-1.2,1.4-4.8,1.5-7.3c0.1-5-0.9-9.5-2.9-13.6v0
			c10.1-38.6,6.4-65.4,6.4-65.4c-1.3-12-5.6-10.2-5.6-10.2c-25,0.9-52,31-61.2,42.4c-17.2-2.3-34.4-2.8-51.5,1.4
			c-3.1,0.7-6.1,1.5-9.1,2.4c-5.2-14.9-16.9-26.3-18.7-28.3C84.4,43.1,76,45,76,45C62.7,48,61.7,67.5,60.7,72
			c-3.3,15.3-2.5,48.1-2.5,48.1C47,128.2,36.4,137.1,28.7,149c-2.7,4.1-4.7,8.9-6.2,13.6c-1.8,5.8-0.3,11.2,3.7,16
			c2.9,3.5,5,7.7,8.2,10.9c3.8,3.8,8.1,7.3,12.6,10.1c2.9,1.8,3.8,3.8,3.7,6.9c-0.3,8.7-0.6,17.4-0.7,26.2c-0.1,9.8,0.1,19.5,0,29.2
			C19.7,234.3,0.7,194.6,0.7,150.4C0.7,67.3,68,0,151.1,0C234.1,0,301.4,67.3,301.4,150.4"/>
	</g>
	<path display="none" fill="none" stroke="#000000" stroke-width="2" stroke-miterlimit="10" d="M215.3,95.1c0,0,6.8,1.3,6.7,6.3
		c0,0,0,0,0,0h0c-0.5,0.2-6.2,2.2-9.7,0.4c-2.1-1.1-7.6-5.6-7.6-5.6s0.1-1.6,0.6-4c0.9-5.3,3.3-14.3,8.7-16c0.1,0.8,0.7,11.6-2,13.1
		c0.4-0.1,9-2.9,13-1.6C224.9,87.6,219.4,94.1,215.3,95.1z"/>
	<path display="none" fill="none" stroke="#000000" stroke-width="2" stroke-miterlimit="10" d="M88.2,98.9c0,0-5.4,2.9-7.3,3.5
		c-3.3,1-8.1-1.9-8.1-1.9c0.7-4.2,6.6-4.2,6.6-4.2c-3.2-1.5-6.8-7.8-6.8-7.8c3.6-0.4,10.7,3.4,10.7,3.4c-2.1-1.7,0.2-10.7,0.4-11.3
		C89.8,84,88.2,98.9,88.2,98.9z"/>
	<path display="none" fill="none" stroke="#000000" stroke-width="2" stroke-miterlimit="10" d="M222,101.4
		c-0.5,0.2-6.2,2.2-9.7,0.4c-2.1-1.1-7.6-5.6-7.6-5.6s0.1-1.6,0.6-4C211.2,94.3,216.8,97.2,222,101.4z"/>
	<path display="none" d="M219.1,190c-2-0.8-3.7-1.9-4.4-3.4c-0.1-0.2-0.2-0.4-0.3-0.6c-0.1-0.2-0.2-0.4-0.3-0.6
		c-0.1-0.1-0.1-0.3-0.2-0.4c-0.2-0.4-0.4-0.8-0.7-1.1c0-0.1-0.1-0.1-0.1-0.2c-0.2-0.3-0.4-0.7-0.7-1c-0.1-0.1-0.2-0.2-0.2-0.3
		c0,0,0-0.1-0.1-0.1c-0.2-0.2-0.3-0.5-0.5-0.7c0-0.1-0.1-0.1-0.1-0.2c-0.1-0.1-0.2-0.3-0.3-0.4c-0.2-0.3-0.4-0.5-0.6-0.7
		c-0.1-0.1-0.2-0.2-0.3-0.3c0,0-0.1-0.1-0.1-0.1c-0.1-0.1-0.3-0.3-0.4-0.4c-0.1-0.1-0.3-0.3-0.4-0.4c-0.3-0.3-0.6-0.6-0.9-0.9
		c-0.1-0.1-0.3-0.3-0.4-0.4c-0.2-0.2-0.4-0.4-0.6-0.5c-0.1-0.1-0.1-0.1-0.2-0.1c-0.1-0.1-0.3-0.2-0.4-0.3c-0.3-0.2-0.6-0.4-0.9-0.7
		h0c-0.4-0.2-0.7-0.5-1.1-0.7c-0.3-0.2-0.6-0.4-0.9-0.5c-0.1-0.1-0.2-0.1-0.4-0.2c-0.2-0.1-0.4-0.2-0.6-0.3c0,0,0,0-0.1,0
		c-0.2-0.1-0.4-0.2-0.6-0.3c0,0-0.1,0-0.1,0c-0.2-0.1-0.5-0.2-0.7-0.3c-0.2-0.1-0.4-0.2-0.5-0.2c-0.2-0.1-0.4-0.2-0.6-0.3
		c-0.3-0.1-0.6-0.2-0.8-0.3l-0.1-0.1c-0.1-0.1-0.3-0.1-0.4-0.1c-0.2-0.1-0.5-0.2-0.7-0.2c-0.3-0.1-0.6-0.2-0.8-0.3
		c-0.4-0.1-0.9-0.3-1.4-0.4c-3.9-1.1-7.8-1.5-11.5-1.4c-0.4,0-0.9,0-1.3,0.1c-0.2,0-0.5,0-0.7,0.1c-0.3,0-0.5,0-0.8,0.1
		c-0.5,0.1-1,0.1-1.5,0.2c-0.4,0.1-0.8,0.1-1.2,0.2c-0.1,0-0.1,0-0.2,0c0,0,0,0-0.1,0c-0.4,0.1-0.7,0.1-1.1,0.2c0,0,0,0-0.1,0
		c-0.1,0-0.1,0-0.2,0c-0.3,0.1-0.5,0.1-0.8,0.2c-0.1,0-0.1,0-0.2,0c-0.4,0.1-0.7,0.2-1.1,0.3c-0.1,0-0.3,0.1-0.4,0.1
		c-0.1,0-0.1,0-0.2,0.1c-0.3,0.1-0.7,0.2-1,0.3c-0.4,0.1-0.8,0.2-1.1,0.3c0,0-0.1,0-0.1,0c-0.4,0.1-0.7,0.2-1.1,0.4
		c-0.4,0.1-0.8,0.3-1.1,0.4c-1.5,0.6-3.1,1.2-4.6,2c-1.6,0.8-3.6,0.9-5.4,1.3c-0.1-0.4-0.3-0.9-0.4-1.3c1.3-0.9,2.5-1.8,4.3-3.1
		c0.5-0.3,1.2-0.6,2-1c7.2-3.3,25.9-9.7,42.8,2.8c1,0.8,2,1.6,3,2.5c0,0,0.1,0.1,0.1,0.1c0.3,0.2,0.5,0.5,0.8,0.7
		c0.3,0.3,0.5,0.5,0.8,0.8c0.2,0.2,0.5,0.5,0.7,0.7c0.2,0.2,0.4,0.5,0.6,0.7c0.2,0.2,0.4,0.5,0.6,0.7c0.1,0.2,0.3,0.3,0.4,0.5
		c0.1,0.2,0.2,0.3,0.4,0.5c0.1,0.2,0.2,0.3,0.3,0.5c0.2,0.4,0.4,0.7,0.6,1.1c0.1,0.1,0.2,0.3,0.3,0.5c0.1,0.2,0.2,0.5,0.3,0.7
		s0.2,0.5,0.3,0.8c0.1,0.1,0.1,0.3,0.2,0.4c0,0.1,0,0.1,0.1,0.2c0.1,0.2,0.2,0.5,0.2,0.7c0,0.1,0.1,0.3,0.1,0.4v0
		c0,0.1,0.1,0.2,0.1,0.4c0,0.2,0.1,0.4,0.1,0.6c0,0.2,0,0.3,0.1,0.5c0,0.2,0.1,0.4,0.1,0.6c0,0.2,0,0.3,0,0.5
		C219.1,189.6,219.1,189.8,219.1,190"/>
	<path display="none" fill="#FFFFFF" d="M174,316.6c-5.4,0.9-10.9,1.4-16.5,1.8c1.1-3.2,2-6.5,2.9-9.9c0.6-2.3,0.4-4.7,0.7-8
		c1.9,1.6,3.6,2.6,4.7,4C168.9,308.3,171.6,312.4,174,316.6"/>
	<path display="none" fill="#FFFFFF" d="M131.9,318.3c-5.1-0.5-10.1-1.2-15.1-2.1c3.5-5.5,7.8-10.6,13.3-15c-0.1,1-0.1,2-0.2,3
		c-0.2,1.8-0.9,3.7-0.5,5.2C130.2,312.5,131,315.4,131.9,318.3"/>
	<path display="none" d="M122.8,213.6c-7.1,11.1-30.5,11.1-42.1-0.2c-0.1-0.1,0-0.3,0.2-0.3C96.4,220.3,110.2,221.3,122.8,213.6"/>
	<path display="none" d="M168.1,213.8c7.1,11.1,30.5,11.1,42.1-0.2c0.1-0.1,0-0.3-0.2-0.3C194.5,220.5,180.6,221.5,168.1,213.8"/>
	<g>
		<path fill="#384EBA" d="M13.4,150.5"/>
		<path fill="#FFFFFF" d="M96.3,99.8c0,0-4.8,2.9-6.6,3.5c-3.1,1-7.5-1.5-7.5-1.5c0.5-3.9,6-4.1,6-4.1c-3-1.3-6.6-7-6.6-7
			c3.3-0.5,9.9,2.8,9.9,2.8c-2-1.5-0.2-9.9,0-10.5C97.2,86,96.3,99.8,96.3,99.8"/>
		<path fill="#FCFCFC" d="M265.9,148.8c-0.9-7.1-6.2-11.1-12.7-13.8c-0.9-0.4-1.8-0.7-2.8-1c-2.7-0.9-6.2-1-7.7-2.8
			c-1-1.1,1.3-4.7,1.2-7.1c-0.1-4.9-1.3-9.1-3.3-13l0,0c8.5-37.5,3.9-63.2,3.9-63.2c-1.7-11.5-5.9-9.7-5.9-9.7
			C214,40,188.5,70,179.8,81.3c-17-1.6-34-1.4-50.7,3.2c-3,0.8-6,1.7-8.9,2.7c-5.6-14.2-17.6-24.7-19.4-26.5
			c-16.9-17-25.1-14.9-25.1-14.9c-13,3.4-13.3,22.2-14.1,26.6c-2.7,14.9-0.7,46.4-0.7,46.4c-10.8,8.3-20.9,17.2-28,28.9
			c-2.5,4.1-4.3,8.7-5.6,13.3c-1.6,5.7,0.1,10.8,4.2,15.3c3,3.3,5.2,7.2,8.4,10.2c3.9,3.5,8.2,6.7,12.8,9.3c2.9,1.6,3.9,3.6,3.9,6.5
			c0,8.4-0.8,16.9,0.2,25.2c2.2,18.5,11.5,25.2,26,33.6c2.1,1.2,50.1,12.7,69.1,12.4c27.1-0.4,58.3-4.9,66.1-8.7
			c2.4-1.2,19.9-9.9,21.5-14.7c4.3-13.5,4.8-36.4,4-50.6c-0.2-3.8,1.2-5.9,4.2-7.7c9.8-6.1,15.4-15.4,18.2-26
			C267.1,160.3,266.6,154.3,265.9,148.8 M208.6,86.3c0.7-5.2,2.7-13.9,8-15.8c0.2,0.8,1.1,11.2-1.5,12.7c0.4-0.2,8.8-3.1,12.7-2
			c0,0-5.2,6.4-9.2,7.6c0,0,6.7,1,6.8,5.8c0,0,0,0,0,0l0,0c-0.5,0.2-6.1,2.3-9.6,0.7c-2.1-1-7.7-5.2-7.7-5.2S208.3,88.6,208.6,86.3
			 M88.4,90.5c-2.1-1.5-0.2-10.3,0-10.9c6.2,3,5.1,17.5,5.1,17.5s-5.2,3-7.1,3.6c-3.3,1.1-8-1.5-8-1.5c0.5-4.1,6.4-4.3,6.4-4.3
			c-3.2-1.3-7-7.3-7-7.3C81.4,87,88.4,90.5,88.4,90.5 M237.9,217.8c-7.5,24.6-24,40.4-48.3,48.8c-6.2,2.1-12.7,3.8-19.1,5.4
			c-1.2,0.3-2.1,0.7-2.7,1.3c-10.1,1.6-18.6,1.6-25.2,1.1c-0.9-0.6-2-0.9-3.4-1.2c-13.2-2.2-25.6-6.9-37.4-12.8
			c-17.4-8.7-27.6-22.3-28.2-41.9c-0.2-5.2-0.4-10.4-0.6-15.9c2.8-0.3,4.9-0.6,7.7-0.9c-0.9-1-1.2-1.6-1.6-1.7
			c-4.7-1.7-6.3-5.1-6.2-9.7c0.2-11.2,3.9-21.4,9.6-31c8.4-14.3,18.4-27.2,32.6-36.4c0.7-0.5,1.4-1,2.1-1.4c0.2-0.1,0.5-0.1,1.7-0.4
			c-6.9,16.5-5.4,30.9,10,42.1c4.4,1.6-3.9-7.3-2.6-10.7c4.9,7.5,13,8.6,20.8,10.8c8.1,2.3,16,2.8,25.4,0.7c-0.5,0.4-1,0.7-1.4,1.1
			c0.5-0.3,1.2-0.6,2-1c7-3.5,25.2-10.3,42.2,1.2c1,0.7,2,1.4,3.1,2.3c-0.5-0.5,2,1,4.5,1.2c-1.4-5.6-2.7-10.4-4-15.2
			c0.4-0.2,0.8-0.5,1.2-0.7c1.2,1.3,2.9,2.4,3.6,3.9c4.1,8.4,8.5,16.8,11.7,25.6C239.6,193.7,241.7,205.5,237.9,217.8"/>
		<path display="none" d="M76.1,91.4c3.5-0.5,10.6,2.9,10.6,2.9c-2.1-1.5-0.2-10.3,0-10.9c6.2,3,5.1,17.5,5.1,17.5s-5.2,3-7.1,3.6
			c-3.3,1.1-8-1.5-8-1.5c0.5-4.1,6.4-4.3,6.4-4.3C79.9,97.3,76.1,91.4,76.1,91.4"/>
		<path fill="#7C3AED" d="M238.1,221.5c-7.5,24.6-24,40.4-48.3,48.8c-6.2,2.1-12.7,3.8-19.1,5.4c-1.2,0.3-2.1,0.7-2.7,1.3
			c-10.1,1.6-18.6,1.6-25.2,1.1c-0.9-0.6-2-0.9-3.4-1.2c-13.2-2.2-25.6-6.9-37.4-12.8c-17.4-8.7-27.6-22.3-28.2-41.9
			c-0.2-5.2-0.6-15.9-0.6-15.9s-0.2-7.7-0.1-12.3c0.2-11.2,3.9-21.4,9.6-31c8.4-14.3,18.4-27.2,32.6-36.4c0.7-0.5,1.4-1,2.1-1.4
			c0.2-0.1,0.5-0.1,1.7-0.4c-6.9,16.5-5.4,30.9,10,42.1c4.4,1.6,3.1,3.2,9.1,6.4c5.9,3.2-10.6-9.7-11.6-17.1
			c4.9,7.5,13,8.6,20.8,10.8c8.1,2.3,16,2.8,25.4,0.7c-0.5,0.4-1,0.7-1.4,1.1c0.5-0.3,1.2-0.6,2-1c7-3.5,25.2-10.3,42.2,1.2
			c1,0.7,2,1.4,3.1,2.3c-0.5-0.5-1.1-0.9-1.6-1.4c0.3-0.3,3.6,3.6,6.1,2.5c-1.4-5.6-2.7-10.4-4-15.2c0.4-0.2,0.8-0.5,1.2-0.7
			c1.2,1.3,2.9,2.4,3.6,3.9c4.1,8.4,8.5,16.8,11.7,25.6C239.7,197.4,241.8,209.2,238.1,221.5"/>
		<path fill="#FFFFFF" d="M91.9,100.8c0,0-5.2,3-7.1,3.6c-3.3,1.1-8-1.5-8-1.5c0.5-4.1,6.4-4.3,6.4-4.3c-3.2-1.3-7-7.3-7-7.3
			c3.5-0.5,10.6,2.9,10.6,2.9c-2.1-1.5-0.2-10.3,0-10.9C92.9,86.4,91.9,100.8,91.9,100.8"/>
		<path fill="#384EBA" d="M111.8,178c10.2,0.1,16,3.1,17,16.5c1.6,7.1-7.5,12.8-16.6,13.5c-7.6,0.6-16.1-5.8-16.6-12.4
			C94.9,185.4,101.3,177.8,111.8,178 M189.8,175.1c9.8-1.3,17.3,5.2,18,14.8c0.8,8-6.6,14.4-14.8,15.1c-9.1,0.8-17.7-4.4-18.1-10.6
			C174.1,180.2,179.7,176.4,189.8,175.1"/>
		<path fill="#FFFFFF" d="M207.8,189.9c0.8,8-6.6,14.4-14.8,15.1c-9.1,0.8-17.7-4.4-18.1-10.6c-0.9-14.2,4.7-17.9,14.8-19.3
			C199.6,173.7,207.1,180.3,207.8,189.9"/>
		<path fill="#FCFCFC" d="M128.8,194.5c1.6,7.1-7.5,12.8-16.6,13.5c-7.6,0.6-16-5.8-16.6-12.4c-0.8-10.1,5.6-17.7,16.1-17.6
			C122,178.1,127.8,181.1,128.8,194.5"/>
		<path fill="#7C3AED" d="M92.4,96.2c0,0-6.5,3.8-8.9,4.6c-4.1,1.4-10.1-1.9-10.1-1.9c0.7-5.1,8-5.4,8-5.4c-4.1-1.7-8.8-9.1-8.8-9.1
			C77.1,83.6,86,88,86,88c-2.6-1.9-0.3-12.9,0-13.7C93.8,78.1,92.4,96.2,92.4,96.2"/>
	</g>
	<path display="none" d="M131.2,176.9c-0.4-0.1-0.7-0.1-1.1-0.2c-0.4-0.1-0.8-0.1-1.2-0.2c-0.2,0-0.4-0.1-0.6-0.1
		c-0.9-0.1-1.6-0.3-2.4-0.5c-2.2-0.7-4.2-1.8-6.3-2.7c-15.8-6.7-38.4-1.3-44,14.5c-0.4,1.2-2.4,1.8-3.7,2.7
		c-0.3-0.4-0.6-0.8-0.9-1.2c1.2-7.6,6.8-12.2,12.4-16.5c0.8-0.6,1.6-1.2,2.4-1.7c0.8-0.5,1.6-1,2.4-1.4c1.7-0.9,3.4-1.6,5.1-2.1
		c0.7-0.2,1.5-0.4,2.2-0.6c0.5-0.1,1-0.2,1.4-0.3c0.7-0.1,1.4-0.2,2.2-0.3c1.3-0.1,2.6-0.2,4-0.2c0.6,0,1.2,0,1.8,0
		c0.6,0,1.2,0.1,1.8,0.1c0.9,0.1,1.8,0.1,2.6,0.3c0.4,0,0.9,0.1,1.3,0.2c0.5,0.1,1.1,0.1,1.6,0.2c0.4,0.1,0.8,0.1,1.2,0.2
		c0.4,0.1,0.8,0.1,1.2,0.2c1.1,0.2,2.1,0.4,3.2,0.6c1.3,0.3,2.6,0.6,3.9,0.8c-0.1-0.1-0.2-0.2-0.3-0.2c4.4,1.8,7.4,4.9,8.9,7
		c0,0,0,0,0,0.1C130.7,176.1,130.9,176.5,131.2,176.9"/>
	<rect x="-19.7" y="-16.1" display="none" fill="none" width="335.2" height="392"/>
</g>
<g id="Layer_2">
</g>
</svg>
